<svg width="23" height="23" viewBox="0 0 23 23" fill="none" xmlns="http://www.w3.org/2000/svg">
<path fill-rule="evenodd" clip-rule="evenodd" d="M6.42165 3.21515C7.32152 1.31529 9.2563 0 11.5 0C13.7437 0 15.6785 1.31529 16.5783 3.21515C16.668 3.21127 16.7582 3.2093 16.8488 3.2093C20.246 3.2093 23 5.96327 23 9.36047C23 11.6932 21.7016 13.7211 19.7907 14.7636V17.9742C19.7907 18.9354 19.7908 19.7369 19.7052 20.3732C19.6149 21.0448 19.4163 21.6511 18.929 22.1383C18.4418 22.6256 17.8355 22.8242 17.1639 22.9145C16.5276 23.0001 15.7261 23 14.7649 23H8.23508C7.27391 23 6.47241 23.0001 5.83614 22.9145C5.16455 22.8242 4.5582 22.6256 4.07096 22.1383C3.58371 21.6511 3.38509 21.0448 3.29479 20.3732C3.20924 19.7369 3.20927 18.9354 3.2093 17.9742V14.7636C1.29839 13.7211 0 11.6932 0 9.36047C0 5.96327 2.75397 3.2093 6.15116 3.2093C6.24176 3.2093 6.33194 3.21127 6.42165 3.21515ZM5.94001 4.81877C3.52707 4.92908 1.60465 6.92027 1.60465 9.36047C1.60465 11.2236 2.72544 12.8267 4.33286 13.529C4.62509 13.6567 4.81395 13.9454 4.81395 14.2643V17.1163H18.186V14.2643C18.186 13.9454 18.3749 13.6567 18.6671 13.529C20.2746 12.8267 21.3953 11.2236 21.3953 9.36047C21.3953 6.92027 19.473 4.92907 17.06 4.81877C17.0971 5.07952 17.1163 5.34582 17.1163 5.61628V6.15116C17.1163 6.59427 16.7571 6.95349 16.314 6.95349C15.8709 6.95349 15.5116 6.59427 15.5116 6.15116V5.61628C15.5116 5.16393 15.4371 4.73064 15.3002 4.32706C14.763 2.74291 13.2634 1.60465 11.5 1.60465C9.7366 1.60465 8.23701 2.74291 7.69979 4.32706C7.56294 4.73064 7.48837 5.16393 7.48837 5.61628V6.15116C7.48837 6.59427 7.12916 6.95349 6.68605 6.95349C6.24294 6.95349 5.88372 6.59427 5.88372 6.15116V5.61628C5.88372 5.34581 5.90289 5.07952 5.94001 4.81877ZM18.1841 18.7209H4.81589C4.82042 19.3301 4.83543 19.7897 4.88514 20.1593C4.9515 20.653 5.0662 20.8643 5.20562 21.0037C5.34502 21.1431 5.5563 21.2578 6.04995 21.3242C6.56669 21.3936 7.25943 21.3953 8.2907 21.3953H14.7093C15.7406 21.3953 16.4333 21.3936 16.95 21.3242C17.4437 21.2578 17.655 21.1431 17.7944 21.0037C17.9338 20.8643 18.0485 20.653 18.1149 20.1593C18.1645 19.7897 18.1796 19.3301 18.1841 18.7209Z" fill="white"/>
</svg>
