<svg width="37" height="35" viewBox="0 0 37 35" fill="none" xmlns="http://www.w3.org/2000/svg">
<path d="M25.403 17.6426L35.5901 7.9108C36.8402 6.71657 36.8402 4.78032 35.5901 3.58512L33.3261 1.42228C32.076 0.228054 30.0492 0.228054 28.7981 1.42228L18.611 11.1541L8.42395 1.42228C7.17386 0.228054 5.14704 0.228054 3.89592 1.42228L1.63191 3.58512C0.381812 4.77935 0.381812 6.7156 1.63191 7.9108L11.819 17.6426L1.63191 27.3744C0.381812 28.5686 0.381812 30.5049 1.63191 31.7001L3.89592 33.8629C5.14602 35.0571 7.17386 35.0571 8.42395 33.8629L18.611 24.1311L28.7981 33.8629C30.0482 35.0571 32.076 35.0571 33.3261 33.8629L35.5901 31.7001C36.8402 30.5058 36.8402 28.5696 35.5901 27.3744L25.403 17.6426Z" fill="#F5F5F5"/>
</svg>
