<svg width="27" height="26" viewBox="0 0 27 26" fill="none" xmlns="http://www.w3.org/2000/svg">
<path d="M10.7002 15.3712V19.6227" stroke="white" stroke-width="2" stroke-linecap="round"/>
<path d="M16.4502 15.3712V19.6227" stroke="white" stroke-width="2" stroke-linecap="round"/>
<path d="M2.875 10.5808L4.6375 20.9281C5.0375 23.2514 6 24.952 9.575 24.952H17.1125C21 24.952 21.575 23.3233 22.025 21.0718L24.125 10.5808" stroke="white" stroke-width="2" stroke-linecap="round"/>
<path d="M9.5123 1L4.9873 5.34729" stroke="white" stroke-width="2" stroke-miterlimit="10" stroke-linecap="round" stroke-linejoin="round"/>
<path d="M17.4873 1L22.0123 5.34729" stroke="white" stroke-width="2" stroke-miterlimit="10" stroke-linecap="round" stroke-linejoin="round"/>
<path d="M1 8.00592C1 5.79036 2.2375 5.61072 3.775 5.61072H23.225C24.7625 5.61072 26 5.79036 26 8.00592C26 10.5808 24.7625 10.4011 23.225 10.4011H3.775C2.2375 10.4011 1 10.5808 1 8.00592Z" stroke="white" stroke-width="2"/>
</svg>
