<?xml version="1.0" encoding="utf-8"?>
<!-- Generator: Adobe Illustrator 26.0.2, SVG Export Plug-In . SVG Version: 6.00 Build 0)  -->
<svg version="1.1" id="Capa_1" xmlns="http://www.w3.org/2000/svg" xmlns:xlink="http://www.w3.org/1999/xlink" x="0px" y="0px"
	 viewBox="0 0 240 100" style="enable-background:new 0 0 240 100;" xml:space="preserve">
<style type="text/css">
	.st0{fill:#FFFFFF;}
	.st1{enable-background:new    ;}
</style>
<rect x="1.8" y="0.3" width="238.5" height="105.1"/>
<path class="st0" d="M42.5,21.6c-2.5,1.9-4.7,4.7-4.8,7.9c-0.1,1.8,0.5,3.6,1.1,5.2c0.6,1.9,1.5,3.7,2.5,5.4
	c0.1,0.1,0.2,0.1,0.3,0.1c0.1-0.1,0.1-0.1,0.1-0.2c-1-3.2-2.9-6-3.4-9.5c-0.2-1.7,0.1-3.5,1-5C40.1,23.9,41.4,22.8,42.5,21.6
	C42.5,21.6,42.5,21.5,42.5,21.6L42.5,21.6z"/>
<path class="st0" d="M42.1,21.9c2.3,2.2,3.6,5.2,3.5,8.4c0,3.4-1.6,6.7-3.4,9.6c-0.2,0.3,0.3,0.6,0.5,0.3c2-3.1,3.4-6.5,3.4-10.3
	c0-3-1.3-6.5-3.8-8.3C42.1,21.4,41.9,21.7,42.1,21.9L42.1,21.9z"/>
<path class="st0" d="M42.2,23.1c-2.3,1.3-3.4,4.5-3.5,7c-0.1,3.6,2.7,6.5,3.1,10.1c0,0.2,0.4,0.2,0.4,0c0-3-2.2-5.4-2.9-8.2
	c-0.3-1.6-0.2-3.3,0.3-4.8C40,25.5,41.1,24.4,42.2,23.1C42.2,23.1,42.2,23.1,42.2,23.1L42.2,23.1z"/>
<path class="st0" d="M42.1,23.2c-0.1,0.1,0,0.2,0.1,0.3c0.1,0,0.2,0,0.2,0c0,0,0-0.1,0-0.2c0,0-0.1,0-0.1,0v0c0-0.1,0-0.1-0.1-0.1
	C42.2,23.2,42.1,23.2,42.1,23.2L42.1,23.2z"/>
<path class="st0" d="M42.3,23.4c2.2,2,2.3,5.4,2.1,8.2c-0.1,1.4-0.3,2.8-0.7,4.1c-0.4,1.5-1.3,2.7-2,4.1c-0.1,0.1,0,0.2,0.1,0.3
	c0.1,0.1,0.2,0,0.3,0c2.2-2.2,2.8-6,2.8-8.9C44.8,28.7,44.7,24.6,42.3,23.4C42.3,23.3,42.3,23.3,42.3,23.4
	C42.2,23.4,42.3,23.4,42.3,23.4L42.3,23.4z"/>
<path class="st0" d="M41.9,26c-1.3,0.6-2,1.9-2.4,3.2C39.1,30.5,39,33,40,34.1c0,0,0.1,0,0.2,0c0,0,0,0,0-0.1c0.1-0.3,0.1-0.7,0-1.1
	C40,32,39.9,31.1,40,30.1C40.1,28.5,41,27.2,41.9,26C42,26,42,25.9,41.9,26L41.9,26z"/>
<path class="st0" d="M41.8,26.2c0.8,0.8,1.4,1.8,1.7,2.9c0.4,1.1,0.2,2.2,0.5,3.2c0,0.1,0.1,0.2,0.2,0.2c0.1,0,0.1-0.1,0.2-0.2
	c0.7-1.8-0.5-5.7-2.5-6.3c0,0-0.1,0-0.1,0.1C41.7,26.1,41.8,26.2,41.8,26.2L41.8,26.2z"/>
<path class="st0" d="M44.3,31.6c-0.2,0.8-0.2,1.7,0,2.6c0,0,0,0,0.1,0c0,0,0,0,0,0c0.2-0.8,0.2-1.7,0-2.6
	C44.4,31.6,44.3,31.6,44.3,31.6C44.3,31.6,44.3,31.6,44.3,31.6L44.3,31.6z"/>
<path class="st0" d="M44,31.9c0.1,0.7,0.1,1.3,0.2,2c0,0,0,0,0,0c0.2-0.7,0.2-1.4,0-2C44.2,31.8,44,31.8,44,31.9L44,31.9z"/>
<path class="st0" d="M39.8,33.4c0.1,0.8,0.3,1.5,0.7,2.1c0,0,0.1,0,0.1,0c0,0,0,0,0,0c-0.1-0.8-0.3-1.5-0.7-2.2
	C39.9,33.3,39.8,33.4,39.8,33.4L39.8,33.4z"/>
<path class="st0" d="M40,33.6c0,0.6,0.1,1.2,0.4,1.8c0,0,0.1,0,0.1,0c0,0,0,0,0-0.1c0-0.6-0.1-1.2-0.4-1.8
	C40.1,33.5,40,33.5,40,33.6C40,33.5,40,33.5,40,33.6z"/>
<path class="st0" d="M41.9,27c0-0.1,0-0.1,0-0.2c0,0,0,0,0,0c0,0,0,0.1,0,0.2C41.8,27.1,41.9,27.1,41.9,27z"/>
<path class="st0" d="M41.9,26.9c-0.5,1.8-0.6,3.7-0.2,5.6c0,0,0.1,0.1,0.1,0.1c0,0,0,0,0.1-0.1c0.1-0.9,0-1.7,0-2.6
	C41.8,28.9,41.9,27.9,41.9,26.9L41.9,26.9L41.9,26.9z"/>
<path class="st0" d="M41.9,29.9c-0.1,0.4-0.1,0.7-0.1,1.1c0,0.4,0,0.9,0.1,1.3c0,0,0,0,0,0c0,0,0,0,0,0c0.1-0.4,0.1-0.7,0.1-1.1
	c0-0.4,0-0.9-0.1-1.3C42,29.9,42,29.8,41.9,29.9C41.9,29.9,41.9,29.9,41.9,29.9L41.9,29.9z"/>
<path class="st0" d="M42.3,30.7c0,3-0.3,6-0.7,9c0,0.3,0.4,0.4,0.5,0.1C42.6,36.8,42.7,33.8,42.3,30.7
	C42.3,30.7,42.3,30.7,42.3,30.7C42.3,30.7,42.3,30.7,42.3,30.7C42.3,30.7,42.3,30.7,42.3,30.7L42.3,30.7z"/>
<path class="st0" d="M41.6,33.7c-0.3,1.9-0.1,3.9,0.6,5.7c0,0.1,0.1,0.1,0.1,0c-0.1-1-0.2-2.1-0.3-3.1C42,35.4,41.9,34.5,41.6,33.7
	C41.7,33.6,41.7,33.6,41.6,33.7C41.7,33.6,41.6,33.6,41.6,33.7L41.6,33.7z"/>
<path class="st0" d="M41.2,40.1c-0.8-2-1.9-3.8-2.8-5.7c-0.8-1.7-1.5-3.3-3-4.5c-2.4-2-6.6-2.4-9.4-1.3c-0.1,0-0.1,0.1-0.1,0.2
	c0,0.1,0.1,0.1,0.1,0.1c1.7,0,3.3-0.3,4.9-0.2c1.8,0.1,3.5,0.9,4.8,2.1c1.2,1.1,1.9,2.9,2.6,4.3c0.9,1.7,1.7,3.5,2.6,5.2
	C41,40.5,41.3,40.3,41.2,40.1L41.2,40.1z"/>
<path class="st0" d="M26,28.7c0.5,3.1,2,6,4.4,8.2c2.5,2.2,6.4,3.2,9.5,4.2c0.3,0.1,0.5-0.4,0.1-0.6c-3.1-1.3-6.5-2-9.2-4.1
	c-2.5-2-3.2-5.1-4.5-7.9C26.3,28.3,26,28.4,26,28.7L26,28.7z"/>
<path class="st0" d="M41.4,40.2c-0.8,0.1-1.4,0.7-1.3,1.5c0,0.3,0.1,0.5,0.3,0.8c0.4,0.5,1,0.7,1.6,0.7c0.6-0.1,1.2-0.4,1.3-1
	c0-0.1-0.1-0.3-0.2-0.2c-0.2,0.1-0.4,0.2-0.6,0.4c-0.4,0.3-0.9,0.4-1.3,0.2c-0.4-0.2-0.6-0.5-0.7-0.9c0-0.6,0.5-0.9,0.9-1.1
	c0.1,0,0.1-0.1,0.1-0.2C41.6,40.2,41.5,40.2,41.4,40.2z"/>
<path class="st0" d="M43,40.9c0,0.2,0.1,0.3,0.1,0.5c0,0.2-0.1,0.4-0.1,0.6c0,0.1,0,0.2,0.1,0.2c0.1,0,0.1,0,0.1,0
	c0.4-0.3,0.5-0.9,0.2-1.3c0-0.1-0.1-0.1-0.2-0.2C43.1,40.7,43,40.8,43,40.9L43,40.9z"/>
<path class="st0" d="M42.7,40.3c0.2,0.2,0.4,0.5,0.5,0.8c0.1,0.3-0.1,0.6,0,0.9c0,0.1,0.1,0.1,0.2,0.1c0.4-0.1,0.4-0.7,0.3-1
	c-0.1-0.4-0.4-0.8-0.8-0.9C42.7,40,42.5,40.2,42.7,40.3L42.7,40.3z"/>
<path class="st0" d="M41.7,40.9c-0.1-0.2-0.4-0.2-0.6-0.1c0,0,0,0,0,0c-0.2,0.2-0.2,0.6,0,0.8c0,0,0.1,0,0,0s0-0.2,0-0.3
	c0-0.1,0-0.2,0.1-0.3C41.3,40.9,41.5,40.8,41.7,40.9C41.7,40.9,41.7,40.9,41.7,40.9L41.7,40.9z"/>
<path class="st0" d="M41,41.2c-0.3,0.5-0.1,1.1,0.4,1.4c0.4,0.2,1.4,0.2,1.5-0.4c0,0,0-0.1-0.1-0.1c-0.1,0.1-0.3,0.2-0.4,0.2
	c-0.2,0.1-0.5,0.1-0.7,0.1C41.2,42.2,40.9,41.7,41,41.2C41,41.2,41,41.2,41,41.2L41,41.2z"/>
<path class="st0" d="M42.9,41c0,0.3,0,0.7-0.2,0.9c-0.2,0.3-0.5,0.4-0.8,0.6c0,0-0.1,0,0,0.1c0,0,0,0,0,0c0.4,0.1,0.8-0.1,1-0.5
	c0.1-0.2,0.2-0.4,0.2-0.6c0-0.2,0-0.4-0.2-0.6c0,0-0.1-0.1-0.1,0C42.9,40.9,42.9,40.9,42.9,41L42.9,41z"/>
<path class="st0" d="M42.8,41.2c-0.1-0.3-0.3-0.5-0.6-0.6c-0.2-0.1-0.7,0-0.7,0.3c0,0,0,0.1,0.1,0.1c0.2,0,0.4,0,0.6-0.1
	C42.4,40.9,42.6,41,42.8,41.2L42.8,41.2L42.8,41.2z"/>
<path class="st0" d="M40.2,41.4c-1.9-0.8-4.1-1.2-6.1-1.8s-3.9-1.2-5.9-1.2c-3.3,0-6.3,2.4-8.7,4.4c-0.1,0.1-0.1,0.3,0,0.4
	c2.5,2.5,5.9,3.9,9.4,3.8c1.7,0,3.4-0.5,4.9-1.2c0.9-0.4,1.7-1,2.5-1.5c1.2-0.7,2.5-1.2,3.9-1.7c0.2,0,0.3-0.2,0.2-0.4
	c0-0.2-0.2-0.3-0.4-0.2c-1.9,0.4-3.6,1.2-5.2,2.3c-4.7,3.1-11,2.5-14.9-1.5v0.4c2.7-2.2,5.5-4.4,9.2-4.2c3.7,0.2,7.3,2.1,10.9,2.6
	C40.3,41.7,40.3,41.5,40.2,41.4L40.2,41.4z"/>
<path class="st0" d="M40.8,42.9c-2.1,0.8-4.1,1.9-6.2,3c-1.8,0.9-3.9,1.6-5.4,3c-1.3,1.2-1.8,3-2.4,4.5c-0.4,1.1-0.8,2.1-1.1,3.2
	c-0.1,0.4,0,0.7,0.3,1c0.3,0.3,1.1,0,1.4,0c1.1-0.3,2.2-0.5,3.3-0.7c1.9-0.4,3.7-0.7,5.2-2c1.4-1.1,2.2-2.9,2.9-4.5
	c0.9-1.9,1.8-4,2.1-6.2c0-0.1-0.1-0.2-0.2-0.2c-0.1,0-0.1,0-0.2,0.1c-1.3,3-2.1,6.1-4,8.9c-2.1,3-6.1,3.2-9.4,4
	c-1.5,0.4-0.3-2.1-0.2-2.5c0.3-0.8,0.5-1.5,0.8-2.3c0.6-1.8,1.8-3.3,3.4-4.3c3.1-1.8,6.6-3,9.6-4.9C40.9,43,40.8,42.9,40.8,42.9
	L40.8,42.9z"/>
<path class="st0" d="M41,43.3c-0.4,0.6-0.7,1.3-0.8,2c0,0,0,0,0.1,0c0,0,0,0,0,0c0.4-0.6,0.6-1.3,0.8-2C41.2,43.3,41,43.2,41,43.3
	L41,43.3z"/>
<path class="st0" d="M41,43.6c-0.4,0.9-0.8,1.8-0.9,2.8c0,0.1,0.1,0.1,0.1,0C40.6,45.6,40.9,44.6,41,43.6C41.1,43.6,41,43.6,41,43.6
	L41,43.6z"/>
<path class="st0" d="M39,48.8c-0.7,1.2-1.1,2.6-1.2,4c0,0.1,0.1,0.1,0.1,0C38.2,51.4,38.6,50.1,39,48.8C39.1,48.8,39,48.7,39,48.8
	L39,48.8z"/>
<path class="st0" d="M38.3,50.4c-2.7,4.5,1.2,9.3,4.2,12.5c0.1,0.1,0.3,0.1,0.4,0c0,0,0,0,0-0.1c1.6-3.1,3.2-6.3,3.2-9.9
	c0-3.4-1.9-6.8-3.2-9.9c-0.1-0.3-0.6-0.1-0.5,0.2c0.9,3.2,2.7,5.9,3.1,9.3c0.4,3.6-1.4,7-3.1,10.1l0.5-0.1c-3-3.3-6.4-7.2-4.5-12
	C38.4,50.4,38.3,50.3,38.3,50.4L38.3,50.4z"/>
<path class="st0" d="M43.5,40.5c0.8-1.5,1.6-3,2.4-4.6c0.8-1.5,1.5-3.2,2.7-4.4c2.4-2.4,6.3-2.2,9.2-3.6c0.1-0.1,0.2-0.2,0.1-0.4
	c0-0.1-0.1-0.1-0.2-0.1c-1.6,0.2-3.2,0.8-4.7,1.4c-1.5,0.4-3,1.1-4.3,2c-1.3,1-1.9,2.5-2.7,3.9c-1,1.8-1.9,3.7-2.9,5.5
	C43,40.5,43.3,40.7,43.5,40.5z"/>
<path class="st0" d="M57.2,27.7c0.4,0.2,0.9,0,1.2-0.3c0,0,0-0.1,0-0.1c0,0,0,0,0,0c-0.2-0.1-0.4-0.1-0.6,0
	C57.5,27.3,57.3,27.4,57.2,27.7C57.2,27.7,57.2,27.7,57.2,27.7L57.2,27.7z"/>
<path class="st0" d="M57.7,27.8l0.9,0.6c0,0.4-0.1,0.7-0.2,1.1c-0.1,0.6-0.3,1.1-0.4,1.7c-0.3,1.1-0.8,2.1-1.4,3.1
	c-1.2,1.6-2.7,2.9-4.6,3.8c-1.7,0.8-3.6,1.4-5.5,1.7c-1.2,0.2-2.8,0.7-3,2c0,0.2,0.2,0.5,0.4,0.3c1.7-1.8,4.6-1.9,6.8-2.8
	c2.2-0.8,4.2-2.2,5.7-4c1.4-1.9,2.3-4.1,2.6-6.5c0.1-0.7,0-1.2-0.7-1.5c-0.3-0.1-0.7,0-0.8,0.4c0,0,0,0.1,0,0.1
	C57.6,27.8,57.6,27.8,57.7,27.8L57.7,27.8z"/>
<path class="st0" d="M44.2,41.5l-0.5,0.6c-0.2,0.2-0.3,0.3-0.4,0.5c0,0,0,0.1,0,0.1c0,0,0,0,0,0c0.2-0.2,0.3-0.3,0.4-0.5L44.2,41.5
	L44.2,41.5L44.2,41.5z"/>
<path class="st0" d="M44.2,41.5c-0.2,0.1-0.3,0.2-0.5,0.4c-0.2,0.1-0.3,0.3-0.5,0.4c0,0.1,0,0.1,0,0.2c0,0,0,0,0.1,0.1
	c0.1,0,0.1,0,0.2,0c0.1-0.1,0.3-0.3,0.4-0.4C44,41.9,44.1,41.7,44.2,41.5C44.3,41.5,44.3,41.5,44.2,41.5
	C44.3,41.5,44.2,41.5,44.2,41.5L44.2,41.5z"/>
<path class="st0" d="M43.6,42.1c0.5-0.4,1.1-0.8,1.6-1.2c0.9-0.4,1.8-0.7,2.7-0.9c1.7-0.5,3.5-0.8,5.2-0.8C57,39,60,41.4,63.2,43.2
	c0.3,0.2,0.6-0.2,0.3-0.4c-2.9-2.3-6.6-4.3-10.4-4.2c-2,0.1-3.9,0.5-5.7,1.1C46,40,44.3,40.8,43.6,42.1
	C43.5,42.1,43.5,42.1,43.6,42.1L43.6,42.1z"/>
<path class="st0" d="M63.1,43c0,0.1,0.1,0.3,0.2,0.4c0.1,0.1,0.3,0.2,0.4,0.2c0.1,0,0.1-0.1,0.1-0.1c0,0,0-0.1-0.1-0.1
	C63.5,43.2,63.3,43.1,63.1,43C63.2,42.9,63.2,42.9,63.1,43C63.1,42.9,63.1,42.9,63.1,43z"/>
<path class="st0" d="M63.1,42.9c0.1,0.3,0.3,0.6,0.7,0.7c0.1,0,0.2,0,0.2-0.1c0-0.1,0-0.2-0.1-0.2c-0.2-0.1-0.5-0.2-0.6-0.4
	C63.2,42.7,63.1,42.8,63.1,42.9L63.1,42.9z"/>
<path class="st0" d="M63.3,43c0.1,0.1,0.2,0.3,0.3,0.4c0.1,0.1,0.2,0.3,0.4,0.2c0,0,0.1-0.1,0.1-0.1c0-0.2-0.1-0.3-0.2-0.4
	c-0.1-0.1-0.3-0.2-0.4-0.3C63.3,42.8,63.2,42.9,63.3,43z"/>
<path class="st0" d="M63.4,43.1c0.9,0.6-1.3,1.4-1.4,1.4c-0.5,0.2-0.9,0.4-1.4,0.6c-0.9,0.3-1.9,0.6-2.8,0.8c-2,0.4-4.1,0.3-6-0.4
	c-1.7-0.6-3.4-1.4-5-2.2c-1.3-0.6-2.7-1.5-4.2-1.6c-0.1,0-0.2,0.1-0.2,0.3c0,0.1,0,0.1,0.1,0.2c1,0.6,2,1.1,3.1,1.5
	c1.2,0.6,2.3,1.1,3.5,1.7c2,1,4.2,1.5,6.4,1.5c2.5,0,4.9-1.1,7.2-2.1c0.6-0.3,1.3-0.5,1.4-1.2c0-0.3-0.2-0.7-0.5-0.7c0,0,0,0,0,0
	c-0.1,0-0.1,0-0.1,0.1C63.3,43,63.3,43,63.4,43.1L63.4,43.1z"/>
<path class="st0" d="M43.1,41.1c-0.1,0.1-0.2,0.3-0.2,0.5c0,0.1,0,0.2-0.1,0.3c0,0.1-0.1,0.1-0.2,0.1c-0.1,0-0.3,0.1-0.2-0.2l0,0
	c-0.1,0.2,0.1,0.4,0.3,0.4c0.5-0.1,0.2-0.8,0.4-1.1c0,0,0-0.1,0-0.1C43.1,41.1,43.1,41.1,43.1,41.1L43.1,41.1z"/>
<path class="st0" d="M42.8,41.1c-0.3,0.2-0.5,0.5-0.6,0.8c0,0.1,0.1,0.1,0.2,0.1c0.1,0,0.1,0,0.1-0.1c0-0.3,0.2-0.5,0.4-0.7
	C43,41.2,42.9,41.1,42.8,41.1L42.8,41.1z"/>
<path class="st0" d="M42.4,41.5c-0.1,0.2-0.3,0.4-0.5,0.6c-0.2,0.1-0.4,0.2-0.7,0.2c0,0,0,0,0,0.1c0,0,0,0,0,0
	c0.3,0.1,0.6,0.1,0.8-0.1c0.3-0.2,0.4-0.5,0.4-0.8C42.6,41.5,42.5,41.5,42.4,41.5L42.4,41.5z"/>
<path class="st0" d="M42.9,42.9c0.6,1,1.4,1.9,2,3c0.7,1.3,1.3,2.7,1.8,4.1c0.1,0.3,0.6,0.2,0.5-0.1C46.5,47.4,45,44.5,42.9,42.9
	C43,42.8,42.9,42.8,42.9,42.9z"/>
<path class="st0" d="M43.1,43.7c1.1,2.1,2,4.2,2.8,6.4c0.6,1.7,1.4,3.2,2.5,4.6c1.3,1.5,3,2.2,4.9,2.5c1.5,0.2,3.9,0.8,5.2-0.4
	c0.1-0.1,0.1-0.2,0-0.3c0,0-0.1-0.1-0.2,0c-1.9,0.5-3.9,0.5-5.8,0c-2.2-0.4-3.7-1.9-4.9-3.7C45.9,50,45.5,46.2,43.1,43.7
	C43.2,43.7,43.2,43.7,43.1,43.7C43.1,43.7,43.1,43.7,43.1,43.7L43.1,43.7z"/>
<path class="st0" d="M46.4,49c1.1,2.4,2.2,4.6,4.4,6.2c2.1,1.5,5,1.3,7.5,1.2c0.1,0,0.1-0.1,0.1-0.1c0-0.1-0.1-0.1-0.1-0.1
	c-2.5-0.3-5.1,0.1-7.3-1.3C49,53.5,47.7,51,46.4,49C46.5,48.9,46.5,48.9,46.4,49C46.4,48.9,46.4,48.9,46.4,49z"/>
<path class="st0" d="M43,42.7c2.5,2.3,5.4,3.8,8.5,5.2c1.8,0.7,3.4,1.8,4.7,3.1c1.5,1.6,1.8,3.3,1.9,5.3c0,0.1,0.1,0.2,0.2,0.2
	c0.1,0,0.2-0.1,0.2-0.2c1.2-3.1-2-6.2-4.4-7.7c-1.7-1-3.6-1.7-5.4-2.5C46.7,45.3,44.8,44.1,43,42.7C43,42.6,42.9,42.6,43,42.7z"/>
<path class="st0" d="M58.7,56.9c2.3-2.2-1.5-6.2-3.1-7.6c-1.5-1.2-3.1-2.3-4.9-3.1C48.9,45.3,47,44,45,43.5c-0.1,0-0.2,0.1-0.1,0.2
	c1.2,0.9,2.7,1.5,4,2.2c1.5,0.7,2.9,1.5,4.3,2.3c1.5,0.9,2.9,2,4.1,3.2c0.7,0.7,1.2,1.6,1.5,2.6C59.2,54.9,58.8,55.9,58.7,56.9
	C58.6,56.9,58.6,56.9,58.7,56.9C58.6,56.9,58.7,56.9,58.7,56.9z"/>
<path class="st0" d="M58.4,55.7c0,0.2-0.2,0.4,0,0.5c0,0,0.1,0,0.2,0c0.1-0.1,0-0.3,0-0.5C58.5,55.7,58.4,55.7,58.4,55.7L58.4,55.7z
	"/>
<path class="st0" d="M57.9,57c0.3,0,0.5,0,0.8-0.1c0.1,0,0.2-0.1,0.3-0.2c0.1-0.1,0.1-0.2,0.1-0.3c0-0.1,0-0.1-0.1-0.1l0,0
	c-0.1,0-0.1,0-0.2,0c-0.1,0.1-0.2,0.1-0.3,0.2c-0.2,0.2-0.4,0.3-0.6,0.3C57.8,56.8,57.8,57,57.9,57L57.9,57z"/>
<path class="st0" d="M40.4,32c0,0,0,0.1,0,0.1c0,0,0,0.1,0,0.2s0.1,0.3,0.1,0.4c0,0,0,0.1,0.1,0.1c0,0,0,0,0,0
	c0.2-0.1,0.5-0.4,0.3-0.7c-0.1-0.1-0.2-0.1-0.3-0.1c-0.1,0-0.3,0.1-0.2,0.2c0,0,0,0,0,0s0.1,0,0.1-0.1c0.1,0,0.2,0,0.2,0
	c0.2,0.1,0,0.4-0.2,0.5l0.1,0c0-0.1-0.1-0.2-0.1-0.3s0-0.1-0.1-0.2C40.5,32,40.5,32,40.4,32C40.4,31.9,40.4,31.9,40.4,32L40.4,32z"
	/>
<path class="st0" d="M41.1,33.1c0,0.1,0,0.3,0,0.4c0,0,0,0.1,0.1,0.1c0,0,0,0,0,0c0.1-0.1,0.2-0.3,0.1-0.4c0,0,0,0,0-0.1
	c0,0-0.1,0,0,0c0.1,0.1,0,0.3-0.1,0.3c0,0,0,0,0,0l0.1,0.1C41.2,33.4,41.2,33.3,41.1,33.1C41.2,33.1,41.2,33.1,41.1,33.1
	C41.1,33.1,41.1,33.1,41.1,33.1L41.1,33.1L41.1,33.1z"/>
<path class="st0" d="M40.2,33c0.1,0.8,0.3,1.6,0.7,2.4c0,0,0,0,0.1,0c0,0,0,0,0,0C40.8,34.5,40.5,33.8,40.2,33
	C40.3,33,40.2,33,40.2,33L40.2,33z"/>
<path class="st0" d="M40.6,33.7c0,0.9,0.3,1.8,0.7,2.7c0,0,0,0,0.1,0c0,0,0,0,0-0.1l0,0C41.1,35.4,40.8,34.6,40.6,33.7
	C40.7,33.6,40.6,33.6,40.6,33.7L40.6,33.7z"/>
<path class="st0" d="M40.4,34.7c0.1,0.4,0.2,0.8,0.4,1.2c0,0,0.1,0,0.1,0C40.8,35.5,40.7,35.1,40.4,34.7L40.4,34.7z"/>
<path class="st0" d="M41.8,23.7l0.2-0.3c0,0,0-0.1-0.1,0c-1.4,1.3-2.3,3.1-2.7,5c0,0,0.1,0.1,0.1,0c0.4-0.8,0.6-1.7,1-2.5
	C40.8,25.1,41.5,24.2,41.8,23.7L41.8,23.7L41.8,23.7z"/>
<path class="st0" d="M41.4,24.1c-1.6,1.6-2.4,3.7-2.4,5.9c0,0,0,0.1,0.1,0.1s0.1,0,0.1-0.1C39.3,27.8,40.1,25.8,41.4,24.1
	C41.4,24.1,41.4,24,41.4,24.1L41.4,24.1z"/>
<path class="st0" d="M39.8,27.4c-0.6,1.3-0.8,2.7-0.8,4.1c0,0.1,0.1,0.1,0.2,0C39.2,30.1,39.5,28.8,39.8,27.4
	C39.8,27.4,39.8,27.4,39.8,27.4C39.8,27.4,39.8,27.4,39.8,27.4L39.8,27.4z"/>
<path class="st0" d="M39.2,28.4c-0.4,1.1-0.4,2.3,0,3.4c0,0,0.1,0,0.1,0C39.1,30.7,39.1,29.6,39.2,28.4
	C39.2,28.5,39.2,28.4,39.2,28.4L39.2,28.4z"/>
<path class="st0" d="M41.1,25.1c-0.8,1-1.6,2.5-1.6,3.8c0,0,0,0,0,0c0,0,0,0,0,0c0.2-0.6,0.4-1.1,0.6-1.7
	C40.4,26.4,40.7,25.8,41.1,25.1C41.1,25.1,41.1,25.1,41.1,25.1L41.1,25.1z"/>
<path class="st0" d="M41,26.2c-0.7,0.7-1.2,1.6-1.5,2.5c0,0,0,0.1,0,0.1c0,0,0.1,0,0.1,0l0,0C40.1,27.9,40.5,27.1,41,26.2
	C41.1,26.2,41.1,26.2,41,26.2C41,26.2,41,26.2,41,26.2z"/>
<path class="st0" d="M41.5,26c-0.5,0.5-1,1-1.4,1.5l0.1,0.1c0.1-0.1,0.1-0.3,0.2-0.4c0,0,0,0,0,0c-0.1,0.1-0.2,0.2-0.3,0.4
	c0,0,0,0.1,0,0.1c0,0,0.1,0,0.1,0C40.6,27.1,41.1,26.6,41.5,26C41.5,26.1,41.5,26,41.5,26C41.5,26,41.5,26,41.5,26L41.5,26z"/>
<path class="st0" d="M41.5,25.7c-0.5,0.4-0.9,0.9-1.3,1.3c0,0,0,0,0,0C40.7,26.6,41.2,26.2,41.5,25.7C41.6,25.7,41.6,25.7,41.5,25.7
	C41.6,25.6,41.5,25.6,41.5,25.7z"/>
<path class="st0" d="M42.3,23.1c-0.4,0.5-0.7,1-1,1.6c-0.3,0.4-0.6,0.9-0.8,1.4c0,0,0,0.1,0.1,0c0.3-0.4,0.6-0.9,0.9-1.4
	C41.7,24.2,42.1,23.7,42.3,23.1C42.4,23.1,42.4,23.1,42.3,23.1C42.3,23.1,42.3,23.1,42.3,23.1z"/>
<path class="st0" d="M42.6,23.2c-0.3,0.5-0.7,1-1,1.6c-0.3,0.4-0.6,0.9-0.8,1.4c0,0,0,0.1,0.1,0c0.3-0.4,0.6-0.9,0.9-1.4
	c0.3-0.6,0.6-1.1,0.9-1.6c0,0,0-0.1,0-0.1C42.7,23.2,42.7,23.2,42.6,23.2C42.7,23.2,42.6,23.2,42.6,23.2z"/>
<path class="st0" d="M42.7,23.8c-0.2,0.3-0.4,0.7-0.6,1c-0.2,0.3-0.4,0.7-0.6,1c0,0,0,0,0,0c0.3-0.2,0.5-0.5,0.6-0.8
	C42.6,24.7,42.7,24.3,42.7,23.8L42.7,23.8z"/>
<path class="st0" d="M43.2,24.1c-0.5,0.6-0.8,1.3-1.2,2c0,0.1,0.1,0.1,0.1,0.1C42.6,25.5,42.9,24.8,43.2,24.1
	C43.2,24.1,43.2,24.1,43.2,24.1L43.2,24.1z"/>
<path class="st0" d="M43.4,24.6c-0.2,0.3-0.3,0.6-0.5,0.9c-0.2,0.3-0.3,0.6-0.4,0.9c0,0,0,0.1,0.1,0c0.2-0.3,0.4-0.6,0.5-0.9
	C43.3,25.3,43.4,25,43.4,24.6C43.5,24.6,43.5,24.6,43.4,24.6z"/>
<path class="st0" d="M43.8,25.1c-0.2,0.3-0.3,0.6-0.5,0.9c-0.2,0.3-0.3,0.6-0.4,0.9c0,0,0,0,0,0c0,0,0,0,0,0
	c0.2-0.3,0.4-0.6,0.5-0.9C43.6,25.8,43.8,25.5,43.8,25.1C43.9,25.1,43.8,25.1,43.8,25.1z"/>
<path class="st0" d="M44.1,25.9c-0.3,0.6-0.6,1.3-0.9,1.9c0,0.1,0.1,0.2,0.1,0.1c0.1-0.1,0.2-0.3,0.3-0.4c0,0,0-0.1-0.1-0.1
	c-0.1,0.1-0.2,0.2-0.3,0.3l0.1,0.1C43.6,27.3,43.9,26.6,44.1,25.9C44.1,25.9,44.1,25.9,44.1,25.9L44.1,25.9z"/>
<path class="st0" d="M44.1,27c-0.3,0.3-0.4,0.8-0.3,1.2c0,0,0,0,0,0s0,0,0,0c0.1-0.2,0.1-0.4,0.1-0.6C44,27.5,44.1,27.3,44.1,27
	C44.2,27,44.1,26.9,44.1,27L44.1,27z"/>
<path class="st0" d="M44.3,27.7c-0.1,0.2-0.2,0.4-0.2,0.7c-0.1,0.2-0.2,0.4-0.2,0.7c0,0,0,0,0.1,0c0,0,0,0,0,0
	c0.1-0.2,0.2-0.4,0.2-0.6C44.2,28.2,44.3,27.9,44.3,27.7C44.3,27.7,44.3,27.6,44.3,27.7L44.3,27.7z"/>
<path class="st0" d="M44.3,27.9c0,0.5,0,1.1-0.1,1.6 M44.2,29.5c0.2-0.5,0.2-1.1,0.1-1.6h0L44.2,29.5z"/>
<path class="st0" d="M45.1,39.3c1.4-2,2.5-4.1,4.2-5.8c0.8-0.8,1.7-1.5,2.7-2c1.2-0.6,2.3-0.7,3.6-1c0.1,0,0.1-0.2,0-0.2
	c-2.1-0.4-4.4,1.1-6,2.4C47.6,34.5,46,36.8,45.1,39.3C45,39.3,45,39.3,45.1,39.3C45,39.4,45,39.3,45.1,39.3z"/>
<path class="st0" d="M55.6,30.6c0.6,1.9-0.8,3.1-2.2,4.2c-1.1,0.8-2.3,1.6-3.6,2.3c-1.8,1-4.3,1.4-5.5,3.2c-0.1,0.1,0.1,0.2,0.2,0.2
	c1.1-0.9,2.3-1.6,3.6-2.1c1.5-0.7,2.9-1.5,4.3-2.4c1.7-1.2,4.4-2.9,3.4-5.3C55.8,30.4,55.6,30.5,55.6,30.6L55.6,30.6z"/>
<path class="st0" d="M58,28.7c-0.4,0.7-0.7,1.4-1.1,2s-0.9,1.3-1.2,2c0,0,0,0.1,0,0.1c0,0,0.1,0,0.1,0l0,0c0.5-0.6,1-1.2,1.3-1.9
	c0.4-0.7,0.8-1.4,1.1-2.1C58.2,28.7,58,28.6,58,28.7L58,28.7z"/>
<path class="st0" d="M57.8,28.3c-0.5,1.2-1.1,2.3-1.6,3.5c0,0,0,0,0,0c0.8-1.1,1.4-2.2,1.7-3.5C58,28.2,57.9,28.2,57.8,28.3
	L57.8,28.3z"/>
<path class="st0" d="M58.1,29.1C56,35.4,49.5,37.7,44.4,41c-0.1,0.1,0,0.2,0.1,0.2c3.1-1.2,6.1-3.3,8.7-5.3
	C55.5,34.2,57.6,32,58.1,29.1C58.2,29.1,58.2,29.1,58.1,29.1C58.1,29.1,58.1,29.1,58.1,29.1L58.1,29.1z"/>
<path class="st0" d="M32,29.9c-0.9-0.3-1.7,0.2-2.2,1c-0.7,1.1-0.1,2.6,0.6,3.5c1,1.3,2.6,2.2,4,3.1c1.6,1.1,3.4,2.4,5.3,3
	c0.1,0,0.2-0.1,0.1-0.2c-1.8-1.5-4-2.5-6-3.8c-1-0.6-1.9-1.3-2.8-2.1C29.5,33,29.4,30.2,32,29.9C32,30,32,30,32,29.9
	C32,29.9,32,29.9,32,29.9L32,29.9z"/>
<path class="st0" d="M31.3,30.1c2.6-0.1,4.5,3.1,5.7,5.1c1.1,1.7,1.6,4.1,3.1,5.5c0.1,0,0.1,0,0.2,0c0,0,0-0.1,0-0.1
	c-1.3-2.5-2.5-5.1-4.2-7.4C35.1,31.8,33.3,29.4,31.3,30.1C31.3,30.1,31.2,30.1,31.3,30.1C31.3,30.1,31.3,30.1,31.3,30.1L31.3,30.1z"
	/>
<path class="st0" d="M30.7,31.4c0.9,1,1.9,1.9,2.9,2.7c0,0,0,0,0,0C32.7,33.1,31.8,32.2,30.7,31.4C30.8,31.3,30.7,31.3,30.7,31.4
	C30.7,31.4,30.7,31.4,30.7,31.4L30.7,31.4L30.7,31.4z"/>
<path class="st0" d="M31.2,31.3c2,1.9,4,4,6,5.8c0,0,0.1,0,0,0C35.5,35,33.5,33.1,31.2,31.3C31.3,31.3,31.2,31.3,31.2,31.3
	L31.2,31.3z"/>
<path class="st0" d="M54.4,31.4C52,33,49.9,34.9,48,37.1c0,0,0,0.1,0,0.1s0.1,0,0.1,0C50.2,35.3,52.3,33.3,54.4,31.4
	C54.4,31.5,54.4,31.4,54.4,31.4L54.4,31.4z"/>
<path class="st0" d="M53.9,32.5c-1.8,1.7-3.5,3.3-5.3,5c-0.1,0.1,0,0.1,0.1,0.1C50.6,36.1,52.3,34.4,53.9,32.5
	C53.9,32.6,53.9,32.6,53.9,32.5L53.9,32.5z"/>
<path class="st0" d="M27.1,28.7c0.9,2.4,2,5.2,3.7,7.2c1.5,1.7,3.8,2.8,6,3.5c0,0,0,0,0,0c0,0,0,0,0,0c-2.1-1-4.2-1.9-5.8-3.6
	C29.1,33.9,28.5,31,27.1,28.7C27.2,28.7,27.1,28.7,27.1,28.7L27.1,28.7z"/>
<path class="st0" d="M27.3,29.1c2.7,0.4,5.8-0.1,7.9,2c1.9,1.9,3,4.6,4.7,6.8c0,0,0.1,0,0.1-0.1c-0.8-1.5-1.8-2.9-2.8-4.3
	c-0.7-1.1-1.5-2.2-2.4-3.1c-0.8-0.6-1.8-0.9-2.8-1C30.5,29.1,28.9,29,27.3,29.1C27.3,29,27.3,29,27.3,29.1L27.3,29.1z"/>
<path class="st0" d="M39.3,41.8c-1.6,0.1-3.2-0.1-4.7-0.6c-1.6-0.6-3.1-1-4.7-1.4c-3.1-0.6-6.1,1.2-8.5,3c-0.1,0.1,0,0.3,0.1,0.2
	c1.5-1,3.1-1.9,4.7-2.7c1.7-0.7,3.5-0.4,5.2,0.1c2.5,0.7,5.4,2.3,8,1.5C39.3,41.9,39.3,41.9,39.3,41.8
	C39.3,41.8,39.3,41.8,39.3,41.8L39.3,41.8z"/>
<path class="st0" d="M21.2,43c1.6,0.6,3.2,1.4,4.6,2.5c1.1,0.7,2.4,0.9,3.6,0.6c1.6-0.4,3.1-1,4.5-1.7c1.7-0.8,3.4-1.6,5-2.5
	c0.1-0.1,0-0.3-0.1-0.2c-3,1.3-5.9,3.1-9,4.1c-2,0.6-3.4,0-4.9-1.2c-1.1-0.8-2.3-1.3-3.6-1.7C21.2,42.8,21.1,42.8,21.2,43
	C21.1,42.9,21.1,42.9,21.2,43z"/>
<path class="st0" d="M29.5,40.6c0.6,0.1,1.2,0,1.7-0.3c0,0,0,0,0,0c0,0,0,0,0,0C30.6,40.5,30.1,40.6,29.5,40.6L29.5,40.6z"/>
<path class="st0" d="M31.3,40.3c-1.6-0.5-3.4-0.4-4.9,0.3c-0.9,0.4-1.9,1.6-1.5,2.6c1.1,3.3,6.1,2.5,8.4,1.1c0.1-0.1,0-0.3-0.1-0.2
	c-2.2,0.7-4.7,1.6-6.9,0.4c-0.9-0.5-1.3-1.7-0.8-2.6c0.3-0.7,1.1-1,1.8-1.2C28.6,40.3,30,40.2,31.3,40.3
	C31.3,40.4,31.3,40.4,31.3,40.3C31.4,40.4,31.3,40.3,31.3,40.3C31.3,40.3,31.3,40.3,31.3,40.3L31.3,40.3z"/>
<path class="st0" d="M37.4,42.1c-3-0.4-6.1-0.7-9.2-0.7c-0.1,0-0.1,0.1,0,0.1C31.2,42,34.5,42.5,37.4,42.1L37.4,42.1L37.4,42.1z"/>
<path class="st0" d="M26,42.4c1.6-0.2,3.2-0.2,4.8-0.1c1.4,0.1,2.9,0.5,4.3,0.2c0.1,0,0-0.1,0-0.1C32,42.4,29.1,41.7,26,42.4
	C26,42.4,26,42.5,26,42.4L26,42.4z"/>
<path class="st0" d="M41.1,43.7l0.1-0.1c0,0,0,0,0-0.1c-0.4-0.7-2,0.6-2.4,0.8c-2.1,1.1-4.2,2.3-6.3,3.4c-1.4,0.7-2.7,1.7-3.6,3
	c-1.1,1.7-1.4,3.9-2,5.7c0,0.1,0.1,0.2,0.1,0.1c1.8-0.7,3.6-1.2,5.5-1.4c1.2-0.1,2.3-0.7,2.9-1.7c2.1-3,3.8-6.3,5.2-9.8
	c0.1-0.2-0.2-0.3-0.3-0.1c-1.2,3-2.6,5.9-4.4,8.7c-0.4,0.8-1,1.5-1.7,2.1c-0.7,0.6-1.8,0.6-2.6,0.7c-0.8,0.1-1.6,0.3-2.3,0.5
	c-0.2,0.1-2,0.6-2,0.5c0.4-1.3,0.8-2.7,1.3-4c0.7-1.8,2-2.9,3.7-3.9c1.4-0.8,2.9-1.6,4.4-2.4c0.8-0.4,1.5-0.8,2.3-1.2l0.9-0.5
	C39.8,44.1,41.1,43.4,41.1,43.7C41,43.7,41,43.7,41.1,43.7C41.1,43.7,41.1,43.7,41.1,43.7L41.1,43.7z"/>
<path class="st0" d="M30.9,49.1c0.2-0.1,0.1,0,0.2-0.2c0,0,0-0.1,0-0.1c0,0,0,0-0.1,0c-1.7,1.4-2.1,3.8-0.5,5.4
	c1.9,1.9,4.7-0.8,6.1-2.1c0,0,0-0.1,0-0.1c0,0-0.1,0-0.1,0c-1.4,0.9-3,2.8-4.8,2.4c-1.1-0.2-1.7-1.5-1.8-2.5c0-0.7,0.2-1.3,0.6-1.9
	L30.9,49.1C30.9,49.1,30.9,49.1,30.9,49.1L30.9,49.1z"/>
<path class="st0" d="M39.2,45.2c-1.2,0.8-2.3,1.7-3.3,2.7l0,0C37,47,38,46.1,39.2,45.2C39.2,45.2,39.2,45.2,39.2,45.2L39.2,45.2z"/>
<path class="st0" d="M35.2,48.8c-0.8,0.8-1.6,1.6-2.3,2.5c0,0,0,0,0,0.1c0,0,0,0,0,0C33.8,50.6,34.6,49.8,35.2,48.8L35.2,48.8
	L35.2,48.8z"/>
<path class="st0" d="M36.8,47.8c-1.3,1.3-2.5,2.7-3.7,4.1c0,0.1,0,0.1,0.1,0.1C34.5,50.6,35.7,49.2,36.8,47.8
	C36.8,47.8,36.8,47.7,36.8,47.8L36.8,47.8z"/>
<path class="st0" d="M37.9,48.5c-0.5,0.6-0.9,1.3-1.4,2c-0.2,0.3-0.5,0.7-0.7,1s-0.7,0.7-0.7,1c0,0,0-0.1-0.1-0.1c0,0,0,0,0,0
	l-0.1,0c0,0-0.1,0.1,0,0.1l0,0.1c0,0,0.1,0.1,0.1,0.1c0.6-0.1,0.9-1,1.2-1.4C36.9,50.5,37.4,49.5,37.9,48.5
	C37.9,48.5,37.9,48.5,37.9,48.5L37.9,48.5z"/>
<path class="st0" d="M37.3,49.6c-0.4,0.6-0.8,1.2-1.2,1.8c-0.4,0.6-0.9,1.1-1.3,1.7c0,0.1,0,0.2,0.1,0.1
	C36.1,52.4,37,50.8,37.3,49.6C37.4,49.6,37.4,49.6,37.3,49.6z"/>
<path class="st0" d="M37,50.3c-1.7,1.9-3.1,3.7-5.7,4.1c-0.1,0-0.1,0.1,0,0.1C33.9,54.9,35.9,52.3,37,50.3
	C37.1,50.3,37.1,50.3,37,50.3z"/>
<path class="st0" d="M40.9,43.9c-0.1,0.1-0.1,0.3-0.2,0.4c0,0,0,0,0,0c0,0,0,0,0,0C40.8,44.2,40.9,44,40.9,43.9
	C40.9,43.9,40.9,43.8,40.9,43.9C40.9,43.8,40.9,43.9,40.9,43.9z"/>
<path class="st0" d="M41.1,43.1c-0.1,0.1-0.1,0.2-0.2,0.3c0,0.1-0.1,0.2-0.1,0.3c-0.1,0.2-0.2,0.4-0.1,0.6c0,0,0.1,0.1,0.1,0
	c0,0,0,0,0,0c0.1-0.2,0.2-0.4,0.2-0.6c0-0.1,0.1-0.2,0.1-0.3C41.2,43.3,41.2,43.2,41.1,43.1C41.2,43,41.2,43,41.1,43.1L41.1,43.1z"
	/>
<path class="st0" d="M41.2,43.1c-0.3,0.2-0.6,0.5-0.8,0.8c0,0,0,0,0,0.1c0,0,0,0,0.1,0l0,0C40.7,43.7,41,43.5,41.2,43.1
	C41.2,43.1,41.2,43,41.2,43.1z"/>
<path class="st0" d="M41.4,43.5c-0.3,3.6-2.5,6.5-2.9,10.1c-0.4,3.1,2.2,5.5,3.9,7.7c0.1,0.1,0.2,0.1,0.2,0c0,0,0,0,0-0.1
	c0.2-1.5,1-2.8,1.5-4.2c0.5-1.5,0.7-3.1,0.6-4.7c-0.2-3.1-1.7-5.9-3-8.6c-0.1-0.2-0.4,0-0.3,0.2c1.4,2.9,2.8,5.7,3,8.9
	c0.1,1.7-0.2,3.4-0.9,4.9c-0.2,0.4-1.4,2.8-1.2,3c-1-1.2-1.9-2.4-2.7-3.7c-1-1.7-0.9-3.5-0.5-5.3C39.8,49,41.7,46.4,41.4,43.5
	C41.4,43.5,41.4,43.5,41.4,43.5C41.4,43.5,41.3,43.5,41.4,43.5L41.4,43.5z"/>
<path class="st0" d="M41.9,46.7c-0.9,0.2-2,1.3-2,2.3c0,0,0,0.1,0.1,0.1c0,0,0.1,0,0.1,0c0.3-0.4,0.4-0.8,0.7-1.2
	C41.1,47.4,41.5,47,41.9,46.7C42,46.7,42,46.7,41.9,46.7C42,46.7,42,46.7,41.9,46.7L41.9,46.7z"/>
<path class="st0" d="M41.5,47.2c0.2-0.1,0.4-0.2,0.7-0.2c0.2,0,0.4,0,0.6,0c0,0,0-0.1,0-0.1C42.4,46.7,41.8,46.9,41.5,47.2
	C41.5,47.1,41.5,47.2,41.5,47.2L41.5,47.2z"/>
<path class="st0" d="M42.7,47.1c-0.7-0.4-1.6-0.1-2,0.7c0,0,0,0.1,0,0.1c0,0,0,0.1,0,0.1c0,0,0,0,0.1,0C41.3,47.3,42,47.1,42.7,47.1
	C42.8,47.2,42.8,47.1,42.7,47.1z"/>
<path class="st0" d="M41.4,47.6c-0.2,3.1-0.2,6.1,0,9.2c0,0.1,0.2,0.1,0.2,0C41.5,53.7,41.5,50.7,41.4,47.6
	C41.5,47.6,41.5,47.6,41.4,47.6L41.4,47.6z"/>
<path class="st0" d="M42.1,52.8c-0.5,1.8-0.6,3.6-0.3,5.5c0,0.1,0.2,0.1,0.2,0C41.9,56.4,42,54.6,42.1,52.8
	C42.2,52.8,42.2,52.8,42.1,52.8C42.1,52.8,42.1,52.8,42.1,52.8L42.1,52.8z"/>
<path class="st0" d="M41.8,48.4c-0.2,1.9-0.2,3.9,0,5.8c0,0,0,0,0,0s0,0,0,0C42.1,52.3,42.1,50.4,41.8,48.4
	C41.9,48.4,41.9,48.4,41.8,48.4C41.8,48.4,41.8,48.4,41.8,48.4L41.8,48.4z"/>
<path class="st0" d="M41.7,47.1c0.3,0.1,0.7,0.2,1,0.4c0.3,0.3,0.6,0.6,0.7,0.9c0,0,0.1,0,0.1,0c0,0,0,0,0-0.1
	C43.6,47.5,42.4,46.9,41.7,47.1L41.7,47.1z"/>
<path class="st0" d="M42.5,47.4c0.5,0.3,0.8,0.9,1,1.5l0.2-0.1c-0.3-0.3-0.3-0.9-0.6-1.2c-0.3-0.3-0.6-0.5-1-0.6
	c-0.6-0.1-1.2,0.3-1.3,0.9c0,0.1,0,0.1,0,0.2c0,0.1,0.1,0.1,0.1,0c0.2-0.6,0.8-0.9,1.4-0.8c0.5,0.1,1.2,0.9,1.1,1.5
	c0,0.1,0,0.1,0.1,0.2s0.1,0,0.2-0.1C43.7,48.1,43.2,47.3,42.5,47.4C42.5,47.3,42.5,47.4,42.5,47.4L42.5,47.4z"/>
<path class="st0" d="M44,55.7c-0.4,1-0.9,4.3-2.5,3.9c0,0-0.1,0-0.1,0c0,0,0,0.1,0,0.1l0,0C42.8,61.2,44,56.5,44,55.7
	C44.1,55.7,44,55.7,44,55.7L44,55.7z"/>
<path class="st0" d="M44.3,52.3c0,0.7,0,1.4-0.1,2.1C44.1,55,44,55.7,44,56.4c0,0,0.1,0,0.1,0c0.5-1.3,0.6-2.8,0.4-4.2
	C44.4,52.2,44.3,52.2,44.3,52.3L44.3,52.3z"/>
<path class="st0" d="M44,50.9c-0.3,1.7-0.4,3.4-0.3,5.1c0,0,0,0,0,0c0,0,0,0,0,0C44,54.3,44.1,52.6,44,50.9C44,50.9,44,50.9,44,50.9
	L44,50.9z"/>
<path class="st0" d="M44.1,52.5c0.1,1.1,0.1,2.2-0.2,3.3c0,0,0.1,0.1,0.1,0C44.4,54.8,44.4,53.7,44.1,52.5
	C44.1,52.6,44.1,52.6,44.1,52.5L44.1,52.5z"/>
<path class="st0" d="M44,52.4c0,1.3-0.1,2.5-0.2,3.7c0,0,0,0,0.1,0c0,0,0,0,0,0C44.2,54.9,44.3,53.6,44,52.4
	C44.1,52.3,44,52.3,44,52.4L44,52.4z"/>
<path class="st0" d="M43.9,51.9c-0.2,1.2-0.4,2.4-0.6,3.6c0,0,0,0,0.1,0c0,0,0,0,0,0C43.6,54.3,43.8,53.1,43.9,51.9
	C43.9,51.9,43.9,51.9,43.9,51.9L43.9,51.9z"/>
<path class="st0" d="M43.4,51.9c0,1-0.1,2-0.1,2.9c0,0,0,0,0,0c0,0,0,0,0,0C43.6,53.8,43.6,52.8,43.4,51.9L43.4,51.9L43.4,51.9z"/>
<path class="st0" d="M44,54.7c-0.1,0.6-0.3,1.2-0.5,1.7c-0.2,0.6-0.4,1.2-0.5,1.7c0,0.1,0.1,0.1,0.1,0c0.7-0.9,0.8-2.4,0.9-3.5
	C44.1,54.6,44.1,54.6,44,54.7L44,54.7z"/>
<path class="st0" d="M46.5,48.8c0.2,1,0.6,1.9,1.2,2.7c0,0,0.1,0,0.1,0c0,0,0,0,0,0c-0.2-0.4-0.4-0.8-0.6-1.2
	c-0.2-0.4-0.4-1-0.6-1.4C46.6,48.7,46.5,48.8,46.5,48.8L46.5,48.8z"/>
<path class="st0" d="M46.5,49.2c0.2,1.1,0.7,2,1.4,2.9c0,0,0.1,0,0.1,0c0,0,0,0,0-0.1c-0.2-0.5-0.4-0.9-0.6-1.3
	C47.1,50.2,46.8,49.7,46.5,49.2C46.6,49.1,46.5,49.2,46.5,49.2L46.5,49.2z"/>
<path class="st0" d="M46.7,49.1c0.3,1.1,0.9,2.2,1.6,3.1c0,0,0,0,0.1,0c0,0,0,0,0,0C47.9,51.1,47.3,50.1,46.7,49.1
	C46.8,49,46.7,49,46.7,49.1z"/>
<path class="st0" d="M47.1,49.9c0.4,1.4,1.4,3.1,2.6,4c0.1,0.1,0.2,0,0.1-0.1c-0.4-0.7-1-1.2-1.4-1.9c-0.4-0.7-0.8-1.4-1.2-2.1
	C47.1,49.8,47,49.8,47.1,49.9L47.1,49.9z"/>
<path class="st0" d="M47.3,51c0.5,1.3,1.4,2.4,2.7,3.2c0,0,0.1,0,0.1,0c0,0,0,0,0-0.1c-0.5-0.5-1-0.9-1.4-1.4
	c-0.5-0.5-0.9-1.1-1.2-1.7C47.4,50.9,47.2,50.9,47.3,51z"/>
<path class="st0" d="M46.1,46.9c2.2,1,4.6,1.4,6.8,2.6c1.3,0.7,2.4,1.7,3.3,3c0.9,1.3,0.9,2.5,0.9,4c0,0,0,0.1,0.1,0.1
	c0,0,0,0,0.1,0c1.3-2.2-1-5.1-2.7-6.4c-2.5-1.8-5.3-3-8.4-3.3C46.1,46.8,46.1,46.8,46.1,46.9C46.1,46.8,46.1,46.9,46.1,46.9
	L46.1,46.9z"/>
<path class="st0" d="M47.2,48.2c1.4,0.8,2.7,1.7,4,2.7c1.2,0.9,2.1,2,3.2,3c0,0,0,0,0.1,0c0,0,0,0,0-0.1l0,0
	C52.8,51.4,49.9,49.3,47.2,48.2C47.2,48.1,47.2,48.1,47.2,48.2C47.2,48.1,47.2,48.1,47.2,48.2L47.2,48.2z"/>
<path class="st0" d="M50.5,49.8c2.3,1.5,4.2,3.5,5.7,5.8c0.1,0.1,0.3,0,0.2-0.1C54.9,53.1,52.9,51.2,50.5,49.8L50.5,49.8L50.5,49.8z
	"/>
<path class="st0" d="M44.5,41.9c1.8,0.4,3.5,1.1,5.1,2c1.2,0.6,2.6,1,4,1.1c3,0.4,6.1,0.3,8.7-1.4c0.1-0.1,0-0.2-0.1-0.1
	c-2.7,1.7-6,1.5-9.1,1.2c-1.9-0.2-3.3-1-5-1.8C47,42.2,45.7,41.9,44.5,41.9C44.4,41.8,44.4,41.8,44.5,41.9
	C44.4,41.8,44.4,41.8,44.5,41.9z"/>
<path class="st0" d="M44.7,41.9c3-0.9,6-1.9,9.2-1.8c1.7,0.1,3.3,0.5,4.9,1.2c1.4,0.6,2.5,1.6,3.9,2.3c0.1,0,0.2-0.1,0.1-0.1
	c-2.2-2-4.9-3.2-7.8-3.6c-3.4-0.4-7.1,0.7-10.3,1.8C44.5,41.7,44.6,41.9,44.7,41.9L44.7,41.9z"/>
<path class="st0" d="M47.7,42.7c1.1-0.2,2.1-0.6,3.1-1.1c1-0.4,2.1-0.6,3.3-0.7c1.8-0.1,6.5,0.6,6.5,3c0,0.1,0.1,0.1,0.1,0.1
	c0.1,0,0.1,0,0.1-0.1c0.8-2.2-3.6-3.2-5.1-3.4c-3-0.4-5.5,0.8-8.1,2.1C47.6,42.6,47.6,42.7,47.7,42.7L47.7,42.7z"/>
<path class="st0" d="M60.8,43.8c0,0.1,0,0.3,0,0.4c0,0.1-0.1,0.1-0.1,0.2c0,0-0.1,0.1-0.2,0.1c0,0,0,0,0,0.1c0,0,0,0,0,0
	c0.1,0,0.3-0.1,0.3-0.2C60.9,44.1,60.9,43.9,60.8,43.8C60.8,43.7,60.8,43.7,60.8,43.8L60.8,43.8z"/>
<path class="st0" d="M60.7,43.5c-0.1,0.3-0.2,0.5-0.1,0.8c0,0,0.1,0,0.1,0C60.7,44.1,60.8,43.8,60.7,43.5
	C60.8,43.5,60.7,43.5,60.7,43.5C60.7,43.5,60.7,43.5,60.7,43.5L60.7,43.5z"/>
<path class="st0" d="M60,43.2c-3.4-1.9-7.7-1.3-11.4-0.4c0,0,0,0,0,0.1c0,0,0,0,0,0c1.9-0.1,3.7-0.5,5.6-0.6
	C56.1,42.2,58.1,42.6,60,43.2C60,43.3,60,43.3,60,43.2L60,43.2z"/>
<path class="st0" d="M48.3,42.7c2.7,0.2,5.4,0.1,8-0.4c0,0,0,0,0-0.1c0,0,0,0,0,0C53.7,42.2,51,42.5,48.3,42.7
	C48.3,42.6,48.3,42.6,48.3,42.7C48.3,42.7,48.3,42.7,48.3,42.7L48.3,42.7z"/>
<path class="st0" d="M45.7,41.2c0,0.1-0.1,0.2-0.1,0.3c0,0.1-0.1,0.2,0,0.3c0,0,0,0,0.1,0c0.1,0,0.1-0.1,0.1-0.2
	S45.7,41.4,45.7,41.2C45.8,41.1,45.7,41.1,45.7,41.2L45.7,41.2z"/>
<path class="st0" d="M46.5,41c-0.2,0.1-0.4,0.2-0.4,0.4c-0.1,0.1-0.1,0.4,0,0.6c0,0,0,0,0.1,0c0.1-0.1,0-0.3,0-0.4
	C46.2,41.3,46.3,41.2,46.5,41C46.5,41,46.5,41,46.5,41L46.5,41z"/>
<path class="st0" d="M47,40.9c-0.2,0.3-0.5,0.8-0.3,1.1c0,0,0,0,0.1,0c0,0,0,0,0,0c0.1-0.1,0.1-0.3,0.1-0.5
	C46.9,41.4,47,41.2,47,40.9C47.1,41,47,40.9,47,40.9L47,40.9z"/>
<path class="st0" d="M47.6,40.8c-0.3,0.5-0.5,0.9-0.7,1.4c0,0.1,0,0.1,0.1,0.1c0.1,0,0.1,0,0.1-0.1c0.2-0.5,0.4-1,0.6-1.5
	C47.7,40.8,47.7,40.8,47.6,40.8C47.7,40.8,47.6,40.8,47.6,40.8L47.6,40.8z"/>
<path class="st0" d="M48.6,40.7c-0.2,0.3-0.3,0.6-0.5,0.8c-0.2,0.2-0.3,0.5-0.4,0.8c0,0.1,0.1,0.2,0.2,0.1c0.2-0.2,0.3-0.5,0.4-0.7
	c0.1-0.3,0.3-0.6,0.4-0.9C48.7,40.7,48.6,40.6,48.6,40.7L48.6,40.7z"/>
<path class="st0" d="M49.5,40.8c-0.1,0.2-0.3,0.4-0.4,0.6c-0.2,0.2-0.3,0.4-0.3,0.7c0,0,0,0.1,0,0.1c0,0,0,0,0,0
	c0.2-0.2,0.3-0.3,0.4-0.6C49.4,41.3,49.5,41.1,49.5,40.8C49.6,40.8,49.6,40.8,49.5,40.8C49.5,40.8,49.5,40.8,49.5,40.8L49.5,40.8z"
	/>
<path class="st0" d="M50.4,40.4c-0.2,0.2-0.3,0.4-0.4,0.6c-0.1,0.2-0.2,0.4-0.3,0.6c0,0,0,0,0,0c0,0,0,0,0,0
	c0.2-0.1,0.3-0.3,0.3-0.5C50.3,41,50.4,40.7,50.4,40.4C50.5,40.4,50.5,40.4,50.4,40.4z"/>
<path class="st0" d="M51.4,40.2c-0.3,0.3-0.6,0.7-0.8,1.2c0,0,0,0.1,0.1,0C51.1,41.1,51.4,40.7,51.4,40.2
	C51.5,40.2,51.5,40.2,51.4,40.2z"/>
<path class="st0" d="M52.5,40.1c-0.1,0.2-0.2,0.3-0.3,0.5c0,0,0,0.1,0,0c0.1-0.1,0.3-0.3,0.4-0.5C52.7,40.2,52.6,40.1,52.5,40.1
	C52.6,40.1,52.5,40.1,52.5,40.1z"/>
<path class="st0" d="M52.6,40.2c0.1-0.2,0.3-0.2,0.5-0.2c0,0,0-0.1,0-0.1C53,39.9,53,40,52.9,40.2c-0.1,0.1-0.1,0.2-0.1,0.4
	c0,0,0,0.1,0,0.1c0,0,0,0,0,0c0.1-0.1,0.2-0.2,0.2-0.3c0.1-0.1,0.1-0.3,0.2-0.4c0,0,0-0.1,0-0.1c0,0,0,0,0,0
	C52.9,39.9,52.7,40,52.6,40.2C52.6,40.2,52.6,40.2,52.6,40.2L52.6,40.2z"/>
<path class="st0" d="M49.9,51.8c0,0.1,0.1,0.1,0.2,0c0.1-0.1,0.3-0.2,0.2-0.3c-0.1-0.3-0.6,0.1-0.4,0.2c0,0,0,0,0,0c0,0,0-0.1,0-0.1
	c0,0,0.1-0.1,0.2,0C50.3,51.4,50,52,49.9,51.8C49.9,51.7,49.9,51.7,49.9,51.8L49.9,51.8z"/>
<path class="st0" d="M51.1,52.4c0.1,0,0.2,0.1,0.2,0.3c0,0,0,0.1-0.1,0.1c-0.1,0.1-0.2,0-0.2-0.1C51,52.5,51,52.4,51.1,52.4
	c-0.1,0-0.1-0.1-0.1-0.1c-0.3,0.1-0.1,0.6,0.2,0.5C51.5,52.8,51.4,52.2,51.1,52.4C51.1,52.3,51.1,52.3,51.1,52.4L51.1,52.4z"/>
<path class="st0" d="M48.4,51.2c0.2,1.3,1,2.4,2.1,3.1c0,0,0.1,0,0.1,0c0,0,0-0.1,0-0.1l0,0C49.6,53.4,48.8,52.4,48.4,51.2
	L48.4,51.2z"/>
<path class="st0" d="M48.9,52.3c0.1,0.6,0.4,1.1,0.8,1.5c0.3,0.4,0.8,0.7,1.3,0.9c0,0,0.1,0,0.1-0.1c0,0,0,0,0,0
	c-0.1-0.1-0.3-0.2-0.5-0.3c-0.3-0.2-0.5-0.4-0.7-0.6C49.4,53.2,49.1,52.7,48.9,52.3C48.9,52.2,48.9,52.2,48.9,52.3
	C48.9,52.2,48.9,52.2,48.9,52.3L48.9,52.3z"/>
<path class="st0" d="M48.8,52.7c0.3,0.5,0.7,1,1.2,1.4c0.5,0.5,1.1,0.7,1.8,0.8c0,0,0.1,0,0.1-0.1c0,0,0,0,0,0
	c-0.5-0.3-1.1-0.5-1.6-0.8C49.7,53.6,49.3,53.1,48.8,52.7C48.9,52.6,48.8,52.6,48.8,52.7z"/>
<path class="st0" d="M49.5,52.7c0.3,0.5,0.6,0.9,0.9,1.3c0.3,0.4,0.7,0.7,1.2,0.9c0,0,0.1,0,0-0.1c-0.3-0.3-0.7-0.6-1.1-0.9
	C50.2,53.4,49.9,53.1,49.5,52.7C49.5,52.6,49.5,52.6,49.5,52.7L49.5,52.7z"/>
<path class="st0" d="M50.2,53.2c0.3,0.4,0.7,0.8,1,1.1c0.3,0.4,0.7,0.6,1.2,0.8c0.1,0,0.1-0.1,0.1-0.1c-0.3-0.3-0.7-0.6-1.1-0.9
	C51,53.9,50.6,53.5,50.2,53.2C50.2,53.1,50.1,53.2,50.2,53.2L50.2,53.2z"/>
<path class="st0" d="M50.6,54.6c0.5,0.6,1.7,1.3,2.5,0.8c0,0,0-0.1,0-0.1c-0.4-0.1-0.8,0-1.1-0.1C51.4,55.1,51,54.8,50.6,54.6
	C50.6,54.5,50.5,54.5,50.6,54.6L50.6,54.6z"/>
<path class="st0" d="M51.2,54.6c0.8,0.8,2,1.1,3.1,0.9c0.1,0,0-0.1,0-0.1c-1.1,0-2.1-0.4-3-0.9C51.2,54.5,51.1,54.6,51.2,54.6
	L51.2,54.6z"/>
<path class="st0" d="M44.6,44c0.1,0.4,0.3,0.8,0.6,1.1c0.2,0.4,0.4,0.9,0.6,1.2c0,0,0.1,0,0.1,0c0-0.4-0.2-0.9-0.4-1.2
	C45.4,44.7,45.1,44.2,44.6,44C44.6,44,44.6,44,44.6,44C44.6,44,44.6,44,44.6,44L44.6,44z"/>
<path class="st0" d="M45.2,44.6c0.1,0.4,0.3,0.8,0.5,1.1c0.1,0.3,0.3,0.7,0.6,0.9c0,0,0.1,0,0.1,0c0,0,0,0,0,0
	c-0.1-0.4-0.2-0.7-0.4-1C45.8,45.2,45.6,44.8,45.2,44.6C45.3,44.5,45.2,44.5,45.2,44.6L45.2,44.6z"/>
<path class="st0" d="M45.9,45c0.2,0.3,0.4,0.6,0.6,1c0.2,0.3,0.2,0.7,0.5,0.9c0,0,0.1,0,0.1,0c0,0,0,0,0,0c0.1-0.3-0.2-0.6-0.3-0.9
	C46.5,45.6,46.3,45.2,45.9,45C45.9,44.9,45.8,44.9,45.9,45z"/>
<path class="st0" d="M46.7,45.5c0.1,0.3,0.3,0.5,0.5,0.8c0.1,0.2,0.2,0.5,0.5,0.6c0,0,0.1,0,0.1,0c0,0,0-0.1,0-0.1
	c0-0.2-0.2-0.5-0.3-0.7c-0.2-0.3-0.4-0.5-0.6-0.7C46.8,45.4,46.7,45.4,46.7,45.5L46.7,45.5z"/>
<path class="st0" d="M47.2,45.9c0.1,0.2,0.2,0.4,0.4,0.6c0.1,0.2,0.2,0.3,0.4,0.4c0,0,0.1,0,0.1,0c0,0,0,0,0,0
	c0-0.2-0.1-0.3-0.2-0.5c-0.2-0.2-0.3-0.4-0.5-0.6C47.3,45.8,47.2,45.8,47.2,45.9z"/>
<path class="st0" d="M47.7,46c0.1,0.2,0.3,0.4,0.4,0.6c0.1,0.2,0.3,0.4,0.5,0.4c0,0,0.1,0,0.1,0c0,0,0,0,0,0
	c-0.1-0.2-0.2-0.3-0.4-0.4C48.1,46.4,47.9,46.2,47.7,46C47.7,46,47.7,45.9,47.7,46C47.7,46,47.7,46,47.7,46L47.7,46z"/>
<path class="st0" d="M48.3,46.4c0.2,0.4,0.6,0.9,1.1,0.8c0,0,0.1,0,0.1,0c0,0,0,0,0,0c-0.1-0.1-0.3-0.2-0.5-0.3
	C48.7,46.7,48.5,46.6,48.3,46.4C48.3,46.3,48.3,46.4,48.3,46.4L48.3,46.4z"/>
<path class="st0" d="M48.7,46.8c0.4,0.4,1.2,0.8,1.7,0.5c0,0,0,0,0-0.1c0,0,0,0,0,0c-0.3-0.1-0.6,0-0.8-0.1
	C49.2,47,48.9,46.9,48.7,46.8C48.7,46.7,48.6,46.7,48.7,46.8L48.7,46.8z"/>
<path class="st0" d="M52.3,49.6c-0.1,0.2,0,0.4,0.1,0.5c0.1,0,0.1,0.1,0.2,0.1c0,0,0.1,0,0.1-0.1c0-0.2-0.2-0.4-0.4-0.3
	c0,0,0,0.1,0,0.1c0.1,0,0.2,0.1,0.2,0.2l0.1-0.1c-0.2,0-0.3-0.1-0.3-0.3C52.3,49.6,52.3,49.6,52.3,49.6
	C52.3,49.6,52.3,49.5,52.3,49.6L52.3,49.6z"/>
<path class="st0" d="M30.8,50.3c0,0.2,0.2,0.3,0.3,0.3c0,0,0,0,0,0c0.2-0.1,0.2-0.2,0.2-0.4c0,0,0,0,0,0C31.2,50,31,50,30.8,50.1
	c0,0,0,0,0,0c-0.1,0.1-0.2,0.3-0.1,0.4c0,0.1,0.1,0.1,0.2,0.1c0,0,0.1,0,0-0.1C30.9,50.5,30.8,50.4,30.8,50.3
	c0.1-0.1,0.3-0.2,0.4-0.2c0,0,0.1,0,0.1,0c0.1,0.1,0,0.3-0.1,0.4C31.1,50.6,30.8,50.5,30.8,50.3L30.8,50.3z"/>
<path class="st0" d="M32.8,49.2c0.1,0.1,0.2,0.3,0.4,0.4c0,0,0.1,0,0.1,0c0.2-0.2-0.2-0.6-0.4-0.4c0,0,0,0.1,0,0
	c0.1-0.1,0.3,0.1,0.2,0.2h0.1C33.1,49.4,33,49.3,32.8,49.2C32.8,49.2,32.8,49.2,32.8,49.2z"/>
<path class="st0" d="M33.7,35.4c-0.1,0.2,0,0.5,0.3,0.6c0,0,0.1,0,0.1,0c0,0,0,0,0,0c0.1-0.1,0.2-0.5-0.1-0.6
	C33.9,35.3,33.7,35.3,33.7,35.4c0,0.1,0,0.1,0,0.2c0,0,0,0,0,0c0,0,0,0,0.1,0c0,0,0,0,0,0c0,0,0-0.1,0.1-0.1c0,0,0.1,0,0.2,0.1
	c0,0.1,0,0.2-0.1,0.3H34C33.9,35.7,33.8,35.6,33.7,35.4C33.8,35.4,33.7,35.3,33.7,35.4C33.7,35.3,33.7,35.4,33.7,35.4L33.7,35.4
	L33.7,35.4z"/>
<path class="st0" d="M34.8,36.9c0.7,0.6,1.5,1.1,2.3,1.5c0,0,0,0,0,0c0,0,0,0,0,0C36.5,37.8,35.7,37.3,34.8,36.9
	C34.8,36.9,34.8,36.9,34.8,36.9L34.8,36.9z"/>
<path class="st0" d="M35.5,37.2c0.3,0.3,0.7,0.6,1.1,0.8c0.3,0.3,0.7,0.5,1.1,0.7c0.1,0,0.1-0.1,0.1-0.1c-0.3-0.3-0.6-0.5-0.9-0.7
	C36.4,37.6,36,37.3,35.5,37.2C35.5,37.1,35.4,37.2,35.5,37.2L35.5,37.2z"/>
<path class="st0" d="M36.3,37.1c0.3,0.6,1,1.3,1.7,1.4c0,0,0.1-0.1,0-0.1c-0.3-0.2-0.6-0.4-0.9-0.6C36.8,37.6,36.6,37.3,36.3,37.1
	C36.3,37,36.2,37,36.3,37.1z"/>
<path class="st0" d="M36.8,37.2c0.2,0.2,0.4,0.5,0.6,0.7c0.2,0.3,0.4,0.5,0.7,0.7c0,0,0.1,0,0.1,0c0,0,0,0,0-0.1
	c-0.1-0.2-0.3-0.5-0.6-0.7c-0.2-0.2-0.5-0.5-0.8-0.7C36.9,37.1,36.9,37.1,36.8,37.2C36.8,37.1,36.8,37.2,36.8,37.2L36.8,37.2z"/>
<path class="st0" d="M37.7,37.5c0.1,0.1,0.1,0.2,0.1,0.3c0.1,0.1,0.2,0.2,0.2,0.3c0.1,0.1,0.2,0.4,0.4,0.5c0,0,0.1,0,0.1-0.1
	c-0.1-0.2-0.1-0.3-0.3-0.5L38,37.8C37.9,37.7,37.8,37.6,37.7,37.5C37.6,37.4,37.7,37.5,37.7,37.5L37.7,37.5z"/>
<path class="st0" d="M38.2,37.4c0,0.5,0.3,1,0.7,1.4c0,0,0,0,0,0c0,0,0,0,0,0C38.6,38.3,38.4,37.9,38.2,37.4
	C38.3,37.3,38.2,37.3,38.2,37.4C38.2,37.3,38.2,37.3,38.2,37.4L38.2,37.4z"/>
<path class="st0" d="M43.3,31.9c-0.2,0.1-0.2,0.4-0.1,0.6c0,0.1,0.1,0.1,0.2,0.1c0,0,0,0,0.1,0c0.1-0.2,0.1-0.5,0-0.7
	C43.4,31.9,43.3,31.9,43.3,31.9c-0.2,0.1-0.2,0.2-0.2,0.3c0,0,0.1,0,0.1,0c0,0,0,0,0,0c0-0.1,0.1-0.2,0.2-0.2h-0.1
	c0.1,0.1,0.1,0.4,0,0.5h0.1c-0.1-0.1-0.2-0.2-0.2-0.4c0,0,0-0.1,0.1-0.1C43.4,32,43.3,32,43.3,31.9L43.3,31.9z"/>
<path class="st0" d="M50.1,33.8c-0.1,0-0.2,0-0.2,0.1l0,0l0,0c0,0-0.1,0-0.1,0.1c0,0.2,0.2,0.2,0.3,0.1c0.2-0.1,0.1-0.4,0.1-0.6
	c0,0-0.1-0.1-0.1,0c-0.2,0-0.5,0.3-0.3,0.5c0,0,0.1,0,0.1,0C49.9,33.9,49.9,33.9,50.1,33.8c-0.1-0.1,0-0.1,0.1-0.1l-0.1,0
	c0,0.1,0.1,0.2,0,0.3c-0.1,0.1-0.1,0-0.1,0l0,0.1C50,33.9,50,33.9,50.1,33.8C50.1,33.9,50.1,33.8,50.1,33.8L50.1,33.8z"/>
<path class="st0" d="M53.7,32.9c-0.3,0.1,0,0.6,0.2,0.6c0.4,0,0.4-0.4,0.4-0.7c0,0,0-0.1-0.1-0.1C54,32.7,53.8,32.8,53.7,32.9
	c0,0.1,0.1,0.1,0.1,0.1c0,0,0,0,0,0c0.1-0.1,0.2-0.2,0.4-0.2l-0.1-0.1c0.1,0.2,0,0.4-0.1,0.5C53.8,33.3,53.6,33.1,53.7,32.9
	C53.8,32.9,53.8,32.8,53.7,32.9L53.7,32.9z"/>
<path class="st0" d="M55,31c-0.1,0-0.2,0.2-0.2,0.3c0,0,0,0,0,0.1c0,0,0,0,0.1,0h0.6c0,0,0.1,0,0.1-0.1c0,0,0,0,0-0.1
	c-0.1-0.1-0.4-0.3-0.5-0.1c0,0,0,0.1,0,0.1c0,0,0,0,0,0c0,0,0.1,0,0.1,0c0.1,0,0.2,0,0.2,0.1c0,0,0-0.1,0.1-0.1h-0.6l0.1,0
	c0-0.1,0-0.2,0.1-0.2C55,31.1,55,31.1,55,31C55.1,31.1,55,31,55,31L55,31z"/>
<path class="st0" d="M27.5,43.1c-0.1,0.1,0.1,0.3,0.2,0.3c0.2,0,0.3-0.3,0.3-0.5c0,0,0,0,0,0c-0.1,0.1-0.2,0.1-0.3,0.2c0,0,0,0,0,0
	c0.1-0.1,0.2-0.1,0.3-0.2h0c0,0.1,0,0.2-0.1,0.3c0,0.1-0.1,0.1-0.2,0.1C27.5,43.3,27.4,43.2,27.5,43.1
	C27.6,43.1,27.5,43.1,27.5,43.1L27.5,43.1z"/>
<path class="st0" d="M29.2,43.4c0,0.2,0.1,0.3,0.3,0.3c0.2,0,0.3-0.1,0.3-0.3c0,0,0,0,0,0c0-0.1-0.1-0.3-0.2-0.3c0,0,0,0-0.1,0
	c-0.1,0-0.2,0.1-0.2,0.3c0,0,0,0,0,0.1h0c0-0.1,0.1-0.2,0.2-0.3c0.2,0,0.2,0.1,0.2,0.3C29.7,43.8,29.3,43.7,29.2,43.4
	C29.3,43.4,29.2,43.4,29.2,43.4L29.2,43.4z"/>
<path class="st0" d="M31.3,43.2c0,0.2,0.2,0.2,0.3,0.1C31.6,43.1,31.3,43.1,31.3,43.2C31.3,43.2,31.3,43.2,31.3,43.2
	c0.1,0,0.1,0,0.1,0c0,0,0.1,0,0,0.1C31.3,43.3,31.3,43.3,31.3,43.2C31.3,43.1,31.3,43.2,31.3,43.2L31.3,43.2z"/>
<path class="st0" d="M33.2,43.4C33.2,43.4,33.2,43.4,33.2,43.4c0.1-0.1,0-0.1,0-0.1l0,0C33.1,43.3,33.1,43.3,33.2,43.4
	C33.1,43.4,33.1,43.4,33.2,43.4z"/>
<path class="st0" d="M27.5,41.4c0.1,0,0.1-0.1,0.1-0.1c0-0.1-0.1-0.1-0.1-0.1c-0.1,0-0.1,0.1-0.1,0.1C27.3,41.3,27.4,41.4,27.5,41.4
	z"/>
<path class="st0" d="M25.5,42c-0.1,0.6,0,1.3,0.4,1.9c0,0,0,0,0,0C25.6,43.3,25.4,42.7,25.5,42L25.5,42L25.5,42z"/>
<path class="st0" d="M25.6,42.6c0,0.6,0.3,1.1,0.7,1.5c0,0,0.1,0,0.1-0.1c-0.1-0.2-0.3-0.4-0.4-0.6C25.8,43.1,25.7,42.8,25.6,42.6
	C25.6,42.5,25.6,42.5,25.6,42.6C25.6,42.5,25.6,42.6,25.6,42.6L25.6,42.6z"/>
<path class="st0" d="M25.9,43c0.2,0.4,0.5,0.8,0.7,1.2c0,0,0,0,0,0C26.4,43.8,26.1,43.4,25.9,43L25.9,43L25.9,43z"/>
<path class="st0" d="M26.4,43.1c0.1,0.2,0.2,0.4,0.3,0.6c0.1,0.2,0.2,0.3,0.3,0.5c0,0,0,0,0.1,0c0,0,0,0,0,0
	c-0.1-0.2-0.1-0.4-0.3-0.5C26.6,43.4,26.5,43.3,26.4,43.1L26.4,43.1z"/>
<path class="st0" d="M26.8,43.2c0,0.4,0.2,0.8,0.5,1c0,0,0.1,0,0,0c-0.1-0.1-0.2-0.3-0.3-0.4C27,43.6,26.9,43.4,26.8,43.2
	C26.9,43.2,26.8,43.2,26.8,43.2L26.8,43.2z"/>
<path class="st0" d="M27.3,44c0.1,0.1,0.3,0.2,0.4,0.4l0,0C27.6,44.3,27.5,44.1,27.3,44C27.3,44,27.3,44,27.3,44L27.3,44z"/>
<path class="st0" d="M30,52.4c0,0.8,0.6,1.6,1.4,1.7c0,0,0,0,0,0c0,0,0,0,0,0c-0.3-0.2-0.6-0.4-0.8-0.6c-0.3-0.3-0.4-0.7-0.5-1.1
	C30.1,52.3,30.1,52.3,30,52.4C30,52.3,30,52.3,30,52.4L30,52.4z"/>
<path class="st0" d="M30.2,52.6c0.3,0.5,0.7,1,1.1,1.4c0.1,0.1,0.5-0.1,0.3-0.2c0,0,0,0,0,0c0,0,0,0,0,0c-0.1,0.1-0.1,0.1-0.2,0
	l-0.1-0.2c-0.1-0.1-0.2-0.3-0.3-0.4C30.7,53.1,30.4,52.8,30.2,52.6C30.2,52.6,30.2,52.6,30.2,52.6L30.2,52.6z"/>
<path class="st0" d="M30.8,52.5c0.2,0.7,0.8,1.2,1.5,1.3c0,0,0-0.1,0-0.1c-0.3-0.1-0.5-0.3-0.8-0.5C31.2,53.1,31,52.8,30.8,52.5
	C30.8,52.5,30.7,52.5,30.8,52.5L30.8,52.5z"/>
<path class="st0" d="M31.4,52.8c0.2,0.2,0.3,0.4,0.5,0.6c0.2,0.2,0.3,0.3,0.6,0.4c0,0,0.1,0,0.1,0c0,0,0,0,0-0.1
	c-0.1-0.2-0.3-0.3-0.5-0.5C31.8,53,31.6,52.9,31.4,52.8C31.4,52.7,31.4,52.7,31.4,52.8L31.4,52.8z"/>
<path class="st0" d="M32.2,52.8c0.2,0.3,0.6,0.6,1,0.6c0,0,0,0,0-0.1c0,0,0,0,0,0c-0.1-0.1-0.3-0.2-0.4-0.3
	c-0.2-0.1-0.3-0.2-0.4-0.3C32.2,52.7,32.1,52.7,32.2,52.8L32.2,52.8z"/>
<path class="st0" d="M32.8,52.7c0.1,0.4,0.5,0.6,0.9,0.7c0,0,0,0,0-0.1c0,0,0,0,0,0C33.4,53.1,33.1,52.9,32.8,52.7
	C32.9,52.6,32.9,52.6,32.8,52.7C32.8,52.6,32.8,52.7,32.8,52.7L32.8,52.7z"/>
<path class="st0" d="M33.5,52.6c0.1,0.2,0.4,0.6,0.6,0.4c0,0,0,0,0-0.1c0,0,0,0,0,0c-0.1-0.1-0.2-0.1-0.2-0.1
	C33.8,52.7,33.7,52.6,33.5,52.6C33.6,52.5,33.5,52.5,33.5,52.6L33.5,52.6z"/>
<path class="st0" d="M33.8,52.5c0.2,0,0.4,0.1,0.7,0.1c0,0,0,0,0,0C34.3,52.6,34.1,52.5,33.8,52.5C33.8,52.5,33.8,52.5,33.8,52.5z"
	/>
<path class="st0" d="M49,43.2c0.4,0.2,0.8,0.3,1.3,0.6c0.4,0.2,0.8,0.5,1.2,0.7c0,0,0,0,0,0c0,0,0,0,0,0C50.8,43.7,50,43.3,49,43.2
	C49,43.1,49,43.2,49,43.2L49,43.2z"/>
<path class="st0" d="M49.7,43.2l0.1,0.1l0,0L49.7,43.2L49.7,43.2z"/>
<path class="st0" d="M49.7,43.3c0.1-0.5-0.6-0.4-0.4,0c0,0.1,0.1,0.2,0.2,0.2c0.2,0,0.4,0.3,0.6,0.4c0.4,0.3,0.8,0.5,1.3,0.6
	c0,0,0.1,0,0.1-0.1c0,0,0,0,0-0.1c-0.3-0.2-0.7-0.3-1-0.5c-0.2-0.1-0.4-0.3-0.6-0.4C49.5,43.3,49.6,43.4,49.7,43.3L49.7,43.3z"/>
<path class="st0" d="M49.9,43.4c0.7,0.5,1.6,1,2.4,1.3c0.1,0,0.1-0.1,0-0.1C51.6,44.1,50.8,43.7,49.9,43.4
	C49.9,43.4,49.9,43.4,49.9,43.4L49.9,43.4z"/>
<path class="st0" d="M49.3,43.1c0.6,0.5,1.3,0.8,2,1.1c0,0,0.1,0,0-0.1C50.7,43.7,50,43.3,49.3,43.1C49.3,43,49.2,43.1,49.3,43.1
	L49.3,43.1z"/>
<path class="st0" d="M48.5,42.8c0.3,0.2,0.7,0.4,1.1,0.5c0.5,0.2,1,0.4,1.5,0.6c0,0,0.1,0,0.1,0c0,0,0,0,0-0.1
	C50.2,43.3,49.4,43,48.5,42.8C48.5,42.8,48.4,42.8,48.5,42.8L48.5,42.8z"/>
<path class="st0" d="M50.6,43.5c0.6,0.4,1.2,0.7,1.8,1c0,0,0,0,0,0c0,0,0,0,0,0C51.9,44.1,51.3,43.7,50.6,43.5
	C50.6,43.4,50.6,43.4,50.6,43.5C50.6,43.5,50.6,43.5,50.6,43.5z"/>
<path class="st0" d="M51.7,43.7c0.3,0.2,0.5,0.3,0.8,0.4c0.3,0.1,0.5,0.3,0.8,0.4c0,0,0.1,0,0-0.1C52.8,44.2,52.3,43.9,51.7,43.7
	C51.7,43.7,51.7,43.7,51.7,43.7C51.7,43.7,51.7,43.7,51.7,43.7L51.7,43.7z"/>
<path class="st0" d="M52.6,43.7c0.4,0.4,0.8,0.8,1.3,1c0,0,0,0,0-0.1C53.5,44.2,53,44,52.6,43.7C52.6,43.6,52.6,43.6,52.6,43.7
	C52.5,43.6,52.5,43.7,52.6,43.7L52.6,43.7z"/>
<path class="st0" d="M53.5,43.7c0.4,0.4,0.8,0.7,1.2,1c0,0,0,0,0,0c0,0,0,0,0,0C54.4,44.2,54,43.9,53.5,43.7
	C53.5,43.6,53.5,43.6,53.5,43.7L53.5,43.7z"/>
<path class="st0" d="M54.3,43.8c0.3,0.3,0.7,0.6,1,0.8c0,0,0,0,0,0C55,44.3,54.7,44,54.3,43.8C54.4,43.7,54.3,43.7,54.3,43.8
	L54.3,43.8z"/>
<path class="st0" d="M55,43.7l0.6,0.5c0.2,0.2,0.3,0.3,0.5,0.5c0,0,0.1,0,0,0c-0.1-0.2-0.3-0.3-0.5-0.5L55,43.7L55,43.7L55,43.7z"/>
<path class="st0" d="M55.7,43.7c0.4,0.3,0.8,0.7,1.2,0.9c0,0,0,0,0,0C56.6,44.2,56.2,43.9,55.7,43.7C55.7,43.6,55.7,43.6,55.7,43.7
	L55.7,43.7z"/>
<path class="st0" d="M56.6,43.5c0.3,0.3,0.7,0.7,1.1,0.9c0,0,0,0,0,0C57.3,44.1,57,43.8,56.6,43.5C56.6,43.5,56.5,43.5,56.6,43.5z"
	/>
<path class="st0" d="M57.2,43.5c0.3,0.3,0.7,0.6,1.1,0.8c0,0,0.1,0,0,0C58,44,57.6,43.7,57.2,43.5C57.2,43.5,57.2,43.5,57.2,43.5z"
	/>
<path class="st0" d="M57.9,43.5c0.2,0.2,0.3,0.3,0.5,0.5c0.2,0.1,0.3,0.3,0.6,0.3c0,0,0.1,0,0,0c-0.2-0.1-0.3-0.2-0.5-0.3
	C58.3,43.8,58.1,43.7,57.9,43.5L57.9,43.5z"/>
<path class="st0" d="M58.4,43.5c0.1,0.1,0.2,0.1,0.3,0.2c0.1,0.1,0.1,0.2,0.2,0.3c0,0,0,0,0.1,0c0-0.1-0.1-0.2-0.2-0.3
	C58.7,43.6,58.6,43.5,58.4,43.5C58.4,43.5,58.4,43.5,58.4,43.5L58.4,43.5z"/>
<path class="st0" d="M59,43.3l0.3,0.5c0.1,0.2,0.2,0.3,0.4,0.5c0,0,0.1,0,0.1,0c-0.2-0.3-0.4-0.7-0.7-0.9C59.1,43.1,59,43.2,59,43.3
	z"/>
<path class="st0" d="M60.7,42.8c0.1,0.2,0.1,0.4,0.2,0.6c0.1,0.2,0.2,0.3,0.3,0.5c0,0,0.1,0,0.1,0c0,0,0,0,0,0c0-0.2,0-0.3-0.1-0.5
	c-0.1-0.2-0.2-0.4-0.3-0.6C60.7,42.6,60.6,42.7,60.7,42.8L60.7,42.8z"/>
<path class="st0" d="M60.7,42.6c0.1,0.2,0.1,0.4,0.2,0.6c0.1,0.2,0.2,0.4,0.3,0.4c0,0,0.1,0,0.1,0c0-0.2,0-0.3-0.2-0.5
	C61,42.9,60.9,42.7,60.7,42.6C60.7,42.5,60.6,42.5,60.7,42.6L60.7,42.6z"/>
<path class="st0" d="M61,42.8c0.1,0.1,0.2,0.3,0.4,0.4l0.2,0.2c0.1,0.1,0.1,0.1,0.2,0.1c0,0,0.1,0,0.1,0c0-0.2-0.1-0.4-0.3-0.5
	C61.4,42.9,61.2,42.8,61,42.8C61,42.8,60.9,42.8,61,42.8L61,42.8z"/>
<path class="st0" d="M61,42.7c0.4,0.2,0.7,0.6,0.9,1l0.2-0.2c-0.3-0.3-0.5-0.5-0.8-0.7c0,0-0.1,0-0.1,0c0,0,0,0,0,0.1
	c0,0.4,0.1,0.7,0.3,1c0,0,0,0,0.1,0c0,0,0,0,0,0c0-0.4-0.1-0.7-0.2-1.1l-0.1,0.1c0.3,0.2,0.5,0.4,0.7,0.7c0.1,0.1,0.3,0,0.2-0.2
	c-0.1-0.2-0.3-0.4-0.4-0.6C61.5,42.9,61.3,42.8,61,42.7C61,42.6,60.9,42.7,61,42.7L61,42.7z"/>
<path class="st0" d="M22.1,42.1c-0.2,0.1-0.4,0.4-0.3,0.6c0,0,0,0.1,0.1,0.1c0,0,0.1,0,0.1-0.1c0-0.2,0.1-0.3,0.2-0.4
	c0,0,0-0.1,0-0.1C22.2,42.1,22.1,42.1,22.1,42.1L22.1,42.1z"/>
<path class="st0" d="M22.2,42.2c0.2-0.1,0.4-0.3,0.7-0.3l-0.1-0.1c-0.3,0.3-0.5,0.7-0.6,1.1c0,0.1,0,0.1,0.1,0.1c0,0,0.1,0,0.1,0
	c0.1-0.2,0.1-0.3,0.2-0.5c0.1-0.2,0.2-0.4,0.3-0.6c0-0.1-0.1-0.1-0.1-0.1C22.6,41.9,22.4,42.1,22.2,42.2
	C22.1,42.2,22.1,42.2,22.2,42.2L22.2,42.2z"/>
<path class="st0" d="M23.4,41.3c-0.2,0.2-0.3,0.5-0.5,0.7c-0.2,0.3-0.4,0.6-0.5,0.9c0,0,0,0.1,0.1,0.1c0,0,0.1,0,0.1,0
	c0.2-0.2,0.4-0.5,0.5-0.7c0.2-0.3,0.3-0.6,0.5-0.9C23.6,41.3,23.5,41.3,23.4,41.3z"/>
<path class="st0" d="M24.4,41c0.2,0.1-0.4,0.6-0.5,0.6c-0.1,0.1-0.3,0.3-0.4,0.5c-0.3,0.3-0.5,0.6-0.6,1c0,0,0.1,0.1,0.1,0
	c0.2-0.2,0.4-0.4,0.5-0.7c0.2-0.3,0.4-0.6,0.7-0.9C24.4,41.4,24.8,41,24.4,41L24.4,41z"/>
<path class="st0" d="M25.3,40.7c-0.9,0.8-1.6,1.7-2,2.8c0,0.1,0.1,0.1,0.1,0.1c0.3-0.4,0.6-0.9,0.8-1.3C24.6,41.7,25,41.2,25.3,40.7
	C25.4,40.7,25.3,40.7,25.3,40.7L25.3,40.7z"/>
<path class="st0" d="M25.3,41.3c-0.3,0.3-0.6,0.7-0.9,1c-0.3,0.4-0.5,0.8-0.6,1.2c0,0,0,0.1,0.1,0.1c0,0,0,0,0,0
	c0.2-0.3,0.5-0.7,0.6-1C24.7,42.2,25,41.8,25.3,41.3C25.4,41.4,25.3,41.3,25.3,41.3L25.3,41.3z"/>
<path class="st0" d="M24.9,42.3c-0.2,0.3-0.4,0.6-0.6,0.9c-0.2,0.2-0.4,0.5-0.4,0.9c0,0,0,0.1,0.1,0.1c0,0,0,0,0,0
	c0.2-0.2,0.4-0.5,0.6-0.8c0.2-0.3,0.3-0.6,0.5-1C25,42.3,25,42.3,24.9,42.3L24.9,42.3z"/>
<path class="st0" d="M24.9,42.8c-0.1,0.2-0.2,0.4-0.3,0.6c-0.1,0.2-0.2,0.4-0.2,0.6c0,0,0,0,0.1,0c0.2-0.1,0.2-0.3,0.3-0.4
	c0.1-0.2,0.2-0.5,0.3-0.7C25,42.8,25,42.8,24.9,42.8C25,42.8,25,42.8,24.9,42.8L24.9,42.8z"/>
<path class="st0" d="M25.1,43.3c-0.1,0-0.2,0.1-0.3,0.1c-0.1,0.1-0.1,0.2-0.2,0.2c-0.1,0.2-0.1,0.4,0.1,0.6c0,0,0.1,0,0.1,0
	c0,0,0,0,0,0c0-0.1,0-0.2,0-0.4C24.9,43.7,25,43.5,25.1,43.3C25.1,43.4,25.1,43.3,25.1,43.3L25.1,43.3z"/>
<path class="st0" d="M25,43.6c-0.2,0.2-0.2,0.5-0.2,0.8c0,0.1,0,0.1,0.1,0.1c0,0,0.1,0,0.1,0c0,0,0.1-0.1,0.1-0.1
	c0-0.2,0-0.5,0.1-0.7c0,0,0-0.1,0-0.1S25.1,43.6,25,43.6L25,43.6z"/>
<path class="st0" d="M24.9,44c0.3,0.5,0.8,0.9,1.4,1c0.1,0,0.2-0.1,0.1-0.2c-0.3-0.3-0.7-0.5-1.1-0.7c0,0-0.1,0-0.1,0
	c0,0,0,0.1,0,0.1c0.3,0.5,0.7,0.9,1.3,1.2l0.1-0.3l-0.7-0.4c-0.1-0.1-0.2-0.1-0.2,0c-0.1,0-0.1,0.1-0.1,0.2c0.3,0.5,0.7,0.9,1.3,1
	c0.1,0,0.2,0,0.2-0.1c0-0.1,0-0.2-0.1-0.2c-0.3-0.2-0.6-0.4-1-0.6c-0.2-0.1-0.3,0.2-0.1,0.3c0.8,0.4,1.6,0.7,2.5,0.7
	c0.1,0,0.2-0.1,0.2-0.2c0-0.1,0-0.1-0.1-0.2c-0.2-0.2-0.4-0.2-0.7-0.2c-0.1,0-0.2,0.1-0.1,0.2c0,0,0,0.1,0.1,0.1
	c0.6,0.3,1.3,0.3,1.9,0.1c0.1,0,0.1-0.2,0-0.2c-0.6,0.1-1.1,0-1.7-0.2c0,0.1,0,0.2,0,0.3l0.4,0.1l0.1-0.4c-0.8,0-1.6-0.2-2.3-0.6
	c0,0.1-0.1,0.2-0.1,0.3c0.3,0.1,0.6,0.3,0.9,0.5l0.1-0.3c-0.5-0.1-0.9-0.4-1.1-0.8l-0.3,0.2c0.2,0.3,0.6,0.5,0.9,0.6
	c0.1,0,0.2,0,0.2-0.1c0-0.1,0-0.1-0.1-0.2c-0.3-0.2-0.6-0.4-0.9-0.6l-0.2-0.2c0.3,0.1,0.6,0.4,0.7,0.7l0.1-0.2
	c-0.5-0.2-1-0.5-1.3-0.9C25,43.8,24.9,43.9,24.9,44L24.9,44z"/>
<path class="st0" d="M41.5,44.3c-0.2,0.4-0.3,0.8-0.4,1.3C41,46,40.8,46.5,40.6,47c0,0,0,0.1,0,0.1c0,0,0,0,0.1,0
	c0.3-0.4,0.5-0.9,0.6-1.4C41.6,45.2,41.7,44.7,41.5,44.3C41.6,44.3,41.6,44.3,41.5,44.3C41.5,44.3,41.5,44.3,41.5,44.3L41.5,44.3z"
	/>
<path class="st0" d="M41.7,44.9c-0.2,0.3-0.4,0.7-0.5,1.1c-0.2,0.4-0.3,0.8-0.3,1.2c0,0,0,0.1,0.1,0.1c0,0,0,0,0,0
	c0.2-0.3,0.4-0.6,0.4-1C41.6,45.8,41.8,45.4,41.7,44.9C41.8,44.9,41.8,44.9,41.7,44.9L41.7,44.9z"/>
<path class="st0" d="M42.1,45.1c-0.2,0.4-0.4,0.7-0.6,1.1c-0.2,0.3-0.3,0.6-0.3,0.9c0,0,0,0.1,0.1,0.1c0,0,0,0,0.1,0
	c0.2-0.3,0.4-0.5,0.4-0.9c0.2-0.4,0.3-0.8,0.4-1.2C42.2,45.1,42.2,45,42.1,45.1C42.1,45,42.1,45,42.1,45.1L42.1,45.1z"/>
<path class="st0" d="M42.3,45.6c-0.2,0.2-0.3,0.5-0.4,0.7c-0.1,0.2-0.2,0.5-0.1,0.8c0,0,0,0,0.1,0c0,0,0,0,0,0
	c0.1-0.2,0.2-0.4,0.2-0.6c0.1-0.3,0.2-0.6,0.4-0.9C42.5,45.6,42.4,45.5,42.3,45.6L42.3,45.6z"/>
<path class="st0" d="M42.5,46.2c-0.1,0.1-0.2,0.3-0.3,0.4c-0.1,0.1-0.2,0.3-0.1,0.5c0,0,0.1,0.1,0.1,0c0.1-0.1,0.2-0.2,0.2-0.3
	C42.6,46.6,42.6,46.4,42.5,46.2C42.6,46.1,42.6,46.1,42.5,46.2C42.6,46.1,42.5,46.1,42.5,46.2L42.5,46.2z"/>
<path class="st0" d="M42.7,46.4c-0.2,0.2-0.2,0.5-0.2,0.8c0,0,0.1,0.1,0.1,0c0,0,0,0,0,0c0.2-0.2,0.2-0.5,0.2-0.8
	C42.8,46.4,42.7,46.3,42.7,46.4z"/>
<path class="st0" d="M42.7,46.9c0,0.1,0.1,0.2,0.2,0.2c0,0,0.1,0,0.1,0H43c0,0.1,0,0.2,0.1,0.3c0,0.1,0,0.2,0.1,0.3c0,0,0,0,0.1,0
	c0,0,0,0,0,0c0-0.1,0-0.1,0-0.2c0-0.1-0.1-0.2-0.1-0.3c0,0,0,0-0.1,0c0,0,0,0,0,0C42.9,47.1,42.8,47.1,42.7,46.9
	C42.8,47,42.8,47,42.7,46.9L42.7,46.9L42.7,46.9z"/>
<path class="st0" d="M42.7,47c0.2,0.2,0.4,0.4,0.6,0.6l0,0C43.1,47.4,42.9,47.2,42.7,47C42.8,47,42.7,47,42.7,47L42.7,47z"/>
<path class="st0" d="M30.2,49.6c-1.7,1.7-2.5,4.3-2.8,6.6c0,0.1,0.1,0.1,0.1,0C28.3,53.9,28.7,51.7,30.2,49.6
	C30.3,49.6,30.2,49.5,30.2,49.6L30.2,49.6z"/>
<path class="st0" d="M29.5,51.2c-0.8,1.6-1.4,3.2-1.8,4.9c0,0,0.1,0.1,0.1,0C28.6,54.6,29.2,52.9,29.5,51.2
	C29.5,51.2,29.5,51.2,29.5,51.2C29.5,51.2,29.5,51.2,29.5,51.2L29.5,51.2z"/>
<path class="st0" d="M29.5,52.8c-0.2,0.4-0.3,0.8-0.5,1.1c-0.2,0.5-0.4,1-0.6,1.5c0,0,0,0.1,0.1,0.1c0,0,0.1,0,0.1,0
	c0.2-0.4,0.4-0.8,0.5-1.2C29.3,53.8,29.4,53.3,29.5,52.8C29.6,52.7,29.5,52.7,29.5,52.8L29.5,52.8z"/>
<path class="st0" d="M29.9,53.3c-0.1,0.3-0.3,0.6-0.4,0.9c-0.2,0.3-0.3,0.6-0.4,0.9c0,0,0,0.1,0,0.1c0,0,0.1,0,0.1,0
	c0.2-0.2,0.4-0.5,0.5-0.8C29.9,54,30,53.7,29.9,53.3C30,53.3,30,53.3,29.9,53.3L29.9,53.3z"/>
<path class="st0" d="M30.5,53.6c-0.4,0.4-0.7,1-0.7,1.7c0,0,0.1,0.1,0.1,0c0,0,0,0,0,0c0.1-0.2,0.2-0.5,0.3-0.7
	c0.1-0.3,0.3-0.6,0.4-0.8C30.6,53.6,30.5,53.5,30.5,53.6L30.5,53.6z"/>
<path class="st0" d="M30.7,54.2c-0.1,0.2-0.3,0.5-0.4,0.7c-0.1,0.2-0.2,0.4-0.2,0.6c0,0.1,0.1,0.1,0.1,0.1c0.2-0.1,0.3-0.3,0.4-0.5
	c0.1-0.3,0.2-0.5,0.4-0.8C31,54.2,30.8,54.2,30.7,54.2L30.7,54.2z"/>
<path class="st0" d="M34.9,53.9c-0.8,0.3-1.6,0.6-2.3,1.1l0.2,0.2c0.1-0.1,0.1-0.2,0.1-0.3c0,0,0-0.1-0.1-0.1c0,0,0,0,0,0
	c-0.1,0-0.2,0.1-0.2,0.2c-0.1,0.1,0,0.3,0.2,0.2C33.6,55,34.3,54.5,34.9,53.9C35,54,35,54,34.9,53.9C35,53.9,34.9,53.9,34.9,53.9
	L34.9,53.9z"/>
<path class="st0" d="M34.4,54.1c-1.8,0.6-3.7,1.1-5.5,1.5c0,0.1,0.1,0.2,0.1,0.3c0.2-0.1,0.4-0.1,0.5-0.2c0,0,0-0.1,0-0.1
	c0,0,0,0-0.1,0c-0.2,0-0.4,0-0.6,0c-0.2,0-0.1,0.4,0.1,0.3c1.9-0.2,3.8-0.8,5.5-1.7C34.5,54.2,34.5,54.1,34.4,54.1
	C34.4,54.1,34.4,54,34.4,54.1L34.4,54.1z"/>
<path class="st0" d="M31,54.8c-0.5,0.1-0.9,0.2-1.4,0.3c-0.5,0.1-0.9,0.2-1.3,0.4c-0.1,0-0.1,0.1-0.1,0.2c0,0,0,0,0,0
	c0,0.1,0,0.1,0.1,0.1c0,0,0.1,0,0.1,0l0-0.1c0,0,0-0.1,0-0.1c0,0,0,0,0,0h0c-0.1,0-0.1,0.1-0.1,0.1v-0.1v0.1
	C29.2,55.5,30.2,55.4,31,54.8C31.1,54.9,31.1,54.8,31,54.8L31,54.8z"/>
<path class="st0" d="M29.7,55.4c-0.5,0-1,0.1-1.4,0.3c-0.4,0.1-0.9,0.3-1.2,0.6c-0.1,0.1,0,0.2,0.1,0.2c0.4-0.1,0.8-0.3,1.2-0.5
	c0.5-0.2,0.9-0.3,1.4-0.4c0.1,0,0.1-0.1,0.1-0.1C29.8,55.4,29.8,55.4,29.7,55.4L29.7,55.4L29.7,55.4z"/>
<path class="st0" d="M30.8,48.5c0.2-0.1,0.4-0.2,0.6-0.4c0,0,0,0,0,0c0,0,0,0,0,0l0,0C31.1,48.1,30.9,48.3,30.8,48.5
	C30.8,48.4,30.8,48.5,30.8,48.5z"/>
<path class="st0" d="M41.8,40.7c-0.1,0-0.3-0.1-0.4-0.1c0,0-0.1,0-0.1,0.1c-0.1,0.3-0.2,0.6-0.2,0.9c0,0.1,0,0.1,0.1,0.1
	c0.4,0.1,0.7-0.1,0.8-0.5c0-0.1,0-0.1,0-0.2c0-0.1-0.1-0.1-0.1-0.1c-0.1,0-0.4-0.1-0.6,0.1c-0.1,0.2-0.2,0.4-0.1,0.6
	c0,0.1,0.1,0.2,0.1,0.2c0.3,0,0.6,0,0.9-0.2c0.2-0.1,0.1-0.4,0-0.5c-0.4-0.4-0.9,0.1-1.1,0.4c0,0.1,0,0.1,0,0.2
	c0.3,0.3,0.9,0.2,1.2-0.1c0,0,0.1-0.1,0.1-0.1c0.1-0.2,0.1-0.5-0.1-0.7c-0.3-0.2-0.6-0.2-0.9-0.1c-0.4,0.2-0.6,0.6-0.5,1.1
	c0.1,0.1,0.1,0.3,0.2,0.3c0.3,0.2,0.7,0.2,1-0.1c0.1-0.2,0.2-0.4,0.1-0.6c0,0,0-0.1-0.1-0.1c-0.4-0.1-0.8,0-1.1,0.2
	c-0.1,0-0.1,0.2-0.1,0.2c0,0,0,0,0,0c0.3,0.4,0.9,0.4,1.3,0.1c0.1-0.1,0-0.2-0.1-0.2c-0.3,0.1-0.7,0.1-0.9-0.1l0,0.3
	c0.2-0.2,0.5-0.2,0.8-0.2c0,0-0.1-0.1-0.1-0.1c0,0.2-0.1,0.3-0.3,0.4c-0.1,0-0.2,0-0.2-0.1c-0.2-0.2-0.2-0.5,0-0.7
	c0,0,0.1-0.1,0.2-0.1c0.1-0.1,0.3-0.1,0.5,0c0.2,0.1,0.1,0.3,0,0.4c-0.2,0.2-0.5,0.2-0.7,0.1v0.2c0.1-0.1,0.2-0.2,0.2-0.3
	c0.1-0.1,0.5-0.2,0.4,0.1l0.1-0.1c-0.2,0.1-0.5,0.1-0.8,0.1l0.2,0.2c0-0.2,0-0.3,0.1-0.5l-0.1,0.1H42l-0.1-0.1
	c0,0.2-0.1,0.4-0.4,0.4c0,0-0.1,0-0.1,0l0.1,0.1c0-0.2,0-0.5,0.1-0.7L41.4,41c0.1,0,0.3,0,0.4-0.1C41.9,40.9,41.9,40.9,41.8,40.7
	C41.9,40.8,41.9,40.8,41.8,40.7L41.8,40.7z"/>
<path class="st0" d="M27.4,29.3c0.1,0,0.2,0.1,0.3,0.3c0,0.2,0.2,0.3,0.3,0.5c0.2,0.3,0.4,0.6,0.6,0.9c0.4,0.6,0.6,1.3,1,1.9
	c0,0,0,0,0.1,0c0,0,0,0,0,0c-0.2-0.6-0.5-1.2-0.8-1.7c-0.4-0.7-0.8-1.4-1.3-2.1c0,0-0.1,0-0.1,0c0,0,0,0,0,0
	C27.3,29.2,27.3,29.1,27.4,29.3L27.4,29.3L27.4,29.3z"/>
<path class="st0" d="M27.9,29.1c0.1,0.3,1.5,2.9,1.5,2.9c0,0,0-0.1,0-0.1s-0.1,0-0.1,0.1c0,0,0,0.1,0,0.1l0.1,0.1c0,0,0.1,0,0.1,0
	l0.1,0c0,0,0.1-0.1,0.1-0.1c0-0.4-0.4-0.9-0.6-1.2c-0.3-0.6-0.6-1.1-1-1.7C28,29.1,27.9,29.1,27.9,29.1L27.9,29.1z"/>
<path class="st0" d="M28.4,29.3c0.2,0.3,0.4,0.6,0.6,0.8c0.2,0.3,0.3,0.6,0.5,0.9h0C29.4,30.3,29,29.7,28.4,29.3
	C28.4,29.2,28.4,29.2,28.4,29.3C28.3,29.3,28.3,29.3,28.4,29.3L28.4,29.3z"/>
<path class="st0" d="M29.1,29.4c0.1,0.2,0.3,0.4,0.4,0.6c0.1,0.2,0.2,0.3,0.4,0.5c0,0,0.1,0,0.1-0.1c-0.1-0.2-0.2-0.4-0.3-0.6
	c-0.1-0.2-0.3-0.4-0.4-0.6C29.1,29.3,29.1,29.3,29.1,29.4L29.1,29.4z"/>
<path class="st0" d="M29.5,29.2c0.1,0.2,0.2,0.5,0.3,0.7c0.1,0.2,0.2,0.4,0.4,0.6c0,0,0.1,0,0.1,0c0,0,0,0,0,0
	c0-0.2-0.1-0.4-0.2-0.5C29.9,29.6,29.8,29.3,29.5,29.2C29.6,29.1,29.5,29.1,29.5,29.2z"/>
<path class="st0" d="M30.1,29.9c-0.2,0.3-0.3,0.6-0.4,1c-0.1,0.3-0.2,0.7-0.2,1c0,0,0,0.1,0.1,0.1c0,0,0,0,0.1,0
	c0.2-0.3,0.3-0.6,0.4-1C30.1,30.6,30.2,30.3,30.1,29.9C30.2,29.9,30.1,29.9,30.1,29.9L30.1,29.9z"/>
<path class="st0" d="M30,30.2c-0.4,0.8-0.6,1.7-0.6,2.7c0,0,0,0,0.1,0c0,0,0,0,0,0c0.1-0.4,0.2-0.9,0.2-1.3S30,30.7,30,30.2
	C30.1,30.2,30,30.1,30,30.2L30,30.2z"/>
<path class="st0" d="M29.4,30.7c-0.2,0.8-0.2,1.7,0,2.6c0,0,0,0.1,0.1,0.1c0,0,0.1,0,0.1-0.1C29.6,32.4,29.5,31.6,29.4,30.7
	C29.5,30.7,29.4,30.7,29.4,30.7L29.4,30.7z"/>
<path class="st0" d="M29.2,32.5c0.1,0.4,0.3,0.7,0.5,1.1c0.1,0.4,0.3,0.7,0.6,1c0,0,0.1,0,0.1-0.1c-0.1-0.3-0.2-0.6-0.4-0.9
	C29.7,33.3,29.5,32.9,29.2,32.5C29.3,32.5,29.2,32.5,29.2,32.5L29.2,32.5z"/>
<path class="st0" d="M29.4,32.9c0.4,1,1.1,2.2,2,2.9c0,0,0.1,0,0.1-0.1c-0.3-0.5-0.7-0.9-1-1.4C30.1,33.8,29.8,33.3,29.4,32.9
	C29.5,32.8,29.4,32.8,29.4,32.9z"/>
<path class="st0" d="M29.5,33.7c0.3,0.5,0.7,1,1.1,1.5c0.4,0.5,0.9,0.9,1.4,1.3c0,0,0.1,0,0.1-0.1c-0.4-0.4-0.8-0.8-1.2-1.2
	C30.5,34.7,30,34.2,29.5,33.7C29.6,33.6,29.5,33.7,29.5,33.7L29.5,33.7z"/>
<path class="st0" d="M30.2,34.8c0.6,0.5,1.1,1,1.7,1.4c0.6,0.5,1.2,0.9,1.8,1.3c0,0,0.1,0,0.1,0c0,0,0,0,0-0.1
	c-0.5-0.5-1-0.9-1.5-1.3C31.6,35.7,30.9,35.2,30.2,34.8C30.2,34.8,30.1,34.8,30.2,34.8z"/>
<path class="st0" d="M31.4,35.6c0.4,0.4,0.9,0.8,1.3,1.1c0.6,0.5,1.2,0.9,1.8,1.3c0,0,0.1,0,0.1,0c0,0,0,0,0-0.1
	c-0.4-0.4-0.9-0.8-1.4-1.1C32.6,36.3,32,35.9,31.4,35.6C31.4,35.5,31.4,35.5,31.4,35.6C31.3,35.6,31.3,35.6,31.4,35.6z"/>
<path class="st0" d="M31.7,35.7L31.7,35.7C31.7,35.7,31.7,35.7,31.7,35.7c0-0.1,0-0.1-0.1-0.1c0,0,0,0,0,0c0,0.4,0.8,0.7,1,0.9
	c0.7,0.5,1.4,1,2.1,1.5c0,0,0.1,0,0-0.1c-0.5-0.4-1-0.8-1.5-1.2C32.7,36.5,32.2,36.1,31.7,35.7C31.7,35.7,31.7,35.8,31.7,35.7
	L31.7,35.7z"/>
<path class="st0" d="M31.9,36.3c0.5,0.5,1.1,0.9,1.7,1.3c0.6,0.5,1.3,0.9,2,1.3c0,0,0.1,0,0.1,0c0,0,0,0,0,0
	c-0.6-0.4-1.1-0.9-1.8-1.2C33.2,37.1,32.6,36.6,31.9,36.3C31.9,36.2,31.9,36.2,31.9,36.3L31.9,36.3z"/>
<path class="st0" d="M33.3,37.2c0.5,0.3,1,0.6,1.5,0.9c0.5,0.4,1.1,0.8,1.6,1.1c0,0,0.1,0,0.1,0c0,0,0,0,0-0.1
	C36,38.6,35.6,38.3,35,38C34.5,37.6,33.9,37.3,33.3,37.2C33.3,37.1,33.3,37.1,33.3,37.2C33.3,37.1,33.3,37.1,33.3,37.2z"/>
<path class="st0" d="M34.1,37.4c0.5,0.4,1,0.8,1.6,1.2c0.6,0.5,1.3,1,2.1,1.4c0.1,0,0.2-0.1,0.1-0.1c-0.5-0.4-1-0.8-1.6-1.1
	C35.6,38.2,34.9,37.7,34.1,37.4C34.2,37.3,34.2,37.3,34.1,37.4C34.1,37.4,34.1,37.4,34.1,37.4L34.1,37.4z"/>
<path class="st0" d="M35.9,38.4c0.4,0.3,0.8,0.6,1.2,0.8c0.4,0.4,0.9,0.6,1.4,0.9c0.1,0,0.1-0.1,0.1-0.1c-0.4-0.3-0.8-0.6-1.2-0.8
	C36.9,38.9,36.4,38.6,35.9,38.4C35.9,38.3,35.9,38.4,35.9,38.4z"/>
<path class="st0" d="M45.6,37.6c-0.2,0.4-0.4,0.7-0.5,1.1c-0.2,0.5-0.4,1-0.5,1.5c0,0.1,0,0.1,0.1,0.1c0,0,0.1,0,0.1,0
	c0.2-0.3,0.4-0.7,0.5-1.1C45.4,38.7,45.5,38.2,45.6,37.6C45.7,37.6,45.6,37.6,45.6,37.6C45.6,37.6,45.6,37.6,45.6,37.6L45.6,37.6z"
	/>
<path class="st0" d="M45.6,37.2c-0.7,0.9-1.1,2-1.4,3.1c0,0,0,0,0.1,0c0,0,0,0,0,0C44.7,39.3,45.2,38.2,45.6,37.2
	C45.7,37.2,45.7,37.2,45.6,37.2L45.6,37.2z"/>
<path class="st0" d="M43.4,40.9c1.9-2.6,3.3-5.7,5.2-8.4c1.1-1.5,2.6-2.2,4.4-2.8s3.4-1.1,5.1-1.7c0.1,0,0.1-0.3-0.1-0.2
	c-2.9,1-6.5,1.6-8.7,3.7c-1.2,1.1-2,2.8-2.8,4.1C45.3,37.3,44.3,39,43.4,40.9C43.4,40.9,43.4,40.9,43.4,40.9z"/>
<path class="st0" d="M55.7,28.7c-0.2,0.5-0.4,1-0.6,1.5c0,0.1,0.1,0.1,0.1,0C55.5,29.8,55.7,29.3,55.7,28.7
	C55.8,28.7,55.7,28.7,55.7,28.7L55.7,28.7z"/>
<path class="st0" d="M56.8,28.3c-0.3,0.5-0.5,1-0.7,1.4c-0.1,0.2-0.4,0.7-0.3,0.9c0,0,0.1,0,0.1,0h0c0,0,0,0,0,0v0c0,0,0-0.1,0-0.1
	c0,0,0,0,0,0l0,0c0,0,0,0,0,0c0,0,0,0,0,0c0,0,0.3-0.5,0.3-0.6l0.3-0.7c0.1-0.3,0.3-0.7,0.4-1C56.9,28.3,56.9,28.3,56.8,28.3
	L56.8,28.3z"/>
<path class="st0" d="M57.6,28.2c-0.4,0.6-0.7,1.2-1,1.7c-0.3,0.5-0.6,1-0.8,1.6c0,0,0,0,0,0.1c0,0,0,0,0,0c0.3-0.5,0.6-1,0.9-1.5
	C57.1,29.4,57.4,28.8,57.6,28.2C57.7,28.2,57.7,28.2,57.6,28.2C57.7,28.1,57.6,28.2,57.6,28.2z"/>
<path class="st0" d="M49,32c-0.2,0.5-0.4,0.9-0.6,1.3c0,0,0,0.1,0.1,0C48.6,33,48.8,32.5,49,32C49,32.1,49,32,49,32L49,32z"/>
<path class="st0" d="M48.6,32.3c-0.1,0.3-0.2,0.7-0.3,1c-0.1,0.3-0.2,0.6-0.2,0.9c0,0,0,0.1,0,0.1c0,0,0,0,0.1,0
	c0.1-0.3,0.2-0.6,0.2-0.9C48.6,33,48.6,32.7,48.6,32.3C48.7,32.3,48.6,32.3,48.6,32.3L48.6,32.3z"/>
<path class="st0" d="M48.1,32.7c-0.2,0.6-0.3,1.2-0.4,1.9c0,0,0,0,0,0s0,0,0,0C48,34,48.1,33.4,48.1,32.7
	C48.1,32.7,48.1,32.7,48.1,32.7L48.1,32.7z"/>
<path class="st0" d="M47.6,33.8c-0.3,0.4-0.4,0.8-0.4,1.2c0,0,0,0,0,0c0,0,0,0,0,0C47.5,34.6,47.5,34.2,47.6,33.8
	C47.7,33.8,47.7,33.7,47.6,33.8L47.6,33.8z"/>
<path class="st0" d="M47.2,34.2c-0.2,0.5-0.3,1-0.4,1.4c0,0,0,0.1,0.1,0.1c0,0,0.1,0,0.1-0.1c0,0,0,0,0,0c0-0.1,0-0.3,0.1-0.4
	 M47,35.2c0,0.1-0.1,0.2-0.2,0.4l0.1,0.1c0.2-0.5,0.3-1,0.4-1.5c0,0,0,0-0.1,0c0,0,0,0,0,0L47,35.2z"/>
<path class="st0" d="M46.9,35.1c-0.1,0.2-0.1,0.3-0.1,0.5c0,0.1-0.1,0.1-0.1,0.2c0,0.1,0,0,0,0c0.1-0.1,0.1,0,0.1,0c0,0,0-0.1,0-0.1
	s0,0-0.1,0s-0.1,0.2,0,0.2c0,0,0.1,0,0.1,0l0,0h0c0,0,0,0,0-0.1c0.1-0.2,0.1-0.4,0.2-0.6C47.1,35.1,47,35,46.9,35.1L46.9,35.1z"/>
<path class="st0" d="M47,35.1c-0.2,0.2-0.4,0.5-0.6,0.8l0.1,0.1l0.1-0.4c0-0.1-0.1-0.1-0.1,0c-0.3,0.5-0.4,1-0.6,1.6
	c0,0.1,0.1,0.2,0.2,0c0.1-0.5,0.3-1.1,0.5-1.6l-0.1,0l-0.1,0.4c0,0.1,0.1,0.1,0.1,0.1C46.7,35.7,46.9,35.4,47,35.1
	C47,35.1,47,35.1,47,35.1L47,35.1z"/>
<path class="st0" d="M49.6,31.5c-0.6,0.6-0.9,1.3-1.1,2.1c0,0,0,0,0.1,0c0.2-0.3,0.3-0.6,0.5-1C49.3,32.2,49.5,31.9,49.6,31.5
	C49.7,31.5,49.7,31.5,49.6,31.5C49.7,31.5,49.6,31.5,49.6,31.5L49.6,31.5z"/>
<path class="st0" d="M50.3,31c-0.2,0.4-0.3,0.8-0.5,1.2c0,0.1-0.4,1-0.5,1c0,0,0,0,0,0c0,0,0,0,0,0l0,0c0,0,0,0-0.1,0
	c0,0.1,0,0.1,0,0.1c0,0,0,0,0,0c0.3,0,0.4-0.5,0.5-0.7c0.2-0.5,0.5-1,0.6-1.5C50.4,31,50.3,30.9,50.3,31L50.3,31z"/>
<path class="st0" d="M51,30.5c-0.2,0.3-0.5,0.7-0.7,1c-0.2,0.3-0.4,0.6-0.5,1c0,0,0,0.1,0,0.1c0,0,0,0,0,0c0.2-0.2,0.4-0.5,0.6-0.8
	C50.7,31.3,50.9,30.9,51,30.5C51.1,30.5,51,30.4,51,30.5C51,30.4,51,30.4,51,30.5L51,30.5z"/>
<path class="st0" d="M51.7,30c-0.4,0.7-0.9,1.4-1.2,2.1l0.2,0.1l0.1-0.4c0,0-0.1-0.1-0.1,0c0,0.1-0.1,0.2-0.2,0.4
	c-0.1,0.1,0.1,0.2,0.2,0.1C51,31.5,51.5,30.8,51.7,30C51.8,30,51.8,30,51.7,30C51.7,30,51.7,30,51.7,30L51.7,30z"/>
<path class="st0" d="M52.5,29.4c-0.5,0.6-0.9,1.3-1.1,2c0,0.1,0.1,0.2,0.2,0.1c0.1-0.2,0.2-0.4,0.3-0.6c0,0,0-0.1-0.1,0
	c-0.2,0.2-0.3,0.3-0.4,0.5l0.2,0.1c0.3-0.7,0.6-1.4,1-2C52.7,29.4,52.6,29.3,52.5,29.4L52.5,29.4z"/>
<path class="st0" d="M53.1,29.3c-0.3,0.4-0.5,0.8-0.7,1.2c-0.1,0.2-0.4,0.6-0.3,0.8c0,0,0.1,0.1,0.1,0h0c0,0,0.1,0,0.1-0.1v0
	c0,0,0-0.1,0-0.1l0,0c0,0-0.1,0-0.1,0c0,0,0,0,0,0c0,0.1,0.3-0.4,0.3-0.5l0.3-0.6c0.1-0.3,0.3-0.6,0.4-0.9
	C53.3,29.3,53.2,29.2,53.1,29.3L53.1,29.3z"/>
<path class="st0" d="M54,29c-0.2,0.3-0.4,0.6-0.6,0.9c-0.2,0.3-0.3,0.6-0.4,0.9c0,0,0,0.1,0.1,0.1c0,0,0,0,0,0
	c0.3-0.2,0.4-0.6,0.5-0.8C53.8,29.7,54,29.4,54,29C54.1,28.9,54,28.9,54,29L54,29z"/>
<path class="st0" d="M54.4,29.2c-0.4,0.5-0.6,1.1-0.7,1.7c0,0.1,0.2,0.2,0.2,0.1c0.1-0.2,0.2-0.4,0.2-0.6c0,0,0-0.1-0.1,0
	c-0.1,0.2-0.2,0.3-0.3,0.5l0.2,0.1C54,30.3,54.2,29.8,54.4,29.2C54.4,29.2,54.4,29.2,54.4,29.2C54.4,29.2,54.4,29.2,54.4,29.2
	L54.4,29.2z"/>
<path class="st0" d="M55.1,28.9c-0.3,0.5-0.6,1.1-0.9,1.5c-0.1,0.1,0.1,0.3,0.2,0.2c0.1-0.1,0.2-0.3,0.3-0.5c0,0,0-0.1,0-0.1
	c0,0,0,0-0.1,0c-0.2,0.1-0.3,0.2-0.5,0.3l0.2,0.2c0.4-0.5,0.6-1.1,0.8-1.7C55.2,28.8,55.1,28.8,55.1,28.9z"/>
<path class="st0" d="M55.3,29.1c0,0-0.5,1.1-0.5,1.2s0.2,0.2,0.3,0.1c0.1-0.2,0.2-0.4,0.1-0.6c0,0,0,0-0.1,0c0,0,0,0,0,0
	c0,0.2-0.1,0.3-0.2,0.4l0.2,0.1c0.1-0.2,0.2-0.5,0.3-0.7c0.1-0.2,0.1-0.4,0.1-0.6C55.4,28.9,55.2,29,55.3,29.1
	C55.2,29.1,55.2,29.1,55.3,29.1L55.3,29.1C55.2,29.1,55.3,29.1,55.3,29.1L55.3,29.1z"/>
<path class="st0" d="M55.5,28.9c0,0.1-0.1,0.2-0.2,0.4l-0.1,0.4c-0.1,0.2-0.2,0.5-0.2,0.7c0,0,0.1,0.1,0.1,0.1c0,0,0,0,0,0
	c0.2-0.2,0.3-0.5,0.4-0.8c0.1-0.2,0.2-0.5,0.2-0.7c-0.1-0.2-0.5-0.1-0.4,0.1C55.4,29.2,55.6,29,55.5,28.9z"/>
<path class="st0" d="M54.8,29.9c-5,0.5-9.2,6.3-10.8,10.6c0,0.1,0.1,0.1,0.1,0c1.5-2.1,2.6-4.4,4.3-6.4C50.1,32.1,52.2,31,54.8,29.9
	C54.8,30,54.8,29.9,54.8,29.9L54.8,29.9z"/>
<path class="st0" d="M55.4,30.3c0.1,0.2,0.2,0.5,0.3,0.7c0.1,0.3,0,0.5,0.1,0.8c0,0,0,0.1,0.1,0.1c0,0,0,0,0,0
	C56.2,31.3,55.9,30.6,55.4,30.3C55.4,30.2,55.3,30.3,55.4,30.3z"/>
<path class="st0" d="M55.6,30.3c0-0.1,0-0.1,0.1-0.1l-0.1-0.1c0.1,0.3,0.2,0.6,0.3,0.9c0.1,0.3,0.1,0.6,0.3,0.9c0,0,0.1,0.1,0.1,0
	c0,0,0,0,0,0c0-0.6-0.1-1.3-0.4-1.8c0-0.1-0.1-0.1-0.2,0C55.5,30,55.4,30.2,55.6,30.3C55.5,30.3,55.5,30.3,55.6,30.3L55.6,30.3z"/>
<path class="st0" d="M55.7,30.1c0.2,0.3,0.3,0.5,0.4,0.8c0.1,0.3,0,0.6,0,0.8c0,0,0,0,0.1,0c0,0,0,0,0,0c0.2-0.3,0.2-0.6,0.1-0.9
	C56.2,30.6,56,30.3,55.7,30.1C55.7,30.1,55.7,30.1,55.7,30.1L55.7,30.1z"/>
<path class="st0" d="M57.5,27.8c-0.1,0.6-0.1,1.3,0,1.9c0,0,0,0,0.1,0c0,0,0,0,0,0c0.1-0.6,0.1-1.3,0-1.9
	C57.6,27.8,57.6,27.7,57.5,27.8C57.5,27.7,57.4,27.8,57.5,27.8L57.5,27.8z"/>
<path class="st0" d="M57.6,28.1c-0.1,0.7-0.1,1.4-0.1,2.1c0,0,0,0.1,0.1,0.1c0,0,0.1,0,0.1-0.1c0.2-0.7,0.3-1.4,0.2-2.2
	C57.7,27.9,57.6,28,57.6,28.1L57.6,28.1z"/>
<path class="st0" d="M57.6,29.1c0.1,0.2,0.1,0.5,0,0.6c0,0,0,0.1,0,0.1c0,0,0,0,0,0c0.1-0.1,0.2-0.2,0.2-0.3
	C57.9,29.3,57.8,29.2,57.6,29.1C57.7,29.1,57.6,29.1,57.6,29.1z"/>
<path class="st0" d="M29.2,50.8c-0.5,1.4-0.8,2.8-0.9,4.3c0,0.1,0.1,0.1,0.1,0.1c0,0,0.1,0,0.1-0.1c0.4-1.4,0.7-2.8,0.9-4.3
	c0,0,0-0.1-0.1-0.1C29.3,50.7,29.2,50.7,29.2,50.8L29.2,50.8L29.2,50.8z"/>
<path class="st0" d="M29.1,51.6c-0.8,1.1-1.6,2.9-1.4,4.3c0,0.1,0.1,0.1,0.2,0c0.2-0.6,0.3-1.4,0.5-2c0.2-0.8,0.5-1.5,0.9-2.2
	C29.3,51.6,29.3,51.6,29.1,51.6C29.2,51.5,29.2,51.5,29.1,51.6L29.1,51.6z"/>
<path class="st0" d="M28.5,53.7c-0.2,0.3-0.4,0.6-0.6,1c-0.1,0.3-0.3,0.7-0.1,1c0,0,0.1,0,0.1,0c0,0,0,0,0,0
	c0.2-0.2,0.2-0.6,0.3-0.8C28.3,54.5,28.4,54.1,28.5,53.7C28.6,53.7,28.5,53.6,28.5,53.7L28.5,53.7z"/>
<path class="st0" d="M29.9,49.8c-0.5,0.8-0.9,1.6-1.2,2.5l0.3,0.1c0.1-0.2,0.2-0.5,0.2-0.7l0.1-0.4c0-0.1,0.2-0.7,0.2-0.7
	c0,0,0,0,0,0.1c0,0,0,0,0,0h0c0,0,0.1,0,0.1,0c0.1-0.1,0.1-0.1,0-0.2c0-0.1-0.1-0.1-0.1,0c-0.2,0.1-0.3,0.4-0.4,0.6
	c-0.2,0.4-0.3,0.8-0.5,1.2c-0.1,0.2,0.2,0.3,0.3,0.1c0.4-0.8,0.8-1.7,1-2.6C30,49.8,30,49.8,29.9,49.8
	C29.9,49.8,29.9,49.8,29.9,49.8L29.9,49.8z"/>
<path class="st0" d="M35.5,46.5c-0.2,0.4-0.3,0.7-0.4,1.1c-0.1,0.4-0.2,0.8-0.2,1.2c0,0,0,0,0,0c0,0,0,0,0,0c0.1-0.3,0.2-0.6,0.3-1
	C35.3,47.4,35.4,46.9,35.5,46.5C35.5,46.5,35.5,46.5,35.5,46.5L35.5,46.5z"/>
<path class="st0" d="M36,46c-0.2,0.7-0.4,1.4-0.5,2.1c0,0,0,0,0,0c0,0,0,0,0,0C35.8,47.5,36,46.8,36,46C36,46,36,46,36,46L36,46z"/>
<path class="st0" d="M36.7,45.6c-0.2,0.6-0.4,1.3-0.5,2c0,0.1,0.1,0.1,0.1,0C36.5,47,36.6,46.3,36.7,45.6
	C36.7,45.6,36.7,45.6,36.7,45.6L36.7,45.6z"/>
<path class="st0" d="M37.4,45.4c-0.1,0.1-0.1,0.3-0.1,0.4c0,0.2,0,0.3,0,0.5c0,0,0.1,0,0.1,0c0.1-0.1,0.1-0.3,0.1-0.4
	C37.4,45.7,37.4,45.5,37.4,45.4L37.4,45.4L37.4,45.4z"/>
<path class="st0" d="M38.2,44.8C38,45.2,38,45.6,38.1,46c0,0,0,0,0,0c0,0,0,0,0,0c0-0.2,0-0.3,0-0.5c0-0.2,0.1-0.4,0.2-0.7
	C38.3,44.8,38.3,44.8,38.2,44.8L38.2,44.8z"/>
<path class="st0" d="M39,44.3c-0.1,0.3-0.2,0.7-0.2,1.1c0,0,0,0,0,0c0,0,0,0,0,0C39,45,39.1,44.7,39,44.3C39.1,44.3,39,44.3,39,44.3
	L39,44.3z"/>
<path class="st0" d="M39.5,44.2c0,0.1,0,0.3,0,0.4c0,0.1-0.1,0.2-0.1,0.4c0,0,0,0,0.1,0C39.7,44.8,39.7,44.4,39.5,44.2L39.5,44.2z"
	/>
<path class="st0" d="M39.3,45.2c-0.4,0.3-0.8,0.7-1.2,1.1c-0.5,0.4-0.9,0.8-1.3,1.2c0,0,0,0.1,0,0.1c0,0,0.1,0,0.1,0
	c0.5-0.3,0.9-0.6,1.3-1C38.5,46.1,38.9,45.7,39.3,45.2C39.3,45.2,39.3,45.2,39.3,45.2L39.3,45.2z"/>
<path class="st0" d="M39.2,45.9c-0.6,0.5-1.1,1.1-1.6,1.7c-0.5,0.5-1,1-1.4,1.6c0,0.1,0.1,0.1,0.1,0.1c0.6-0.5,1.1-1.2,1.6-1.7
	C38.3,47,38.8,46.4,39.2,45.9C39.2,45.9,39.2,45.8,39.2,45.9L39.2,45.9z"/>
<path class="st0" d="M37.9,47.3c-1.2,0.9-2.3,2-3.3,3.2c0,0,0,0.1,0,0.1s0.1,0,0.1,0C35.9,49.6,37,48.5,37.9,47.3
	C38,47.4,38,47.3,37.9,47.3L37.9,47.3z"/>
<path class="st0" d="M47.6,50.8c0.4,0.4,0.8,0.9,1,1.4c0,0,0,0,0,0C48.4,51.6,48,51.1,47.6,50.8C47.6,50.8,47.5,50.8,47.6,50.8
	L47.6,50.8z"/>
<path class="st0" d="M47.1,48.7c0.3,1.3,0.9,2.5,1.7,3.6c0,0,0,0,0.1,0c0,0,0,0,0,0c-0.2-0.5-0.5-1-0.8-1.5
	C47.7,50,47.5,49.3,47.1,48.7C47.1,48.7,47.1,48.7,47.1,48.7L47.1,48.7z"/>
<path class="st0" d="M46.8,49c0.5,1.4,1.2,2.6,2.3,3.6c0,0,0.1,0,0.1,0c0,0,0-0.1,0-0.1c-0.3-0.6-0.8-1.1-1.1-1.7s-0.8-1.3-1.1-2
	C46.9,48.9,46.8,48.9,46.8,49C46.8,48.9,46.8,49,46.8,49L46.8,49z"/>
<path class="st0" d="M47.5,49.9c0.7,1.2,1.4,2.3,2.3,3.3c0,0,0.1,0,0.1-0.1C49.2,52,48.4,50.9,47.5,49.9
	C47.5,49.8,47.4,49.9,47.5,49.9L47.5,49.9z"/>
<path class="st0" d="M48,50.3c0.3,0.5,0.6,1,1,1.5c0.3,0.5,0.7,1,1.1,1.4c0,0,0.1,0,0.1,0c0,0,0,0,0,0c-0.3-0.5-0.6-1-1-1.5
	C48.8,51.2,48.5,50.8,48,50.3C48.1,50.3,48,50.3,48,50.3L48,50.3z"/>
<path class="st0" d="M48.7,51c0.5,1,1.1,1.8,1.8,2.6c0,0,0.1,0,0.1-0.1C50.1,52.6,49.4,51.7,48.7,51C48.7,50.9,48.7,50.9,48.7,51z"
	/>
<path class="st0" d="M49.3,52.4c0.5,0.9,1.3,1.7,2.2,2.3c0,0,0.1,0,0-0.1c-0.4-0.4-0.8-0.7-1.1-1.1C50.1,53.2,49.7,52.8,49.3,52.4
	C49.4,52.4,49.3,52.4,49.3,52.4L49.3,52.4z"/>
<path class="st0" d="M49.9,53.3c0.5,0.5,1,1,1.7,1.3c0,0,0.1,0,0-0.1C51,54.1,50.5,53.7,49.9,53.3L49.9,53.3z"/>
<path class="st0" d="M39.4,54.2c0.1,0.1,0.3,0.2,0.5,0.1l0,0c0-0.1,0-0.3,0-0.4c0,0,0,0,0,0c-0.1-0.1-0.2,0-0.3,0.1
	c-0.1,0.1-0.2,0.2-0.2,0.4c0,0,0,0,0.1,0c0,0,0,0,0,0c0.1-0.1,0.1-0.5,0.4-0.4v0c0,0,0,0.4,0,0.4C39.7,54.3,39.5,54.3,39.4,54.2
	L39.4,54.2L39.4,54.2z"/>
<path class="st0" d="M33.9,111.3c-0.2-4.9,0.1-9.8-1-14.6c-1.1-4.7-3.5-8.4-6.2-12.4c-5-7.3-9.1-15.2-12.3-23.5
	c-5.7-15.1-7.1-33.2,3.9-46.4c0.4-0.6,1.2,0.2,0.8,0.8c-12,14.9-8.4,35-1,51.2c3.6,7.7,8.4,14.5,12.8,21.8
	c4.1,6.9,4.2,15.4,3.5,23.1c0,0.1-0.1,0.1-0.2,0.1C34,111.4,33.9,111.4,33.9,111.3L33.9,111.3z"/>
<path class="st0" d="M47.6,110.6c-0.8-7.6-0.7-15.9,3.2-22.7c2-3.6,4.6-6.8,6.7-10.3c2.3-3.8,4.4-7.8,6.3-11.9
	c7.4-16.1,11-36.2-1-51.2c-0.4-0.6,0.3-1.3,0.8-0.8c10.9,13.1,9.6,31.3,3.9,46.4c-3.2,8.3-7.3,16.2-12.3,23.5
	c-2.7,3.9-5.1,7.6-6.2,12.4c-1.1,4.8-0.9,9.7-1,14.6c0,0.1-0.1,0.2-0.2,0.2C47.6,110.8,47.6,110.7,47.6,110.6L47.6,110.6z"/>
<path class="st0" d="M19.1,14.9c0-0.2-0.1-0.4,0-0.7c0-0.1,0.1-0.1,0.2,0c0,0,0,0,0,0c0.1,0.2,0,0.4,0,0.7c0,0.1-0.1,0.1-0.1,0.1
	C19.1,15.1,19.1,15,19.1,14.9L19.1,14.9z"/>
<path class="st0" d="M17.7,16.4c0-0.4,0.1-0.7,0.3-1c0.2-0.4,0.4-0.8,0.7-1.1c0.4-0.6,0.9-1.1,1.5-1.5c0.1,0,0.1,0.1,0.1,0.1
	C19.3,14,18.5,15.2,17.7,16.4C17.7,16.5,17.7,16.5,17.7,16.4C17.7,16.4,17.7,16.4,17.7,16.4L17.7,16.4z"/>
<path class="st0" d="M18.2,15.2C23.3,6.8,35.3,3.4,44.5,4.7s18.4,6.2,22.7,14.9c0.2,0.4-0.4,0.7-0.6,0.3C62.4,11.7,53.3,7.3,44.4,6
	c-4.6-0.7-9.3-0.2-13.6,1.4c-4.8,1.7-8.4,4.8-12.2,8.1C18.4,15.7,18,15.5,18.2,15.2z"/>
<path class="st0" d="M47.1,100.7c0.1-0.9,0.1-2,0.6-2.8c0,0,0.1,0,0.1,0c0,0,0,0,0,0.1C47.9,98.8,47.4,99.9,47.1,100.7
	C47.2,100.8,47.2,100.8,47.1,100.7C47.1,100.8,47.1,100.8,47.1,100.7L47.1,100.7z"/>
<path class="st0" d="M47,103.5c0-3.2,0.5-6.3,1.7-9.2c0-0.1,0.2,0,0.1,0.1c-0.7,3-1.3,6.1-1.7,9.2c0,0.1,0,0.1-0.1,0.1
	C47,103.6,47,103.6,47,103.5L47,103.5z"/>
<path class="st0" d="M49.7,82.8c-5,1.2-10.6,1.9-15.4-0.6c-4.1-2.1-8-6.3-10.2-10.4c0,0,0-0.1,0-0.2c0,0,0.1,0,0.2,0
	c3.2,3.1,5.3,6.9,9.2,9.3c5.1,3.2,10.5,2.2,16.1,1.4C49.9,82.4,50,82.7,49.7,82.8L49.7,82.8z"/>
<path class="st0" d="M23.2,70.6c-2.6-3.8-4.2-8.9-5.6-13.2c-1.6-4.7-2.6-9.5-3-14.4c-0.6-8.4,0.8-18,6.1-24.9c0.1-0.1,0.1-0.1,0.2,0
	c0,0,0.1,0.1,0,0.2c-4.4,7.9-6.5,16.2-5.7,25.2c0.4,4.7,1.4,9.3,2.9,13.7c1.5,4.5,3.9,8.8,5.2,13.3C23.3,70.6,23.3,70.6,23.2,70.6
	C23.3,70.6,23.2,70.6,23.2,70.6L23.2,70.6z"/>
<path class="st0" d="M21.2,17c3.9-5.4,11.6-7.6,17.9-7.8c6.7-0.2,14.2,1.6,19.3,6.1c0.2,0.2-0.1,0.4-0.2,0.3
	c-5.7-3.4-11.4-5.8-18.2-5.8c-6.6,0-14.3,2.1-18.6,7.4C21.4,17.4,21.1,17.2,21.2,17z"/>
<path class="st0" d="M50.7,80.9c7.7-8.9,12.9-19.8,14.9-31.4c1-5.6,1.1-11.4,0.6-17c-0.4-3.6-1-7.2-2.8-10.5
	c-1.4-2.6-3.3-4.8-5.1-7.2c-0.1-0.1,0.1-0.3,0.2-0.2c4.2,4.6,7.1,9.6,8,15.8c0.8,5.9,0.8,11.9-0.1,17.8
	c-1.8,12.3-7.2,23.7-15.5,32.9C50.8,81.3,50.6,81.1,50.7,80.9L50.7,80.9z"/>
<path class="st0" d="M24.8,72.5c0,0.3,0,0.7,0.2,0.9c0,0,0,0.1,0,0.1c0,0,0,0-0.1,0c-0.3-0.3-0.4-0.7-0.3-1.1
	C24.6,72.4,24.8,72.4,24.8,72.5z"/>
<path class="st0" d="M24.6,72.8c-0.9-1.9-1.9-3.7-2.7-5.7C21.8,67,22,67,22,67c1.1,1.8,1.9,3.7,2.8,5.6
	C24.9,72.8,24.7,72.9,24.6,72.8z"/>
<path class="st0" d="M25.9,74.1c-1.5-1.7-3.3-4.3-3.7-6.6c0-0.1,0-0.1,0.1-0.1c0.1,0,0.1,0,0.1,0.1l0,0c0.7,1,1.1,2.3,1.7,3.3
	c0.6,1.1,1.3,2.1,1.9,3.2C26.1,74.1,26,74.2,25.9,74.1L25.9,74.1z"/>
<path class="st0" d="M26,73.6c-1.8-1.9-3.6-4.8-4-7.5c0-0.1,0.1-0.2,0.2-0.1c0.6,1.3,1,2.6,1.7,3.9C24.5,71.2,25.3,72.3,26,73.6
	C26.1,73.6,26,73.6,26,73.6L26,73.6z"/>
<path class="st0" d="M24.5,71.5c-2.1-2.8-4.2-6.5-4.6-10c0-0.1,0.1-0.1,0.1-0.1c0,0,0.1,0,0.1,0c1.5,3.3,2.6,6.8,4.5,10
	C24.6,71.5,24.6,71.5,24.5,71.5C24.5,71.5,24.5,71.5,24.5,71.5L24.5,71.5z"/>
<path class="st0" d="M26.5,73.9c-2.6-3-5.1-7.1-5.6-11.1c0-0.1,0-0.1,0.1-0.1c0,0,0.1,0,0.1,0.1c0.8,1.9,1.4,3.9,2.3,5.7
	c1,1.8,2,3.6,3.3,5.3C26.7,73.9,26.6,74,26.5,73.9L26.5,73.9z"/>
<path class="st0" d="M26.7,73.1c-2.4-3-4.1-6.3-5.2-10c0-0.1,0.1-0.2,0.2-0.2c0.1,0,0.1,0,0.2,0.1c1.3,3.5,2.9,6.9,5,10
	C26.9,73.1,26.8,73.1,26.7,73.1L26.7,73.1z"/>
<path class="st0" d="M27.2,76.1c-2.6-2.2-4.8-5.7-5.2-9.2c0-0.1,0.2-0.1,0.2,0c0.6,1.7,1.2,3.3,2,4.8C25,73.2,26.1,74.7,27.2,76.1
	C27.3,76,27.3,76.1,27.2,76.1C27.2,76.1,27.2,76.1,27.2,76.1L27.2,76.1z"/>
<path class="st0" d="M20.8,62.8c-6.2-10.9-7.5-27.1-1.6-38.5c0-0.1,0.1-0.1,0.2,0c0,0,0.1,0.1,0.1,0.1c-2,6.2-3.6,12.2-3.5,18.8
	C16.1,50.1,18,56.5,20.8,62.8C20.9,62.8,20.8,62.8,20.8,62.8L20.8,62.8z"/>
<path class="st0" d="M35.6,107.3c0.2-4.5-0.2-9.1-0.9-13.6c0-0.1,0.1-0.1,0.2,0C35.8,98.1,36.3,102.8,35.6,107.3
	C35.7,107.4,35.6,107.3,35.6,107.3L35.6,107.3z"/>
<path class="st0" d="M34,92.1c-1.3-2.8-2.9-5.4-4.9-7.8c-0.1-0.1,0.1-0.2,0.1-0.1C31.4,86.4,33,89.1,34,92.1
	C34.1,92.1,34.1,92.1,34,92.1L34,92.1z"/>
<path class="st0" d="M34.7,91.7c-0.5-1.9-1.3-3.7-2.3-5.4c0-0.1,0.1-0.2,0.1-0.1C33.5,87.9,34.2,89.8,34.7,91.7
	C34.7,91.7,34.7,91.7,34.7,91.7C34.7,91.7,34.7,91.7,34.7,91.7L34.7,91.7z"/>
<path class="st0" d="M35.6,91.5c-0.6-1.4-0.9-2.9-1.1-4.4c0,0,0.1,0,0.1,0C35,88.5,35.3,90.1,35.6,91.5
	C35.6,91.5,35.6,91.5,35.6,91.5C35.6,91.5,35.6,91.5,35.6,91.5L35.6,91.5z"/>
<path class="st0" d="M46.7,93.5c0.9-2.9,2.3-5.5,4.3-7.8c0,0,0.1,0,0.1,0c0,0,0,0,0,0.1C49.4,88.2,48,90.8,46.7,93.5
	C46.7,93.5,46.7,93.5,46.7,93.5L46.7,93.5z"/>
<path class="st0" d="M45.3,103.7c0.1-2.7,0.4-5.4,0.9-8c0,0,0,0,0.1,0c0,0,0,0,0,0C46,98.4,45.7,101,45.3,103.7L45.3,103.7
	L45.3,103.7z"/>
<path class="st0" d="M37,83.3c-5.1-2.1-11.1-5.8-12.5-11.6c0-0.1,0.1-0.1,0.1,0C27.2,77.4,31.6,80.2,37,83.3
	C37,83.2,37,83.3,37,83.3L37,83.3z"/>
<path class="st0" d="M33.5,7.3c5.4-1.2,11-1.1,16.3,0.3c4.4,1.2,9.5,3.1,12.1,7c0.1,0.1-0.1,0.2-0.1,0.1c-3-4-8.3-6-13-7.1
	C43.7,6.6,38.5,6.5,33.5,7.3C33.5,7.4,33.5,7.3,33.5,7.3L33.5,7.3z"/>
<path class="st0" d="M21.6,62.7c-4.5-11.4-5.2-24.9-1-36.5c0-0.1,0.2,0,0.1,0c-3.4,12.3-3.5,24.4,1,36.4
	C21.7,62.7,21.6,62.7,21.6,62.7L21.6,62.7z"/>
<g class="st1">
	<path class="st0" d="M78.9,48.6c0.2-1.2,0.5-2.4,0.7-3.6c0.2-1.2,0.5-2.4,0.7-3.5c0.8-4.1,1.5-8.1,2-11.9c-0.2,0-0.5-0.1-0.8-0.1
		c-0.3,0-0.5,0-0.8,0c-0.5,0-1,0-1.5-0.2c0-0.2,0-0.4,0-0.6c0-0.2,0-0.4,0-0.6c0-0.2,0-0.5,0-0.7c0-0.2,0-0.5,0-0.7
		c0-0.2,0-0.5,0-0.8c0-0.3,0-0.5,0-0.8c0.6,0,1.1,0.1,1.7,0.1c0.6,0,1.1,0,1.7,0c1.6,0,3.2-0.1,4.6-0.2c1.5-0.1,2.8-0.2,4.1-0.4
		l-0.4,1.8l-0.3,1.5c-0.1,0.6-0.2,1-0.3,1.3c-0.2,0.1-0.5,0.1-0.7,0.2c-0.2,0-0.5,0.1-0.7,0.1c-0.2,0-0.5,0.1-0.7,0.1
		c-0.3,0-0.5,0.1-0.7,0.1c-0.3,1.6-0.6,3-0.8,4.2c-0.2,1.2-0.4,2.3-0.6,3.4c-0.2,1.1-0.4,2.3-0.6,3.5c-0.4,2.2-0.7,4.4-1,6.7
		L78.9,48.6z"/>
	<path class="st0" d="M93.8,49.2c-0.7,0-1.3-0.1-2-0.4c-0.7-0.3-1.2-0.7-1.7-1.3c-0.5-0.6-0.7-1.3-0.7-2.3v-0.3c0-0.1,0-0.2,0-0.3
		c0.1-0.6,0.2-1.3,0.3-2.2c0.1-0.9,0.3-1.9,0.4-3c0.2-1.1,0.4-2.1,0.5-3.2c0.2-1.1,0.4-2,0.5-2.9c0.3-1.7,0.6-3.1,0.8-4.2
		c0.2-1.1,0.4-1.9,0.5-2.5c0.1-0.6,0.2-1,0.3-1.3l5.4-0.5c-0.3,1.3-0.5,2.6-0.8,3.8c-0.3,1.2-0.5,2.3-0.7,3.4l-1.5,7.2
		c-0.1,0.5-0.2,1-0.3,1.4c-0.1,0.3-0.2,0.8-0.3,1.3c-0.1,0.5-0.1,1-0.1,1.5c0,0.3,0.1,0.6,0.3,0.9c0.2,0.2,0.4,0.3,0.7,0.3
		c0.4,0,0.7-0.1,0.9-0.4c0.2-0.3,0.4-0.6,0.6-1c0.2-0.4,0.3-0.8,0.4-1.3c0.1-0.4,0.2-0.8,0.2-1c0.2-1,0.4-2,0.6-2.9
		c0.2-0.9,0.4-2,0.6-3c0.2-1.1,0.4-2.3,0.7-3.7c0.2-1,0.4-1.9,0.5-2.9c0.2-1,0.4-2,0.5-3l5-0.3l-1.1,6.3c-0.2,0.8-0.3,1.7-0.5,2.7
		c-0.2,1-0.4,2-0.6,3c-0.2,1-0.4,2-0.6,2.9c-0.2,0.9-0.4,1.7-0.5,2.4c-0.4,1.8-1.1,3.2-2,4.2c-0.9,1-1.9,1.7-3,2.1
		C95.9,49,94.8,49.2,93.8,49.2z"/>
	<path class="st0" d="M110.1,48.6l4.3-23.2l10.3-0.9c-0.2,0.5-0.3,1-0.4,1.5c-0.1,0.4-0.2,0.8-0.3,1.3c-0.1,0.4-0.2,0.8-0.2,1.2
		c-0.3,0-0.7,0-1.2,0c-0.5,0-1.1,0-1.6,0c-0.5,0-1,0-1.4,0s-0.6,0-0.6,0l-1.1,5.8l1.9-0.1c0.2,0,0.5,0,0.7,0c0.2,0,0.5,0,0.7,0
		c0.2,0,0.5,0,0.7,0s0.3,0,0.5,0c0,0.3-0.1,0.6-0.1,0.9c0,0.3-0.1,0.6-0.1,0.9l-0.3,1.8c-0.1,0-0.3,0-0.4,0c-0.2,0-0.4,0-0.6,0
		c-0.2,0-0.5,0-0.8,0s-0.5,0-0.8,0c-0.3,0-0.6,0-0.9,0c-0.3,0-0.6,0-1,0l-1.1,6l4.8-0.8l-0.3,3.7L110.1,48.6z"/>
	<path class="st0" d="M127.2,48.6c-0.9,0-1.7-0.2-2.6-0.7c-0.9-0.5-1.7-1.2-2.5-2.2l2.4-4.7c0.2,0.4,0.6,0.8,1.1,1.2
		c0.5,0.4,1,0.7,1.5,0.9c0.5,0.2,1,0.3,1.3,0.3c0.6,0,1.1-0.2,1.6-0.5c0.5-0.3,0.8-0.8,0.8-1.4c0-0.8-0.3-1.5-1-2.1
		c-0.7-0.6-1.5-1.3-2.4-1.9c-0.8-0.6-1.6-1.3-2.3-2.1c-0.7-0.8-1.1-1.7-1.1-2.7c0-1.1,0.3-2.2,1-3.2c0.7-1,1.5-1.8,2.5-2.5
		c1-0.7,2.2-1.3,3.3-1.7c1.2-0.4,2.3-0.6,3.4-0.6c0.8,0,1.5,0.1,2.1,0.4c0.7,0.3,1.2,0.7,1.6,1.2c0.4,0.6,0.6,1.3,0.6,2.3
		c0,0.2,0,0.3,0,0.5c0,0.2,0,0.3,0,0.5c0,0.2,0,0.3-0.1,0.5c0,0.2-0.1,0.3-0.1,0.5l-4.7,1.4c0-0.2,0.1-0.3,0.1-0.5
		c0-0.2,0-0.3,0-0.5c0-0.7-0.1-1.1-0.3-1.4c-0.2-0.3-0.5-0.4-0.9-0.4c-0.2,0-0.5,0.1-0.8,0.3c-0.4,0.2-0.7,0.5-1,0.8
		c-0.3,0.4-0.4,0.8-0.4,1.2c0,0.7,0.3,1.3,0.9,1.8c0.6,0.5,1.3,0.9,2.1,1.4c0.4,0.2,0.8,0.6,1.2,1c0.5,0.5,0.9,1.1,1.2,1.9
		c0.3,0.8,0.5,1.8,0.5,3.1c0,1.6-0.4,3-1.2,4.2c-0.8,1.2-1.9,2.2-3.2,2.9C130.3,48.3,128.8,48.6,127.2,48.6z"/>
	<path class="st0" d="M136.2,48.6c0.7-2.9,1.3-5.8,1.9-8.6c0.2-1.1,0.5-2.3,0.7-3.6c0.3-1.3,0.5-2.6,0.8-3.9
		c0.3-1.3,0.5-2.6,0.7-3.8c0.2-1.2,0.4-2.2,0.5-3.1c0.9-0.3,1.8-0.5,2.8-0.7c1-0.2,1.9-0.3,2.7-0.3c1.3,0,2.3,0.3,3.1,0.8
		c0.8,0.6,1.3,1.3,1.6,2.2c0.3,0.9,0.5,2,0.5,3.1c0,1.2-0.2,2.4-0.7,3.5c-0.4,1.1-1,2.1-1.8,3c-0.8,0.9-1.6,1.6-2.6,2.1
		c-1,0.5-2,0.8-3,0.8h-0.4c-0.2,0.7-0.3,1.5-0.5,2.4c-0.2,0.9-0.3,1.7-0.4,2.4c-0.1,0.4-0.2,0.9-0.2,1.3c-0.1,0.4-0.1,0.9-0.2,1.3
		L136.2,48.6z M143.8,36.6c0.5-0.1,1-0.5,1.5-1c0.5-0.5,0.9-1.2,1.2-2c0.3-0.8,0.5-1.7,0.5-2.7c0-0.8-0.2-1.4-0.5-1.8
		c-0.4-0.4-0.8-0.6-1.2-0.6c-0.2,1.4-0.5,2.8-0.7,4.1C144.3,33.8,144.1,35.2,143.8,36.6z"/>
</g>
<g class="st1">
	<path class="st0" d="M149.2,48.6l4.3-23.2l10.3-0.9c-0.2,0.5-0.3,1-0.4,1.5c-0.1,0.4-0.2,0.8-0.3,1.3c-0.1,0.4-0.2,0.8-0.2,1.2
		c-0.3,0-0.7,0-1.2,0c-0.5,0-1.1,0-1.6,0c-0.5,0-1,0-1.4,0c-0.4,0-0.6,0-0.6,0l-1.1,5.8l1.9-0.1c0.2,0,0.5,0,0.7,0s0.5,0,0.7,0
		c0.2,0,0.5,0,0.7,0c0.2,0,0.3,0,0.5,0c0,0.3-0.1,0.6-0.1,0.9c0,0.3-0.1,0.6-0.1,0.9l-0.3,1.8c-0.1,0-0.3,0-0.4,0
		c-0.2,0-0.4,0-0.6,0c-0.2,0-0.5,0-0.8,0c-0.3,0-0.5,0-0.8,0c-0.3,0-0.6,0-0.9,0s-0.6,0-1,0l-1.1,6l4.8-0.8l-0.3,3.7L149.2,48.6z"/>
</g>
<g class="st1">
	<path class="st0" d="M166.4,48.6c-1.4,0-2.5-0.6-3.4-1.9c-0.9-1.3-1.3-3-1.3-5.3c0-2,0.3-4.1,0.8-6.1c0.6-2,1.4-3.8,2.4-5.4
		c1-1.6,2.2-2.9,3.6-3.8c1.4-1,3-1.5,4.7-1.5c1.1,0,2,0.4,2.7,1.2c0.8,0.8,1.1,1.9,1.1,3.3v0.4c0,0.1,0,0.2,0,0.2c0,0.1,0,0.1,0,0.2
		l-4.3,1.1c-0.3-0.5-0.6-0.8-0.9-0.8c-0.5,0-1.1,0.4-1.6,1.3c-0.6,0.8-1.1,1.9-1.6,3c-0.3,0.8-0.7,1.6-0.9,2.4
		c-0.3,0.8-0.5,1.6-0.6,2.3c-0.2,0.7-0.2,1.3-0.2,1.8c0,0.7,0.1,1.2,0.3,1.5c0.2,0.3,0.4,0.4,0.7,0.4c0.3,0,0.7-0.2,1.1-0.5
		c0.4-0.3,0.8-0.7,1.1-1.2s0.6-1,0.7-1.4l3.7,1.5c-1.1,2.4-2.3,4.2-3.8,5.4S167.7,48.6,166.4,48.6z"/>
	<path class="st0" d="M174.4,48.5c0.4-1.3,0.7-2.7,1.1-4.4c0.4-1.6,0.7-3.3,1-5c0.3-1.7,0.7-3.3,1-4.8c0.3-1.4,0.6-2.8,0.8-4.2
		c0.3-1.4,0.5-2.9,0.8-4.3l5.1-0.8c-0.3,1.5-0.6,2.9-0.8,4.3c-0.3,1.4-0.6,2.8-0.8,4.3c-0.3,1.5-0.6,3.1-0.9,4.8
		c-0.3,1.7-0.6,3.4-0.9,5c-0.3,1.6-0.6,3.2-0.8,4.6c-0.4,0-0.9,0-1.5,0.1c-0.6,0.1-1.2,0.1-1.8,0.2c-0.6,0.1-1.1,0.1-1.5,0.2
		C174.6,48.5,174.4,48.5,174.4,48.5z"/>
	<path class="st0" d="M182,48.6l4.3-23.2l10.3-0.9c-0.2,0.5-0.3,1-0.4,1.5c-0.1,0.4-0.2,0.8-0.3,1.3c-0.1,0.4-0.2,0.8-0.2,1.2
		c-0.3,0-0.7,0-1.2,0c-0.5,0-1.1,0-1.6,0c-0.5,0-1,0-1.4,0c-0.4,0-0.6,0-0.6,0l-1.1,5.8l1.9-0.1c0.2,0,0.5,0,0.7,0s0.5,0,0.7,0
		c0.2,0,0.5,0,0.7,0c0.2,0,0.3,0,0.5,0c0,0.3-0.1,0.6-0.1,0.9c0,0.3-0.1,0.6-0.1,0.9l-0.3,1.8c-0.1,0-0.3,0-0.4,0
		c-0.2,0-0.4,0-0.6,0c-0.2,0-0.5,0-0.8,0c-0.3,0-0.5,0-0.8,0c-0.3,0-0.6,0-0.9,0s-0.6,0-1,0l-1.1,6l4.8-0.8l-0.3,3.7L182,48.6z"/>
	<path class="st0" d="M193.7,48.6l1.7-8.5c0.3-1.6,0.5-3.2,0.8-4.8s0.6-3.3,0.9-4.9c0.3-1.6,0.5-3.1,0.6-4.5c1.2-0.4,2.6-0.7,4-0.9
		c1.4-0.2,2.9-0.3,4.3-0.3c1.7,0,2.8,0.4,3.4,1.1c0.6,0.7,0.9,1.7,0.9,2.9c0,1.1-0.3,2.2-0.8,3.3c-0.5,1.1-1.2,2.1-2,3
		c-0.8,0.9-1.8,1.6-2.8,2.1c0.4,0.9,0.8,1.8,1.3,2.9c0.4,1,0.9,2,1.3,3c0.2,0.5,0.4,1.1,0.7,1.6c0.2,0.5,0.5,1.1,0.7,1.6l-5.1,1.8
		c-0.2-0.8-0.4-1.5-0.6-2.2c-0.2-0.7-0.4-1.4-0.6-2.1c-0.2-0.8-0.4-1.6-0.6-2.3c-0.2-0.8-0.4-1.4-0.5-2c-0.1-0.6-0.2-1-0.2-1.2
		l-0.4,0.1c-0.1,0.7-0.3,1.5-0.5,2.5c-0.2,1-0.4,2-0.5,2.9l-0.6,3.4L193.7,48.6z M201.4,34.4c0.4,0,0.9-0.2,1.5-0.5
		c0.6-0.3,1.2-0.7,1.7-1.1c0.6-0.4,1.1-0.9,1.5-1.3c0.4-0.5,0.6-0.9,0.6-1.2c0-0.4-0.3-0.7-0.8-0.9c-0.5-0.1-1.2-0.2-2-0.2h-0.7
		c-0.1,0-0.3,0-0.4,0c-0.1,0-0.2,0-0.3,0L201.4,34.4z"/>
	<path class="st0" d="M217.2,48.5c0-0.4,0.1-0.7,0.1-1.1c0-0.3,0.1-0.7,0.1-1l0.2-1.8c0-0.3,0-0.6,0.1-0.8c0-0.3,0-0.5,0.1-0.7h-2.8
		l-1.3,4.7c-0.5,0.1-1,0.1-1.7,0.2c-0.7,0.1-1.3,0.1-1.8,0.2c-0.3,0-0.7,0.1-1,0.1c-0.3,0-0.7,0.1-1,0.1l2.6-8.6
		c0.3-1,0.7-2.2,1-3.5c0.4-1.3,0.8-2.6,1.2-4c0.4-1.4,0.8-2.7,1.1-3.9c0.4-1.2,0.6-2.2,0.9-3.1c1.5-0.1,3-0.2,4.5-0.4
		c1.5-0.2,3-0.4,4.5-0.6c-0.1,1.2-0.2,2.6-0.3,4.1c-0.1,1.5-0.2,3.1-0.3,4.8c-0.1,1.6-0.2,3.2-0.2,4.8c0,1.5-0.1,3.1-0.2,4.7
		c-0.1,1.6-0.1,3.2-0.2,4.9c-0.3,0-0.7,0.1-1,0.1c-0.3,0-0.7,0.1-1,0.1c-0.5,0.1-1.1,0.2-1.8,0.3C218.3,48.3,217.7,48.4,217.2,48.5z
		 M215.7,39.7c0.1,0,0.4,0,0.7,0c0.4,0,0.7,0,1-0.1c0.3,0,0.5,0,0.6,0c0-0.3,0-0.9,0.1-1.7c0.1-0.9,0.2-1.8,0.3-2.7
		c0-0.6,0.1-1.1,0.1-1.7c0.1-0.6,0.1-1.2,0.2-1.8l0.2-2.8l-0.5,0l-0.8,2.8L215.7,39.7z"/>
</g>
<g class="st1">
	<path class="st0" d="M117.1,84.7c-1.4,0-2.6-0.6-3.5-1.7c-0.9-1.1-1.4-2.8-1.4-5c0-1.2,0.2-2.5,0.5-3.9c0.3-1.4,0.7-2.7,1.3-4
		c0.5-1.3,1.2-2.6,1.9-3.7c1.2-1.8,2.5-3.3,4-4.5c1.5-1.2,3.1-1.7,4.7-1.7c1.3,0,2.3,0.3,3,1c0.7,0.7,1.2,1.5,1.5,2.5
		c0.3,1,0.4,2.1,0.4,3.2c0,2.6-0.4,5-1.2,7.2c-0.8,2.2-1.8,4.1-3.1,5.7c-1.3,1.6-2.6,2.8-4,3.6C119.8,84.3,118.4,84.7,117.1,84.7z
		 M118.9,79.3c1,0,1.8-0.3,2.6-1c0.8-0.7,1.4-1.5,1.9-2.5s0.9-2.1,1.2-3.2c0.3-1.1,0.4-2.1,0.4-3c0-0.3,0-0.7-0.1-1.1
		c-0.1-0.4-0.2-0.8-0.4-1.1c-0.2-0.3-0.6-0.5-1-0.5c-1,0-1.9,0.4-2.7,1.1c-0.8,0.7-1.5,1.6-2,2.8c-0.5,1.1-0.9,2.2-1.2,3.3
		c-0.3,1.1-0.4,2.1-0.4,3c0,0.5,0.2,0.9,0.5,1.4C117.9,79,118.3,79.3,118.9,79.3z"/>
	<path class="st0" d="M128.2,84.7c0.3-1.5,0.6-3.1,0.9-4.6c0.3-1.5,0.6-3,0.9-4.4c0.3-1.7,0.6-3.4,0.9-5.2c0.3-1.7,0.6-3.4,0.9-5.1
		c0.3-1.7,0.5-3.2,0.6-4.6c0.3,0,0.7,0,1-0.1c0.3,0,0.6,0,0.9-0.1c0.3,0,0.6,0,0.9-0.1c0.3,0,0.6,0,0.9-0.1l1.6-0.1
		c0.2,0.8,0.3,1.6,0.4,2.4c0.1,0.8,0.2,1.6,0.3,2.4c0.1,0.5,0.2,1.1,0.3,1.8c0.1,0.7,0.2,1.4,0.4,2.1c0.1,0.7,0.2,1.4,0.4,2
		c0.1,0.6,0.2,1.1,0.3,1.5c0.2-1.2,0.4-2.1,0.5-2.9c0.1-0.8,0.3-1.5,0.4-2.2c0.1-0.7,0.3-1.5,0.5-2.5l1-4.8l4-0.5
		c-0.4,1.6-0.7,3.2-1,4.8c-0.3,1.5-0.6,3-0.9,4.5c-0.5,2.6-1,5.1-1.4,7.4c-0.4,2.3-0.7,4.3-0.9,6l-5.3,1.2l-0.5-5
		c0-0.5-0.1-1.1-0.2-1.8c-0.1-0.7-0.2-1.4-0.3-2.2c-0.1-0.8-0.2-1.4-0.3-2.1c-0.1-0.6-0.2-1.1-0.2-1.4c-0.2,1.3-0.4,2.5-0.6,3.7
		c-0.2,1.2-0.4,2.4-0.7,3.5c-0.2,0.8-0.3,1.6-0.4,2.4c-0.1,0.8-0.3,1.6-0.5,2.5L128.2,84.7z"/>
	<path class="st0" d="M143.8,84.6c0.2-1.7,0.5-3.4,0.8-5.2c0.3-1.7,0.6-3.4,0.8-5c0.3-1.6,0.6-3.1,0.8-4.4c0.3-1.4,0.6-2.9,0.8-4.3
		c0.3-1.5,0.6-2.9,0.9-4.4l5.7-0.8l-1.7,7.4c-0.3,1.3-0.6,2.7-0.9,4.1c-0.3,1.5-0.6,2.9-0.9,4.3c-0.3,1.4-0.5,2.6-0.6,3.7
		c0.5,0,1.1-0.1,1.7-0.1c0.6,0,1.2,0,1.6,0c0,0.5,0.1,1,0.1,1.6c0.1,0.6,0.1,1,0.2,1.4c0.1,0.4,0.1,0.6,0.1,0.7c-0.1,0-0.2,0-0.2,0
		c-0.1,0-0.2,0-0.2,0h-0.5c-0.8,0-1.8,0-2.8,0.1c-1,0.1-2.1,0.2-3.1,0.4C145.5,84.1,144.6,84.4,143.8,84.6z"/>
	<path class="st0" d="M153.7,84.5c0.4-1.3,0.7-2.7,1.1-4.4c0.4-1.6,0.7-3.3,1-5c0.3-1.7,0.7-3.3,1-4.8c0.3-1.4,0.6-2.8,0.8-4.2
		c0.3-1.4,0.5-2.9,0.8-4.3l5.1-0.8c-0.3,1.5-0.6,2.9-0.8,4.3c-0.3,1.4-0.6,2.8-0.8,4.3c-0.3,1.5-0.6,3.1-0.9,4.8
		c-0.3,1.7-0.6,3.4-0.9,5c-0.3,1.6-0.6,3.2-0.8,4.6c-0.4,0-0.9,0-1.5,0.1c-0.6,0.1-1.2,0.1-1.8,0.2c-0.6,0.1-1.1,0.1-1.5,0.2
		C154,84.5,153.8,84.5,153.7,84.5z"/>
	<path class="st0" d="M161.3,84.7c0.3-1.5,0.6-3.1,0.9-4.6c0.3-1.5,0.6-3,0.9-4.4c0.3-1.7,0.6-3.4,0.9-5.2c0.3-1.7,0.6-3.4,0.9-5.1
		c0.3-1.7,0.5-3.2,0.6-4.6c0.3,0,0.7,0,1-0.1c0.3,0,0.6,0,0.9-0.1c0.3,0,0.6,0,0.9-0.1c0.3,0,0.6,0,0.9-0.1l1.6-0.1
		c0.2,0.8,0.3,1.6,0.4,2.4c0.1,0.8,0.2,1.6,0.3,2.4c0.1,0.5,0.2,1.1,0.3,1.8c0.1,0.7,0.2,1.4,0.4,2.1c0.1,0.7,0.2,1.4,0.4,2
		c0.1,0.6,0.2,1.1,0.3,1.5c0.2-1.2,0.4-2.1,0.5-2.9c0.1-0.8,0.3-1.5,0.4-2.2c0.1-0.7,0.3-1.5,0.5-2.5l1-4.8l4-0.5
		c-0.4,1.6-0.7,3.2-1,4.8c-0.3,1.5-0.6,3-0.9,4.5c-0.5,2.6-1,5.1-1.4,7.4c-0.4,2.3-0.7,4.3-0.9,6l-5.3,1.2l-0.5-5
		c0-0.5-0.1-1.1-0.2-1.8c-0.1-0.7-0.2-1.4-0.3-2.2c-0.1-0.8-0.2-1.4-0.3-2.1c-0.1-0.6-0.2-1.1-0.2-1.4c-0.2,1.3-0.4,2.5-0.6,3.7
		c-0.2,1.2-0.4,2.4-0.7,3.5c-0.2,0.8-0.3,1.6-0.4,2.4c-0.1,0.8-0.3,1.6-0.5,2.5L161.3,84.7z"/>
	<path class="st0" d="M176.8,84.6l4.3-23.2l10.3-0.9c-0.2,0.5-0.3,1-0.4,1.5c-0.1,0.4-0.2,0.8-0.3,1.3c-0.1,0.4-0.2,0.8-0.2,1.2
		c-0.3,0-0.7,0-1.2,0c-0.5,0-1.1,0-1.6,0c-0.5,0-1,0-1.4,0s-0.6,0-0.6,0l-1.1,5.8l1.9-0.1c0.2,0,0.5,0,0.7,0c0.2,0,0.5,0,0.7,0
		c0.2,0,0.5,0,0.7,0s0.3,0,0.5,0c0,0.3-0.1,0.6-0.1,0.9c0,0.3-0.1,0.6-0.1,0.9l-0.3,1.8c-0.1,0-0.3,0-0.4,0c-0.2,0-0.4,0-0.6,0
		c-0.2,0-0.5,0-0.8,0c-0.3,0-0.5,0-0.8,0c-0.3,0-0.6,0-0.9,0c-0.3,0-0.6,0-1,0l-1.1,6l4.8-0.8l-0.3,3.7L176.8,84.6z"/>
</g>
<path class="st0" d="M70.7,9.8c36.1,0,121.7-1,156.6-0.6c3.5,0.7,6.2,3.4,7.6,6.6c0.9,2.1,1.4,4.3,1.3,6.6
	c0.1,15.7,0.2,41.7,0.3,57.5l0,6.4c0.1,2.3-0.4,4.6-1.3,6.8c-1.4,3.3-4.2,6.1-7.8,6.9c-1,0.3-2.4,0.2-3.5,0.2
	c-12.7,0-38.4,0.1-51.1,0c-34.1-0.2-68.1-0.4-102.2-1.2v-0.3c34.1-0.8,68.1-1,102.2-1.2c12.7-0.1,38.4,0,51.1,0c1,0,1.9,0,2.9-0.1
	c4.3-0.9,6.7-5.4,7.1-9.5c0.1-0.8,0.1-6.9,0.1-7.9c0.1-15.8,0.2-41.7,0.3-57.5c0.1-2-0.3-4-1.1-5.8c-1.3-3.1-4.2-5.7-7.6-5.7
	C192.1,10.5,104.5,10.8,70.7,9.8L70.7,9.8z"/>
</svg>
