<?xml version="1.0" encoding="utf-8"?>
<!-- Generator: Adobe Illustrator 26.0.2, SVG Export Plug-In . SVG Version: 6.00 Build 0)  -->
<svg version="1.1" id="Capa_1" xmlns="http://www.w3.org/2000/svg" xmlns:xlink="http://www.w3.org/1999/xlink" x="0px" y="0px"
	 viewBox="0 0 240 100" style="enable-background:new 0 0 240 100;" xml:space="preserve">
<style type="text/css">
	.st0{enable-background:new    ;}
</style>
<g>
	<path d="M44.3,22.4c-2.3,1.8-4.4,4.4-4.6,7.4c-0.1,1.7,0.5,3.3,1,4.9c0.6,1.8,1.4,3.5,2.3,5.1c0.1,0.1,0.2,0.1,0.3,0.1
		c0.1-0.1,0.1-0.2,0.1-0.2c-0.9-3.1-2.7-5.6-3.2-8.9c-0.2-1.6,0.1-3.3,0.9-4.7C42.1,24.5,43.3,23.6,44.3,22.4
		C44.4,22.4,44.4,22.4,44.3,22.4L44.3,22.4z"/>
	<path d="M43.9,22.7c2.1,2.1,3.4,4.9,3.3,7.9c0,3.2-1.5,6.3-3.2,9c-0.2,0.3,0.3,0.6,0.5,0.3c1.9-2.9,3.2-6.1,3.2-9.6
		c0-2.8-1.2-6.1-3.6-7.8C44,22.2,43.8,22.5,43.9,22.7L43.9,22.7z"/>
	<path d="M44,23.8c-2.2,1.2-3.2,4.2-3.3,6.5c-0.1,3.4,2.5,6.1,2.9,9.4c0,0.2,0.4,0.2,0.4,0c0-2.8-2-5.1-2.7-7.7
		c-0.3-1.5-0.2-3.1,0.3-4.5C42,26,43,25,44,23.8C44,23.9,44,23.8,44,23.8L44,23.8z"/>
	<path d="M44,24c-0.1,0.1,0,0.2,0.1,0.3c0.1,0.1,0.2,0.1,0.2,0c0.1-0.1,0.1-0.1,0-0.2c-0.1,0-0.1-0.1-0.1,0v0.1c0-0.1,0-0.1-0.1-0.2
		C44,23.9,44,23.9,44,24L44,24z"/>
	<path d="M44.1,24.1c2.1,1.9,2.1,5,2,7.7c-0.1,1.3-0.3,2.6-0.7,3.9c-0.4,1.4-1.2,2.5-1.9,3.8c-0.1,0.1-0.1,0.2,0.1,0.3
		c0.1,0.1,0.2,0.1,0.3-0.1c2-2.1,2.6-5.6,2.6-8.4C46.5,29.1,46.4,25.2,44.1,24.1C44.1,24.1,44.1,24.1,44.1,24.1
		C44.1,24.1,44.1,24.1,44.1,24.1L44.1,24.1z"/>
	<path d="M43.8,26.5c-1.2,0.6-1.9,1.8-2.2,3C41.2,30.7,41,33,42,34.1c0.1,0.1,0.1,0.1,0.2,0c0,0,0-0.1,0.1-0.1c0.1-0.3,0.1-0.7,0-1
		C42,32.1,42,31.3,42,30.4C42.1,28.9,43,27.7,43.8,26.5C43.8,26.5,43.8,26.4,43.8,26.5L43.8,26.5z"/>
	<path d="M43.7,26.7c0.8,0.8,1.3,1.7,1.6,2.7c0.4,1,0.2,2,0.4,3c0,0.1,0.1,0.2,0.2,0.2c0.1,0,0.1-0.1,0.2-0.2c0.6-1.7-0.4-5.4-2.3-6
		c-0.1,0-0.1,0-0.1,0.1C43.6,26.7,43.6,26.7,43.7,26.7L43.7,26.7z"/>
	<path d="M46,31.8c-0.2,0.8-0.2,1.6,0,2.4c0,0.1,0.1,0.1,0.1,0.1s0.1,0,0.1-0.1c0.2-0.8,0.2-1.6,0-2.4C46.1,31.8,46.1,31.8,46,31.8
		C46,31.8,46,31.8,46,31.8L46,31.8z"/>
	<path d="M45.7,32.1c0.1,0.6,0.2,1.2,0.2,1.9H46c0.2-0.6,0.2-1.3-0.1-1.9C45.9,31.9,45.7,32,45.7,32.1L45.7,32.1z"/>
	<path d="M41.9,33.5c0.1,0.7,0.3,1.4,0.6,2c0,0.1,0.1,0.1,0.1,0c0,0,0,0,0-0.1c-0.1-0.7-0.3-1.4-0.6-2
		C41.9,33.3,41.8,33.4,41.9,33.5L41.9,33.5z"/>
	<path d="M42,33.6c-0.1,0.6,0.1,1.1,0.4,1.7c0.1,0.1,0.1,0.1,0.1,0v-0.1C42.4,34.6,42.3,34.1,42,33.6C42.1,33.5,42,33.5,42,33.6
		C42,33.5,42,33.6,42,33.6z"/>
	<path d="M43.7,27.5c0-0.1,0-0.1-0.1-0.2h-0.1c-0.1,0.1-0.1,0.1-0.1,0.2C43.6,27.5,43.8,27.5,43.7,27.5z"/>
	<path d="M43.8,27.4c-0.5,1.7-0.6,3.5-0.2,5.2c0,0.1,0.1,0.1,0.1,0.1l0.1-0.1c0.1-0.8-0.1-1.6,0-2.4C43.7,29.2,43.8,28.3,43.8,27.4
		L43.8,27.4L43.8,27.4z"/>
	<path d="M43.7,30.2c-0.1,0.4-0.1,0.7-0.1,1c0,0.4,0,0.8,0.1,1.2c0,0,0,0.1,0.1,0.1c0,0,0.1,0,0.1-0.1c0.1-0.4,0.2-0.7,0.1-1
		c0-0.4,0-0.8-0.1-1.2C43.9,30.2,43.8,30.1,43.7,30.2C43.8,30.1,43.8,30.2,43.7,30.2L43.7,30.2z"/>
	<path d="M44.1,30.9c-0.1,2.8-0.3,5.6-0.6,8.4c-0.1,0.3,0.4,0.4,0.5,0.1C44.4,36.6,44.5,33.8,44.1,30.9
		C44.2,30.9,44.2,30.9,44.1,30.9C44.1,30.9,44.1,30.9,44.1,30.9L44.1,30.9L44.1,30.9z"/>
	<path d="M43.5,33.7c-0.3,1.8-0.1,3.7,0.6,5.4c0,0.1,0.1,0.1,0.1,0c-0.1-1-0.2-1.9-0.3-2.9C43.8,35.4,43.7,34.5,43.5,33.7
		C43.6,33.7,43.6,33.6,43.5,33.7C43.5,33.6,43.5,33.7,43.5,33.7L43.5,33.7z"/>
	<path d="M43.1,39.7c-0.8-1.8-1.8-3.6-2.6-5.4c-0.8-1.6-1.5-3.1-2.8-4.2c-2.3-1.9-6.1-2.2-8.8-1.2c-0.1,0.1-0.1,0.1-0.1,0.2
		c0,0.1,0.1,0.1,0.1,0.1c1.6,0,3.1-0.3,4.6-0.2c1.7,0.2,3.2,0.8,4.5,2c1.1,1,1.8,2.7,2.4,4.1c0.8,1.6,1.6,3.3,2.4,4.9
		C43,40.1,43.2,39.9,43.1,39.7L43.1,39.7z"/>
	<path d="M28.9,29c0.5,3,1.9,5.6,4.1,7.7c2.4,2.1,6,3,8.9,3.9c0.3,0.1,0.4-0.4,0.2-0.5c-2.9-1.2-6.1-1.9-8.6-3.8
		c-2.4-1.9-3-4.8-4.2-7.4C29.1,28.7,28.9,28.8,28.9,29L28.9,29z"/>
	<path d="M43.3,39.8c-0.7,0.1-1.2,0.7-1.2,1.4c0,0.3,0.1,0.5,0.3,0.7c0.4,0.5,0.9,0.7,1.5,0.6c0.5-0.1,1.1-0.4,1.2-0.9
		c0-0.1-0.1-0.3-0.2-0.2c-0.2,0.1-0.4,0.2-0.6,0.4c-0.4,0.3-0.8,0.4-1.2,0.2c-0.4-0.2-0.6-0.5-0.6-0.9c-0.1-0.5,0.4-0.8,0.8-1
		c0.1-0.1,0.2-0.1,0.1-0.2C43.5,39.8,43.4,39.8,43.3,39.8z"/>
	<path d="M44.8,40.5c0.1,0.2,0.1,0.3,0.1,0.5c-0.1,0.2-0.1,0.4-0.2,0.5c-0.1,0.1,0.1,0.2,0.1,0.2s0.1,0,0.2,0
		c0.4-0.3,0.4-0.8,0.2-1.2c-0.1-0.1-0.1-0.1-0.2-0.2C44.9,40.2,44.8,40.4,44.8,40.5L44.8,40.5z"/>
	<path d="M44.5,39.9c0.2,0.2,0.4,0.5,0.5,0.7c0.1,0.3-0.1,0.6,0,0.8c0,0.1,0.1,0.1,0.2,0.1c0.4-0.2,0.4-0.6,0.3-1
		c-0.1-0.4-0.4-0.8-0.8-0.9C44.5,39.7,44.4,39.8,44.5,39.9L44.5,39.9z"/>
	<path d="M43.6,40.4c-0.2-0.2-0.4-0.2-0.6-0.1l0,0c-0.2,0.2-0.2,0.5-0.1,0.8H43c0,0,0-0.2,0-0.3c0-0.1,0.1-0.2,0.1-0.3
		C43.2,40.4,43.4,40.4,43.6,40.4C43.6,40.5,43.6,40.5,43.6,40.4L43.6,40.4z"/>
	<path d="M42.9,40.7c-0.3,0.5-0.1,1,0.4,1.3c0.4,0.2,1.3,0.2,1.3-0.4c0-0.1-0.1-0.1-0.1-0.1c-0.1,0.1-0.3,0.2-0.4,0.2
		c-0.2,0.1-0.5,0.1-0.7,0.1C43.1,41.7,42.8,41.3,42.9,40.7L42.9,40.7L42.9,40.7z"/>
	<path d="M44.7,40.6c0.1,0.3,0,0.6-0.2,0.9c-0.2,0.3-0.5,0.4-0.7,0.5c-0.1,0-0.1,0.1-0.1,0.1s0,0.1,0.1,0.1c0.4,0.1,0.8-0.1,0.9-0.4
		c0.1-0.2,0.2-0.4,0.2-0.6C44.9,40.9,44.9,40.7,44.7,40.6c0.1-0.1,0-0.1-0.1-0.1C44.7,40.5,44.7,40.5,44.7,40.6L44.7,40.6z"/>
	<path d="M44.6,40.8c-0.1-0.3-0.3-0.5-0.6-0.5c-0.2-0.1-0.7,0-0.7,0.3c0,0.1,0.1,0.1,0.1,0.1c0.2,0,0.4-0.1,0.5-0.1
		C44.2,40.5,44.5,40.6,44.6,40.8L44.6,40.8L44.6,40.8z"/>
	<path d="M42.2,40.9c-1.8-0.8-3.8-1.1-5.7-1.7c-1.9-0.5-3.6-1.1-5.5-1.1c-3.1,0-5.9,2.2-8.1,4.1c-0.1,0.1-0.1,0.3,0,0.4
		c2.3,2.3,5.5,3.6,8.8,3.6c1.6-0.1,3.2-0.4,4.6-1.1c0.8-0.4,1.6-0.9,2.3-1.4c1.1-0.6,2.4-1.1,3.6-1.6c0.2-0.1,0.3-0.2,0.2-0.4
		c-0.1-0.2-0.2-0.3-0.4-0.2c-1.8,0.4-3.4,1.1-4.9,2.2c-4.4,2.9-10.3,2.3-14-1.5v0.4c2.5-2.1,5.2-4.1,8.6-3.9s6.8,2,10.3,2.4
		C42.3,41.2,42.3,41,42.2,40.9L42.2,40.9z"/>
	<path d="M42.7,42.3c-2,0.8-3.8,1.8-5.7,2.7c-1.7,0.8-3.6,1.5-5,2.8c-1.2,1.1-1.7,2.8-2.3,4.2c-0.4,1-0.7,2-1,3.1
		c-0.1,0.3,0,0.7,0.3,0.9c0.3,0.3,1,0.1,1.3,0c1-0.3,2.1-0.4,3.1-0.6c1.8-0.4,3.4-0.7,4.9-1.8c1.3-1.1,2.1-2.7,2.7-4.2
		c0.8-1.8,1.7-3.8,2-5.7c0-0.1-0.1-0.2-0.2-0.2s-0.1,0.1-0.2,0.1c-1.2,2.8-2,5.7-3.7,8.3c-1.9,2.8-5.7,3-8.8,3.7
		c-1.5,0.4-0.3-2-0.2-2.4c0.3-0.7,0.5-1.4,0.7-2.1c0.5-1.7,1.7-3.1,3.2-4c2.9-1.7,6.2-2.8,9-4.6C42.8,42.4,42.7,42.3,42.7,42.3
		L42.7,42.3z"/>
	<path d="M42.9,42.8c-0.4,0.6-0.6,1.2-0.7,1.9c0,0,0.1,0.1,0.1,0l0,0c0.4-0.6,0.6-1.2,0.8-1.9C43.1,42.7,43,42.7,42.9,42.8
		L42.9,42.8z"/>
	<path d="M42.9,43c-0.4,0.8-0.7,1.7-0.9,2.6c0,0.1,0.1,0.1,0.1,0.1c0.4-0.8,0.7-1.7,0.9-2.6C43,43,43,43,42.9,43L42.9,43z"/>
	<path d="M41,47.8c-0.7,1.1-1,2.4-1.1,3.7c0,0.1,0.1,0.1,0.1,0C40.3,50.3,40.6,49,41,47.8C41.1,47.8,41.1,47.8,41,47.8L41,47.8z"/>
	<path d="M40.4,49.4c-2.5,4.2,1.1,8.8,3.9,11.7c0.1,0.1,0.3,0.1,0.4,0l0.1-0.1c1.5-2.9,3.1-6,3-9.3c-0.1-3.2-1.8-6.4-3-9.3
		c-0.1-0.3-0.5-0.1-0.5,0.2c0.8,3,2.5,5.6,2.9,8.7c0.4,3.4-1.3,6.6-2.9,9.4l0.5-0.1c-2.8-3.1-6-6.7-4.2-11.2
		C40.5,49.3,40.4,49.3,40.4,49.4L40.4,49.4z"/>
	<path d="M45.2,40.1c0.8-1.4,1.5-2.8,2.3-4.3c0.7-1.5,1.4-3,2.5-4.1c2.2-2.3,5.9-2.1,8.6-3.3c0.1-0.1,0.2-0.2,0.1-0.4
		c-0.1-0.1-0.2-0.2-0.2-0.1c-1.5,0.2-3,0.8-4.5,1.3c-1.5,0.4-2.8,1.1-4,1.9c-1.2,0.9-1.8,2.4-2.5,3.7c-0.9,1.7-1.8,3.5-2.7,5.2
		C44.8,40.1,45.1,40.3,45.2,40.1z"/>
	<path d="M58.1,28.2c0.4,0.2,0.8,0.1,1.1-0.3c0.1-0.1,0-0.1-0.1-0.1c0,0,0,0-0.1,0c-0.2-0.1-0.4-0.1-0.6,0
		C58.3,27.8,58.2,27.9,58.1,28.2C58.1,28.1,58.1,28.1,58.1,28.2L58.1,28.2z"/>
	<path d="M58.5,28.2l0.9,0.6c-0.1,0.4-0.1,0.7-0.2,1c-0.1,0.5-0.3,1-0.4,1.6c-0.3,1-0.7,2-1.3,2.8c-1.1,1.6-2.5,2.7-4.2,3.5
		c-1.7,0.8-3.4,1.3-5.1,1.6c-1.1,0.2-2.6,0.7-2.8,1.9c-0.1,0.2,0.2,0.4,0.4,0.3c1.6-1.7,4.3-1.8,6.4-2.6c2.1-0.8,3.9-2,5.4-3.7
		c1.3-1.8,2.1-3.9,2.4-6.1c0.1-0.7,0-1.1-0.7-1.5c-0.3-0.1-0.7,0.1-0.8,0.4c0,0.1,0,0.1-0.1,0.1C58.4,28.2,58.5,28.3,58.5,28.2
		L58.5,28.2z"/>
	<path d="M45.9,41l-0.5,0.5c-0.2,0.2-0.3,0.3-0.4,0.5c0,0,0,0.1,0.1,0.1h0.1c0.2-0.2,0.3-0.3,0.4-0.5L45.9,41L45.9,41L45.9,41z"/>
	<path d="M45.9,41c-0.2,0.1-0.3,0.2-0.5,0.4c-0.2,0.1-0.3,0.3-0.4,0.4c-0.1,0.1-0.1,0.1,0,0.2l0.1,0.1c0.1,0.1,0.1,0.1,0.2,0
		c0.2-0.1,0.3-0.3,0.4-0.4c0.2-0.2,0.3-0.4,0.4-0.5v-0.1C46,41,46,41,45.9,41L45.9,41z"/>
	<path d="M45.3,41.6c0.5-0.4,1-0.8,1.5-1.1c0.8-0.4,1.7-0.7,2.5-0.9c1.6-0.5,3.3-0.7,4.9-0.8c3.6-0.1,6.4,2.2,9.4,3.8
		c0.3,0.2,0.6-0.2,0.3-0.4c-2.7-2.2-6.2-4-9.7-4c-1.8,0.1-3.6,0.5-5.4,1c-1.3,0.4-2.9,1-3.6,2.2C45.3,41.6,45.3,41.6,45.3,41.6
		L45.3,41.6z"/>
	<path d="M63.6,42.4c0,0.2,0.1,0.3,0.2,0.4c0.1,0.1,0.3,0.2,0.4,0.2c0.1,0,0.1-0.1,0.1-0.2c0-0.1-0.1-0.1-0.1-0.1
		c-0.2-0.1-0.4-0.2-0.5-0.3C63.7,42.3,63.7,42.3,63.6,42.4C63.7,42.4,63.6,42.4,63.6,42.4z"/>
	<path d="M63.7,42.3c0.1,0.3,0.3,0.5,0.6,0.6c0.1,0,0.2,0,0.2-0.1c0-0.1,0-0.2-0.1-0.2c-0.2-0.1-0.4-0.2-0.6-0.4
		C63.7,42.2,63.6,42.2,63.7,42.3L63.7,42.3z"/>
	<path d="M63.8,42.4c0.1,0.2,0.2,0.3,0.3,0.4c0.1,0.1,0.2,0.3,0.4,0.2c0.1,0,0.1-0.1,0.1-0.1c0-0.2-0.1-0.3-0.2-0.4
		c-0.1-0.1-0.3-0.2-0.4-0.3C63.8,42.2,63.7,42.3,63.8,42.4z"/>
	<path d="M63.9,42.5c0.9,0.6-1.2,1.3-1.3,1.3c-0.4,0.2-0.9,0.3-1.3,0.5c-0.9,0.3-1.8,0.6-2.7,0.8c-1.9,0.4-3.8,0.3-5.6-0.4
		c-1.6-0.6-3.2-1.3-4.7-2.1c-1.2-0.6-2.5-1.4-3.9-1.5c-0.1,0-0.2,0.1-0.2,0.3c0,0.1,0.1,0.2,0.1,0.2c0.9,0.5,1.9,1,2.9,1.3
		c1.1,0.5,2.2,1,3.3,1.6c1.9,0.9,3.9,1.4,6,1.5c2.4,0,4.6-1,6.8-1.9c0.6-0.3,1.2-0.4,1.3-1.1c0.1-0.3-0.2-0.6-0.5-0.7l0,0
		c-0.1,0-0.1,0-0.2,0.1C63.8,42.4,63.8,42.5,63.9,42.5L63.9,42.5z"/>
	<path d="M44.9,40.7c-0.1,0.2-0.2,0.3-0.2,0.5c0,0.1,0,0.2-0.1,0.3c-0.1,0.1-0.1,0.1-0.2,0.1c-0.1,0-0.3,0.1-0.2-0.2l0,0
		c-0.1,0.2,0.2,0.4,0.3,0.4c0.4-0.1,0.2-0.7,0.4-1c0-0.1,0-0.1-0.1-0.1S44.9,40.6,44.9,40.7L44.9,40.7z"/>
	<path d="M44.7,40.7c-0.3,0.2-0.5,0.5-0.6,0.8c0,0.1,0.1,0.2,0.2,0.1c0.1,0,0.1-0.1,0.1-0.1c0.1-0.3,0.2-0.5,0.4-0.7
		C44.8,40.8,44.7,40.6,44.7,40.7L44.7,40.7z"/>
	<path d="M44.2,41c-0.1,0.2-0.3,0.4-0.5,0.5c-0.2,0.1-0.4,0.2-0.6,0.2c0,0-0.1,0.1,0,0.1l0,0c0.3,0.1,0.5,0.1,0.8-0.1
		c0.3-0.2,0.4-0.4,0.4-0.7C44.4,41,44.3,41,44.2,41L44.2,41z"/>
	<path d="M44.7,42.3c0.6,1,1.3,1.8,1.9,2.8c0.6,1.2,1.2,2.5,1.7,3.8c0.1,0.3,0.6,0.2,0.5-0.2c-0.7-2.3-2.1-5-3.9-6.5
		C44.8,42.2,44.7,42.3,44.7,42.3z"/>
	<path d="M44.9,43.1c1,1.9,1.9,3.9,2.6,6c0.5,1.6,1.3,3,2.4,4.3c1.2,1.4,2.8,2,4.6,2.3c1.5,0.2,3.7,0.7,4.9-0.4
		c0.1-0.1,0.1-0.2,0-0.3C59.3,55,59.3,55,59.2,55c-1.8,0.4-3.7,0.4-5.4,0c-2-0.4-3.5-1.8-4.6-3.5c-1.7-2.7-2-6.2-4.2-8.5
		C45,43.1,44.9,43.1,44.9,43.1C44.9,43.1,44.9,43.1,44.9,43.1L44.9,43.1z"/>
	<path d="M48,48c1,2.2,2.1,4.4,4.1,5.8c2,1.4,4.7,1.2,7,1.1c0.1,0,0.1-0.1,0.1-0.1s-0.1-0.1-0.1-0.1c-2.3-0.3-4.7,0.1-6.8-1.2
		C50.4,52.2,49.2,50,48,48C48,47.9,48,47.9,48,48L48,48z"/>
	<path d="M44.8,42.1c2.3,2.2,5.1,3.6,7.9,4.9c1.7,0.7,3.2,1.7,4.4,2.9c1.4,1.5,1.7,3.1,1.8,5c0,0.1,0.1,0.2,0.2,0.2s0.2-0.1,0.2-0.2
		c1.1-2.9-1.9-5.9-4.1-7.1c-1.6-1-3.4-1.6-5-2.3C48.2,44.6,46.5,43.4,44.8,42.1C44.8,42,44.7,42.1,44.8,42.1z"/>
	<path d="M59.5,55.4c2.2-2.1-1.3-5.8-2.9-7.1c-1.4-1.1-3-2.1-4.6-2.9c-1.7-0.9-3.5-2.1-5.4-2.5c-0.1,0-0.2,0.1-0.1,0.2
		c1.1,0.9,2.5,1.4,3.8,2c1.3,0.7,2.7,1.4,4,2.2c1.4,0.8,2.7,1.9,3.8,3c0.7,0.7,1.1,1.5,1.5,2.4C59.9,53.6,59.6,54.5,59.5,55.4
		L59.5,55.4L59.5,55.4z"/>
	<path d="M59.2,54.4c-0.1,0.2-0.2,0.4,0,0.5c0.1,0.1,0.1,0.1,0.2,0c0.2-0.1,0-0.3,0-0.5C59.4,54.3,59.3,54.3,59.2,54.4L59.2,54.4z"
		/>
	<path d="M58.7,55.6c0.3,0,0.5,0,0.7-0.1c0.1-0.1,0.2-0.1,0.3-0.2c0.1-0.1,0.1-0.2,0.1-0.3c0-0.1-0.1-0.1-0.1-0.1l0,0
		c-0.1,0-0.1,0-0.2,0c-0.1,0.1-0.2,0.1-0.3,0.2c-0.2,0.2-0.4,0.3-0.6,0.3C58.6,55.4,58.6,55.6,58.7,55.6L58.7,55.6z"/>
	<path d="M42.4,32.1c0,0.1,0,0.1,0,0.1c0,0.1,0,0.1,0.1,0.2c0.1,0.1,0.1,0.3,0.1,0.4c0,0.1,0.1,0.1,0.1,0.1l0,0
		c0.2-0.1,0.5-0.4,0.3-0.6C42.8,32,42.7,32,42.5,32c-0.1,0-0.3,0.1-0.2,0.2c0,0,0,0.1,0.1,0.1s0.1-0.1,0.2-0.1c0.1,0,0.2,0,0.2,0.1
		c0.2,0.2,0,0.4-0.2,0.4l0.1,0.1c-0.1-0.1-0.1-0.2-0.1-0.3c-0.1-0.1-0.1-0.2-0.1-0.2C42.5,32.1,42.4,32.1,42.4,32.1
		C42.4,32,42.4,32.1,42.4,32.1L42.4,32.1z"/>
	<path d="M43.1,33.2c0,0.2-0.1,0.3-0.1,0.4c0,0.1,0.1,0.1,0.1,0.1s0,0,0.1,0c0.2-0.1,0.2-0.3,0.1-0.4c0,0,0-0.1-0.1-0.1
		c0,0-0.1,0-0.1,0.1c0.1,0.1,0,0.3-0.1,0.3l0,0l0.1,0.1C43.1,33.5,43.1,33.4,43.1,33.2C43.1,33.2,43.1,33.2,43.1,33.2
		C43.1,33.2,43,33.2,43.1,33.2L43.1,33.2L43.1,33.2z"/>
	<path d="M42.2,33.1c0.1,0.8,0.3,1.5,0.6,2.2h0.1c0,0,0,0,0-0.1C42.7,34.5,42.4,33.8,42.2,33.1L42.2,33.1L42.2,33.1z"/>
	<path d="M42.5,33.7c0.1,0.9,0.3,1.7,0.6,2.5c0,0,0.1,0.1,0.1,0l0.1-0.1l0,0c-0.2-0.8-0.5-1.7-0.6-2.5
		C42.6,33.6,42.5,33.6,42.5,33.7L42.5,33.7z"/>
	<path d="M42.4,34.7c0.1,0.4,0.2,0.8,0.4,1.1c0,0.1,0.1,0,0.1,0C42.7,35.5,42.6,35,42.4,34.7L42.4,34.7z"/>
	<path d="M43.7,24.4l0.2-0.3c0-0.1,0-0.1-0.1-0.1c-1.3,1.2-2.2,2.9-2.5,4.7c0,0.1,0.1,0.1,0.1,0c0.4-0.8,0.6-1.6,0.9-2.3
		s1-1.6,1.3-2.1l0,0V24.4z"/>
	<path d="M43.3,24.7c-1.5,1.5-2.3,3.4-2.2,5.5c0,0.1,0.1,0.1,0.1,0.1s0.1-0.1,0.1-0.1C41.3,28.2,42.1,26.3,43.3,24.7
		C43.3,24.7,43.3,24.7,43.3,24.7L43.3,24.7z"/>
	<path d="M41.8,27.8c-0.5,1.2-0.8,2.5-0.8,3.9c0,0.1,0.2,0.1,0.2,0C41.2,30.4,41.5,29.1,41.8,27.8C41.8,27.8,41.8,27.8,41.8,27.8
		C41.8,27.8,41.8,27.8,41.8,27.8L41.8,27.8z"/>
	<path d="M41.2,28.8c-0.4,1-0.4,2.1-0.1,3.2c0,0.1,0.1,0,0.1,0C41.1,30.9,41.1,29.9,41.2,28.8C41.3,28.8,41.2,28.8,41.2,28.8
		L41.2,28.8z"/>
	<path d="M43,25.7c-0.7,0.9-1.5,2.3-1.5,3.5c0,0,0,0.1,0.1,0.1c0,0,0.1,0,0.1-0.1c0.2-0.5,0.4-1.1,0.5-1.6
		C42.3,27,42.7,26.3,43,25.7C43.1,25.7,43,25.6,43,25.7L43,25.7z"/>
	<path d="M43,26.7c-0.7,0.7-1.1,1.5-1.5,2.3c0,0.1,0,0.1,0.1,0.1c0.1,0,0.1,0,0.1-0.1l0,0C42.1,28.3,42.5,27.5,43,26.7
		C43,26.7,43,26.7,43,26.7L43,26.7z"/>
	<path d="M43.4,26.5c-0.5,0.4-0.9,0.9-1.3,1.4l0.1,0.1c0.1-0.2,0.2-0.3,0.2-0.4c0,0,0-0.1-0.1,0c-0.1,0.1-0.2,0.2-0.3,0.3
		c-0.1,0.1-0.1,0.1,0,0.1s0.1,0.1,0.1,0C42.5,27.5,43,27.1,43.4,26.5L43.4,26.5C43.4,26.5,43.4,26.5,43.4,26.5L43.4,26.5z"/>
	<path d="M43.4,26.2c-0.4,0.4-0.8,0.8-1.2,1.2c0,0,0,0.1,0.1,0.1C42.6,27.1,43.1,26.7,43.4,26.2C43.5,26.2,43.5,26.2,43.4,26.2
		C43.5,26.2,43.4,26.2,43.4,26.2z"/>
	<path d="M44.1,23.8c-0.4,0.5-0.6,1-0.9,1.5c-0.3,0.4-0.6,0.9-0.8,1.3c0,0.1,0.1,0.1,0.1,0.1c0.3-0.4,0.6-0.8,0.8-1.3
		C43.6,24.8,43.9,24.3,44.1,23.8L44.1,23.8C44.1,23.7,44.1,23.8,44.1,23.8z"/>
	<path d="M44.5,23.9c-0.3,0.5-0.6,1-0.9,1.5c-0.3,0.4-0.6,0.9-0.7,1.3c0,0.1,0.1,0.1,0.1,0.1c0.3-0.4,0.6-0.8,0.8-1.3
		c0.3-0.5,0.6-1,0.9-1.5c0-0.1,0-0.1,0-0.1C44.6,23.8,44.5,23.9,44.5,23.9L44.5,23.9z"/>
	<path d="M44.6,24.5c-0.2,0.3-0.4,0.7-0.5,1c-0.2,0.3-0.4,0.6-0.5,1c0,0,0,0.1,0.1,0.1c0.3-0.2,0.5-0.5,0.6-0.8
		c0.2-0.4,0.4-0.8,0.5-1.2L44.6,24.5z"/>
	<path d="M45,24.7c-0.4,0.6-0.8,1.2-1.1,1.8c0,0.1,0.1,0.1,0.1,0.1C44.4,26,44.7,25.4,45,24.7C45,24.8,45,24.7,45,24.7L45,24.7z"/>
	<path d="M45.2,25.3c-0.2,0.3-0.3,0.5-0.5,0.8c-0.2,0.3-0.3,0.6-0.4,0.9c0,0.1,0.1,0.1,0.1,0.1c0.2-0.3,0.4-0.5,0.5-0.8
		C45,25.9,45.1,25.6,45.2,25.3C45.3,25.2,45.2,25.2,45.2,25.3z"/>
	<path d="M45.5,25.7c-0.2,0.3-0.3,0.6-0.4,0.8c-0.2,0.3-0.3,0.6-0.4,0.9c0,0,0,0.1,0.1,0.1c0,0,0,0,0.1,0c0.2-0.3,0.4-0.5,0.5-0.8
		c0.2-0.3,0.3-0.6,0.4-0.9C45.6,25.7,45.5,25.7,45.5,25.7z"/>
	<path d="M45.8,26.4c-0.3,0.6-0.6,1.2-0.9,1.8c-0.1,0.1,0.1,0.2,0.1,0.1c0.1-0.1,0.2-0.3,0.3-0.4c0-0.1-0.1-0.1-0.1-0.1
		c-0.1,0.1-0.2,0.2-0.3,0.3l0.1,0.1C45.3,27.7,45.5,27.1,45.8,26.4C45.9,26.4,45.8,26.4,45.8,26.4L45.8,26.4z"/>
	<path d="M45.8,27.5c-0.3,0.3-0.4,0.7-0.3,1.1c0,0,0,0.1,0.1,0.1c0,0,0.1,0,0.1-0.1c0.1-0.2,0.1-0.4,0.1-0.5
		c0.1-0.2,0.1-0.4,0.2-0.6C45.9,27.5,45.9,27.4,45.8,27.5L45.8,27.5z"/>
	<path d="M46,28c-0.1,0.2-0.2,0.4-0.2,0.6c-0.1,0.2-0.2,0.4-0.2,0.6c0,0,0.1,0.1,0.1,0l0,0c0.1-0.2,0.2-0.4,0.2-0.5
		C45.9,28.6,46,28.3,46,28C46.1,28.1,46,28,46,28L46,28z"/>
	<path d="M46,28.4c0,0.5-0.1,1-0.2,1.5 M46,29.8c0.2-0.5,0.2-1,0.2-1.5h-0.1L46,29.8z"/>
	<path d="M46.7,39c1.3-1.9,2.3-3.8,4-5.4c0.8-0.7,1.6-1.3,2.5-1.9c1.1-0.6,2.2-0.7,3.4-1c0.1-0.1,0.1-0.2,0-0.3
		c-2-0.4-4.1,1-5.6,2.3C49.2,34.5,47.7,36.6,46.7,39L46.7,39C46.7,39,46.7,39,46.7,39z"/>
	<path d="M56.6,30.8c0.5,1.8-0.8,3-2.1,3.9c-1,0.8-2.2,1.5-3.3,2.1c-1.7,0.9-4,1.3-5.1,3C46,40,46.2,40.1,46.3,40
		c1-0.8,2.1-1.5,3.3-2c1.4-0.6,2.7-1.4,4-2.2c1.6-1.1,4.1-2.7,3.2-5C56.8,30.6,56.6,30.7,56.6,30.8L56.6,30.8z"/>
	<path d="M58.8,29c-0.4,0.6-0.7,1.3-1,1.9c-0.4,0.6-0.8,1.2-1.1,1.9c0,0.1,0,0.1,0,0.1c0.1,0,0.1,0,0.1,0l0,0
		c0.5-0.6,0.9-1.1,1.2-1.8c0.4-0.6,0.7-1.3,1-2C59,29,58.9,29,58.8,29L58.8,29z"/>
	<path d="M58.6,28.7c-0.5,1.1-1,2.2-1.5,3.3c0,0,0,0.1,0.1,0c0.7-1,1.3-2.1,1.6-3.3C58.9,28.6,58.7,28.6,58.6,28.7L58.6,28.7z"/>
	<path d="M59,29.4c-2,5.9-8.1,8-12.8,11.1c-0.1,0.1-0.1,0.2,0.1,0.2c2.8-1.1,5.7-3.1,8.1-4.9C56.5,34.2,58.4,32.1,59,29.4
		C59,29.4,59,29.4,59,29.4L59,29.4L59,29.4z"/>
	<path d="M34.5,30.2c-0.9-0.3-1.6,0.3-2,0.9c-0.7,1-0.1,2.4,0.6,3.3c0.9,1.2,2.4,2.1,3.7,2.9c1.5,1,3.2,2.2,4.9,2.7
		c0.1,0,0.2-0.1,0.1-0.2c-1.7-1.4-3.8-2.3-5.6-3.5c-0.9-0.6-1.8-1.2-2.6-2C32.2,33,32.1,30.4,34.5,30.2
		C34.5,30.2,34.5,30.2,34.5,30.2C34.5,30.2,34.5,30.2,34.5,30.2L34.5,30.2z"/>
	<path d="M33.8,30.4c2.4-0.1,4.2,3,5.4,4.8c1,1.6,1.5,3.8,2.9,5.1c0.1,0.1,0.2,0.1,0.2,0c0.1-0.1,0.1-0.1,0-0.2
		c-1.2-2.3-2.3-4.8-3.9-6.9C37.4,31.9,35.8,29.7,33.8,30.4C33.8,30.3,33.8,30.3,33.8,30.4L33.8,30.4L33.8,30.4z"/>
	<path d="M33.3,31.6c0.8,0.9,1.8,1.8,2.7,2.5c0,0,0.1,0,0-0.1c-0.8-0.9-1.7-1.8-2.6-2.6h-0.1C33.3,31.5,33.3,31.6,33.3,31.6
		L33.3,31.6L33.3,31.6z"/>
	<path d="M33.8,31.5c1.9,1.8,3.7,3.7,5.6,5.4c0,0.1,0.1,0,0.1-0.1C37.8,34.9,35.9,33.1,33.8,31.5C33.8,31.5,33.7,31.5,33.8,31.5
		L33.8,31.5z"/>
	<path d="M55.4,31.6c-2.2,1.5-4.2,3.3-6,5.3V37h0.1C51.5,35.2,53.5,33.4,55.4,31.6C55.4,31.6,55.4,31.6,55.4,31.6L55.4,31.6z"/>
	<path d="M55,32.7c-1.7,1.6-3.3,3.1-5,4.7c-0.1,0.1,0.1,0.1,0.1,0.1c1.8-1.4,3.4-3,4.9-4.7C55,32.7,55,32.7,55,32.7L55,32.7z"/>
	<path d="M30,29.1c0.8,2.3,1.9,4.9,3.5,6.7c1.4,1.6,3.6,2.6,5.6,3.3c0,0,0.1,0,0.1-0.1V39c-2-1-3.9-1.8-5.4-3.4
		C31.8,33.8,31.2,31.2,30,29.1L30,29.1L30,29.1z"/>
	<path d="M30.2,29.4c2.5,0.4,5.4-0.1,7.4,1.9c1.8,1.8,2.8,4.4,4.4,6.3c0,0.1,0.1,0,0.1-0.1c-0.8-1.4-1.7-2.7-2.6-4.1
		c-0.6-1.1-1.4-2-2.3-2.9c-0.8-0.6-1.7-0.9-2.6-0.9C33.1,29.4,31.6,29.4,30.2,29.4C30.1,29.3,30.1,29.3,30.2,29.4L30.2,29.4z"/>
	<path d="M41.3,41.3c-1.5,0.1-3-0.1-4.4-0.6c-1.5-0.5-3-0.9-4.5-1.3c-2.9-0.5-5.7,1.1-7.9,2.8c-0.1,0.1,0,0.3,0.1,0.2
		c1.4-1,2.8-1.8,4.4-2.5c1.6-0.6,3.3-0.4,4.9,0.1C36.2,40.6,38.9,42.1,41.3,41.3c0.1,0.1,0.1,0.1,0.1,0
		C41.4,41.3,41.3,41.3,41.3,41.3L41.3,41.3z"/>
	<path d="M24.4,42.4c1.6,0.5,3,1.3,4.2,2.3c1,0.6,2.2,0.8,3.4,0.6c1.5-0.4,2.9-0.9,4.2-1.7c1.6-0.8,3.2-1.5,4.7-2.3
		c0.1-0.1,0-0.3-0.1-0.2c-2.8,1.2-5.5,3-8.4,3.8c-1.8,0.5-3.2-0.1-4.6-1.1c-1-0.7-2.1-1.2-3.4-1.6C24.4,42.2,24.3,42.3,24.4,42.4
		C24.3,42.3,24.4,42.4,24.4,42.4z"/>
	<path d="M32.1,40.2c0.6,0.1,1.1-0.1,1.6-0.3c0,0,0,0,0-0.1l0,0C33.2,40.1,32.7,40.2,32.1,40.2L32.1,40.2z"/>
	<path d="M33.8,39.9c-1.5-0.5-3.2-0.4-4.6,0.3c-0.9,0.4-1.8,1.5-1.5,2.4c1,3.1,5.7,2.3,7.9,1c0.1-0.1,0.1-0.3-0.1-0.2
		c-2,0.7-4.4,1.5-6.4,0.4c-0.9-0.5-1.2-1.6-0.8-2.4c0.3-0.6,1.1-0.9,1.7-1.1c1.2-0.4,2.5-0.5,3.7-0.3L33.8,39.9
		C33.8,40,33.9,40,33.8,39.9L33.8,39.9L33.8,39.9z"/>
	<path d="M39.6,41.6c-2.8-0.4-5.7-0.6-8.6-0.7c-0.1,0-0.1,0.1,0,0.1C33.7,41.5,36.8,42,39.6,41.6L39.6,41.6L39.6,41.6z"/>
	<path d="M28.9,41.9c1.5-0.2,3-0.2,4.5-0.1c1.3,0.2,2.7,0.5,4,0.2c0.1,0,0.1-0.1,0-0.1C34.5,41.8,31.8,41.3,28.9,41.9
		C28.9,41.9,28.9,41.9,28.9,41.9L28.9,41.9z"/>
	<path d="M43,43.1l0.1-0.1V43c-0.4-0.6-1.9,0.6-2.3,0.8c-2,1-3.9,2.1-6,3.2c-1.3,0.6-2.5,1.6-3.4,2.8c-1,1.6-1.3,3.6-1.9,5.3
		c0,0.1,0.1,0.2,0.1,0.1c1.7-0.7,3.4-1.1,5.1-1.3c1.1-0.1,2.1-0.6,2.7-1.6c2-2.8,3.6-5.9,4.9-9.2c0.1-0.2-0.2-0.3-0.3-0.1
		c-1.1,2.8-2.5,5.5-4.1,8.1c-0.4,0.7-1,1.4-1.6,1.9c-0.7,0.5-1.7,0.5-2.4,0.6c-0.7,0.1-1.5,0.3-2.2,0.5c-0.2,0.1-1.9,0.6-1.8,0.4
		c0.4-1.2,0.8-2.5,1.2-3.8c0.6-1.7,1.9-2.7,3.4-3.7c1.3-0.8,2.7-1.5,4.1-2.2c0.7-0.4,1.4-0.8,2.1-1.1l0.9-0.5c0,0,1.2-0.6,1.1-0.4
		C42.9,43.1,43,43.1,43,43.1L43,43.1L43,43.1z"/>
	<path d="M33.5,48.1c0.2-0.1,0.1,0,0.2-0.2c0-0.1,0-0.1-0.1-0.1h-0.1c-1.6,1.2-2,3.6-0.4,5c1.8,1.7,4.4-0.7,5.6-2
		c0.1-0.1,0.1-0.1,0-0.2c-0.1-0.1-0.1-0.1-0.1,0c-1.3,0.8-2.8,2.6-4.5,2.2c-1-0.2-1.6-1.3-1.7-2.3c0-0.6,0.2-1.2,0.5-1.8L33.5,48.1
		C33.5,48.1,33.5,48.2,33.5,48.1L33.5,48.1z"/>
	<path d="M41.2,44.5c-1.1,0.7-2.1,1.6-3.1,2.5l0,0C39.2,46.2,40.2,45.3,41.2,44.5C41.2,44.5,41.2,44.5,41.2,44.5L41.2,44.5z"/>
	<path d="M37.5,47.9c-0.8,0.7-1.5,1.5-2.1,2.4c0,0,0,0.1,0.1,0.1c0,0,0,0,0.1,0C36.2,49.5,36.9,48.8,37.5,47.9L37.5,47.9L37.5,47.9z
		"/>
	<path d="M39,46.9c-1.2,1.2-2.3,2.5-3.4,3.8c-0.1,0.1,0,0.1,0.1,0.1C36.8,49.5,37.9,48.2,39,46.9L39,46.9L39,46.9z"/>
	<path d="M40,47.6c-0.4,0.6-0.8,1.2-1.3,1.9c-0.2,0.3-0.4,0.6-0.6,0.9s-0.6,0.7-0.7,1c0-0.1-0.1-0.1-0.1-0.1l0,0l-0.1,0.1
		c-0.1,0.1-0.1,0.1-0.1,0.1l0.1,0.1c0,0.1,0.1,0.1,0.1,0.1c0.5-0.1,0.9-0.9,1.1-1.3C39.1,49.4,39.6,48.6,40,47.6
		C40,47.6,40,47.5,40,47.6L40,47.6z"/>
	<path d="M39.5,48.7c-0.4,0.6-0.7,1.1-1.1,1.7s-0.9,1-1.2,1.6c-0.1,0.1,0.1,0.2,0.1,0.1C38.3,51.3,39.1,49.8,39.5,48.7
		C39.5,48.7,39.5,48.6,39.5,48.7z"/>
	<path d="M39.2,49.2c-1.6,1.8-2.8,3.4-5.4,3.8c-0.1,0-0.1,0.1,0,0.1C36.3,53.5,38.1,51.1,39.2,49.2C39.2,49.3,39.2,49.2,39.2,49.2z"
		/>
	<path d="M42.8,43.3c-0.1,0.1-0.1,0.3-0.2,0.4c0,0,0,0,0.1,0l0,0C42.7,43.5,42.8,43.4,42.8,43.3C42.8,43.2,42.8,43.2,42.8,43.3
		C42.8,43.2,42.8,43.2,42.8,43.3z"/>
	<path d="M43.1,42.5c-0.1,0.1-0.1,0.2-0.2,0.3c-0.1,0.1-0.1,0.2-0.1,0.3c-0.1,0.2-0.2,0.4-0.2,0.6c0,0.1,0.1,0.1,0.1,0.1l0,0
		c0.1-0.2,0.2-0.3,0.2-0.5c0.1-0.1,0.1-0.2,0.1-0.3C43.1,42.8,43.1,42.7,43.1,42.5C43.2,42.5,43.1,42.4,43.1,42.5L43.1,42.5z"/>
	<path d="M43.1,42.5c-0.3,0.2-0.6,0.4-0.8,0.7v0.1h0.1l0,0C42.6,43.1,42.9,42.9,43.1,42.5C43.2,42.6,43.1,42.5,43.1,42.5z"/>
	<path d="M43.3,42.9c-0.3,3.4-2.3,6.1-2.7,9.4c-0.3,2.9,2,5.2,3.6,7.2c0.1,0.1,0.2,0.1,0.2,0l0.1-0.1c0.2-1.4,0.9-2.6,1.5-3.9
		c0.5-1.4,0.7-2.9,0.5-4.4c-0.2-2.8-1.6-5.5-2.8-8.1c-0.1-0.2-0.4,0-0.3,0.2c1.3,2.7,2.6,5.3,2.8,8.3c0.1,1.6-0.2,3.2-0.9,4.6
		C45,56.5,43.9,58.8,44,59c-0.9-1.1-1.8-2.2-2.5-3.4c-0.9-1.6-0.9-3.3-0.4-4.9C41.8,48,43.6,45.7,43.3,42.9
		C43.3,42.9,43.3,42.9,43.3,42.9C43.3,42.9,43.3,42.9,43.3,42.9L43.3,42.9z"/>
	<path d="M43.8,45.9C43,46.1,42,47.1,42,48C42,48,42,48,42,48s0.1,0,0.1-0.1c0.3-0.4,0.4-0.8,0.6-1.1C43,46.5,43.4,46.2,43.8,45.9
		C43.8,45.9,43.8,45.9,43.8,45.9L43.8,45.9L43.8,45.9z"/>
	<path d="M43.4,46.4c0.2-0.1,0.4-0.2,0.6-0.2c0.2,0,0.4,0.1,0.5,0c0.1,0,0.1-0.1,0-0.1C44.2,45.9,43.7,46.1,43.4,46.4
		C43.4,46.3,43.4,46.4,43.4,46.4L43.4,46.4z"/>
	<path d="M44.6,46.3c-0.7-0.4-1.6-0.1-1.9,0.6c0,0.1-0.1,0.1-0.1,0.1c0,0,0,0.1,0.1,0.1h0.1C43.2,46.5,43.9,46.3,44.6,46.3
		C44.6,46.3,44.6,46.3,44.6,46.3z"/>
	<path d="M43.3,46.7c-0.2,2.8-0.2,5.7,0,8.6c0,0.1,0.2,0.1,0.2,0c-0.1-2.8-0.2-5.7-0.1-8.6C43.4,46.7,43.4,46.7,43.3,46.7L43.3,46.7
		z"/>
	<path d="M44,51.6c-0.4,1.7-0.5,3.4-0.3,5.1c0,0.1,0.2,0.1,0.2,0C43.8,55,43.9,53.3,44,51.6C44,51.6,44,51.6,44,51.6L44,51.6
		L44,51.6z"/>
	<path d="M43.7,47.5c-0.2,1.8-0.2,3.7,0,5.5c0,0,0,0.1,0.1,0.1s0.1,0,0.1-0.1c0.2-1.8,0.2-3.7,0-5.5C43.7,47.5,43.7,47.5,43.7,47.5
		C43.7,47.5,43.7,47.5,43.7,47.5L43.7,47.5z"/>
	<path d="M43.6,46.3c0.3,0.1,0.6,0.2,0.9,0.4c0.3,0.3,0.5,0.5,0.7,0.9c0,0.1,0.1,0.1,0.1,0l0.1-0.1C45.3,46.7,44.2,46.1,43.6,46.3
		L43.6,46.3z"/>
	<path d="M44.3,46.5c0.5,0.3,0.8,0.8,0.9,1.3l0.2-0.1c-0.3-0.3-0.3-0.8-0.5-1.1c-0.3-0.3-0.6-0.5-0.9-0.5c-0.6-0.1-1.1,0.3-1.2,0.9
		c0,0.1,0,0.1,0,0.2c0,0.1,0.1,0.1,0.2,0c0.2-0.5,0.8-0.8,1.3-0.7c0.5,0.1,1.1,0.9,1,1.4c0,0.1,0.1,0.2,0.1,0.2s0.2-0.1,0.2-0.1
		C45.5,47.3,45,46.5,44.3,46.5C44.3,46.5,44.3,46.5,44.3,46.5L44.3,46.5z"/>
	<path d="M45.7,54.4c-0.4,1-0.8,4-2.4,3.7c-0.1,0-0.1,0-0.1,0.1c0,0.1,0,0.1,0.1,0.1l0,0c1.4,1.2,2.5-3.1,2.5-3.8
		C45.8,54.3,45.7,54.3,45.7,54.4L45.7,54.4z"/>
	<path d="M46,51.1c-0.1,0.6,0,1.3-0.1,2c-0.1,0.7-0.2,1.3-0.2,1.9c0,0.1,0.1,0.1,0.1,0c0.5-1.2,0.6-2.6,0.4-3.9
		C46.1,51,46,51,46,51.1L46,51.1z"/>
	<path d="M45.7,49.9c-0.3,1.6-0.4,3.2-0.3,4.7c0,0,0,0.1,0.1,0.1c0,0,0.1,0,0.1-0.1C45.7,53,45.8,51.5,45.7,49.9
		C45.7,49.9,45.7,49.9,45.7,49.9L45.7,49.9z"/>
	<path d="M45.8,51.4c0.2,1,0.1,2.1-0.2,3.1c0,0.1,0.1,0.1,0.1,0.1C46.1,53.5,46.1,52.4,45.8,51.4C45.9,51.4,45.8,51.4,45.8,51.4
		L45.8,51.4z"/>
	<path d="M45.7,51.3c0.1,1.2-0.1,2.3-0.2,3.5l0.1,0.1c0,0,0,0,0.1-0.1c0.3-1.1,0.4-2.3,0.2-3.5C45.9,51.2,45.7,51.2,45.7,51.3
		L45.7,51.3z"/>
	<path d="M45.6,50.7c-0.2,1.1-0.4,2.2-0.5,3.4c0,0,0.1,0.1,0.1,0l0,0C45.4,53,45.5,51.9,45.6,50.7C45.6,50.7,45.6,50.7,45.6,50.7
		L45.6,50.7z"/>
	<path d="M45.1,50.7c0.1,0.9-0.1,1.8-0.1,2.7c0,0,0,0.1,0.1,0.1c0,0,0.1,0,0.1-0.1C45.3,52.6,45.3,51.7,45.1,50.7L45.1,50.7
		L45.1,50.7z"/>
	<path d="M45.7,53.3c-0.1,0.6-0.3,1.1-0.4,1.6c-0.2,0.5-0.4,1.1-0.5,1.7c0,0.1,0.1,0.1,0.1,0.1C45.6,55.8,45.7,54.4,45.7,53.3
		C45.9,53.3,45.8,53.3,45.7,53.3L45.7,53.3z"/>
	<path d="M48.1,47.9c0.2,0.9,0.5,1.8,1.1,2.5h0.1c0,0,0,0,0-0.1c-0.2-0.4-0.4-0.8-0.5-1.1c-0.2-0.4-0.3-0.9-0.5-1.3
		C48.2,47.8,48.1,47.9,48.1,47.9L48.1,47.9z"/>
	<path d="M48.1,48.2c0.2,1,0.6,1.9,1.2,2.7c0,0,0.1,0,0.1,0v-0.1c-0.2-0.4-0.4-0.8-0.6-1.2C48.6,49.2,48.4,48.7,48.1,48.2
		C48.2,48.2,48.1,48.2,48.1,48.2L48.1,48.2z"/>
	<path d="M48.3,48.1c0.3,1,0.8,2,1.5,2.9h0.1l0,0C49.4,50.1,48.8,49.1,48.3,48.1C48.4,48,48.3,48.1,48.3,48.1z"/>
	<path d="M48.6,48.9c0.4,1.3,1.2,3,2.4,3.8c0.1,0.1,0.2-0.1,0.1-0.1c-0.4-0.6-0.9-1.1-1.3-1.8c-0.4-0.6-0.8-1.3-1.1-2
		C48.6,48.8,48.5,48.8,48.6,48.9L48.6,48.9z"/>
	<path d="M48.8,49.9c0.5,1.2,1.3,2.3,2.5,3c0.1,0,0.1,0,0.1-0.1v-0.1c-0.4-0.4-0.9-0.8-1.3-1.2c-0.4-0.5-0.8-1-1.1-1.7
		C48.9,49.8,48.8,49.9,48.8,49.9z"/>
	<path d="M47.7,46.1c2.1,0.9,4.3,1.3,6.3,2.4c1.2,0.7,2.3,1.6,3.1,2.7c0.8,1.2,0.8,2.4,0.9,3.7C57.9,55,58,55,58,55
		c0,0,0.1,0,0.1-0.1c1.2-2.1-1-4.8-2.5-6c-2.3-1.7-5-2.8-7.9-3.1C47.7,46,47.7,46,47.7,46.1C47.7,46,47.7,46,47.7,46.1L47.7,46.1z"
		/>
	<path d="M48.8,47.3c1.3,0.7,2.5,1.6,3.7,2.5c1.1,0.9,2,1.9,3,2.8h0.1v-0.1l0,0C54,50.3,51.2,48.4,48.8,47.3
		C48.8,47.2,48.7,47.2,48.8,47.3C48.7,47.2,48.7,47.3,48.8,47.3L48.8,47.3z"/>
	<path d="M51.8,48.8c2.1,1.4,3.9,3.3,5.3,5.4c0.1,0.1,0.3,0,0.2-0.1C55.9,51.9,54,50.1,51.8,48.8L51.8,48.8L51.8,48.8z"/>
	<path d="M46.2,41.4c1.7,0.4,3.3,1,4.8,1.9c1.2,0.6,2.4,0.9,3.7,1c2.8,0.4,5.7,0.3,8.2-1.2c0.1-0.1,0-0.2-0.1-0.2
		c-2.5,1.6-5.6,1.5-8.5,1.1c-1.8-0.2-3.1-0.9-4.7-1.7C48.5,41.7,47.4,41.4,46.2,41.4C46.2,41.3,46.1,41.3,46.2,41.4L46.2,41.4z"/>
	<path d="M46.4,41.4c2.8-0.8,5.6-1.8,8.6-1.7c1.6,0.1,3.1,0.5,4.6,1.1c1.3,0.6,2.4,1.5,3.6,2.1c0.1,0.1,0.2-0.1,0.1-0.1
		c-2-1.8-4.6-3-7.3-3.4c-3.2-0.4-6.6,0.6-9.6,1.7C46.2,41.2,46.3,41.4,46.4,41.4L46.4,41.4z"/>
	<path d="M49.2,42.1c1-0.3,2-0.6,2.9-1c1-0.4,2-0.6,3.1-0.6c1.7-0.1,6.1,0.5,6.1,2.8c0,0.1,0.1,0.1,0.2,0.1c0.1,0,0.1-0.1,0.1-0.1
		c0.7-2.1-3.4-3-4.8-3.2c-2.8-0.4-5.1,0.8-7.6,1.9C49.1,42,49.1,42.1,49.2,42.1L49.2,42.1z"/>
	<path d="M61.5,43.1c0,0.1,0,0.3-0.1,0.4c0,0.1-0.1,0.1-0.1,0.2c-0.1,0.1-0.1,0.1-0.2,0.1v0.1l0,0c0.2,0.1,0.3-0.1,0.3-0.2
		C61.5,43.4,61.5,43.3,61.5,43.1C61.5,43.1,61.4,43.1,61.5,43.1L61.5,43.1z"/>
	<path d="M61.4,42.9c-0.1,0.3-0.2,0.5-0.2,0.8c0,0.1,0.1,0.1,0.1,0C61.4,43.4,61.5,43.2,61.4,42.9C61.4,42.9,61.4,42.9,61.4,42.9
		L61.4,42.9L61.4,42.9z"/>
	<path d="M60.7,42.7c-3.2-1.8-7.3-1.2-10.6-0.4c0,0-0.1,0.1,0,0.1l0,0c1.8-0.1,3.5-0.5,5.2-0.6C57.1,41.7,59,42,60.7,42.7
		C60.7,42.7,60.7,42.7,60.7,42.7L60.7,42.7z"/>
	<path d="M49.8,42.1c2.5,0.2,5,0.1,7.5-0.4c0.1,0,0.1-0.1,0.1-0.1s0-0.1-0.1-0.1c-2.5,0-5,0.3-7.5,0.4
		C49.8,42.1,49.7,42.1,49.8,42.1C49.7,42.1,49.8,42.1,49.8,42.1L49.8,42.1z"/>
	<path d="M47.3,40.8c-0.1,0.1-0.1,0.2-0.1,0.3c-0.1,0.1-0.1,0.2-0.1,0.3h0.1c0.1-0.1,0.1-0.1,0.1-0.2C47.3,41,47.4,40.9,47.3,40.8
		C47.4,40.7,47.3,40.7,47.3,40.8L47.3,40.8z"/>
	<path d="M48,40.5c-0.2,0.1-0.3,0.2-0.4,0.4c-0.1,0.2-0.1,0.4,0.1,0.5h0.1c0.1-0.1,0-0.3,0.1-0.4c0.1-0.2,0.2-0.3,0.3-0.4
		C48.1,40.6,48.1,40.5,48,40.5L48,40.5z"/>
	<path d="M48.5,40.5c-0.2,0.3-0.5,0.7-0.3,1c0,0,0.1,0.1,0.1,0l0,0c0.1-0.2,0.1-0.3,0.1-0.4c0.1-0.2,0.1-0.4,0.2-0.5
		C48.6,40.5,48.6,40.5,48.5,40.5L48.5,40.5z"/>
	<path d="M49.1,40.4c-0.3,0.4-0.5,0.9-0.6,1.3c0,0.1,0,0.1,0.1,0.2c0.1,0,0.1,0,0.1-0.1c0.2-0.5,0.4-0.9,0.5-1.4
		C49.2,40.4,49.2,40.4,49.1,40.4C49.2,40.4,49.1,40.4,49.1,40.4L49.1,40.4z"/>
	<path d="M50,40.3c-0.2,0.3-0.3,0.5-0.5,0.8c-0.2,0.2-0.3,0.5-0.4,0.7c0,0.1,0.1,0.2,0.2,0.1c0.2-0.2,0.3-0.5,0.4-0.7
		c0.1-0.3,0.3-0.6,0.4-0.8C50.2,40.2,50,40.2,50,40.3L50,40.3z"/>
	<path d="M50.9,40.4c-0.1,0.2-0.3,0.4-0.4,0.5c-0.2,0.2-0.3,0.4-0.3,0.6c0,0,0,0.1,0.1,0.1h0.1c0.2-0.2,0.3-0.3,0.4-0.5
		c0.1-0.2,0.2-0.4,0.3-0.6C51,40.4,50.9,40.4,50.9,40.4C50.9,40.4,50.9,40.4,50.9,40.4L50.9,40.4z"/>
	<path d="M51.8,40c-0.2,0.2-0.3,0.4-0.4,0.6c-0.2,0.2-0.2,0.4-0.3,0.6c0,0,0,0.1,0.1,0.1l0,0c0.2-0.1,0.3-0.3,0.3-0.4
		c0.2-0.2,0.3-0.5,0.4-0.7C51.9,40,51.8,40,51.8,40z"/>
	<path d="M52.7,39.8c-0.3,0.3-0.6,0.7-0.7,1.1c0,0.1,0.1,0.1,0.1,0.1C52.4,40.6,52.6,40.3,52.7,39.8C52.7,39.8,52.7,39.8,52.7,39.8z
		"/>
	<path d="M53.7,39.8c-0.1,0.2-0.2,0.3-0.3,0.5c0,0.1,0,0.1,0.1,0.1c0.2-0.2,0.3-0.3,0.3-0.5C53.8,39.8,53.8,39.8,53.7,39.8
		C53.7,39.8,53.7,39.8,53.7,39.8z"/>
	<path d="M53.8,39.8c0.1-0.2,0.3-0.2,0.5-0.2c0-0.1,0-0.1,0-0.1c-0.1,0.1-0.2,0.2-0.2,0.3c-0.1,0.1-0.1,0.2-0.1,0.4
		c0,0.1,0,0.1,0.1,0.1H54c0.1-0.1,0.2-0.2,0.2-0.3c0.1-0.1,0.1-0.3,0.2-0.4c0-0.1,0-0.1-0.1-0.1c0,0,0,0-0.1,0
		C54.1,39.5,53.9,39.6,53.8,39.8C53.8,39.8,53.8,39.9,53.8,39.8L53.8,39.8z"/>
	<path d="M51.2,50.6c0.1,0.1,0.1,0.1,0.2,0c0.1-0.1,0.3-0.2,0.2-0.3c-0.2-0.3-0.6,0.1-0.4,0.2h0.1c0-0.1,0-0.1,0.1-0.1
		c0.1-0.1,0.1-0.1,0.2-0.1C51.7,50.3,51.4,50.8,51.2,50.6C51.3,50.6,51.2,50.6,51.2,50.6L51.2,50.6z"/>
	<path d="M52.4,51.2c0.1,0,0.2,0.2,0.2,0.3c0,0.1-0.1,0.1-0.1,0.1c-0.1,0.1-0.2-0.1-0.2-0.1c-0.1-0.1-0.1-0.2,0-0.2
		c0,0,0-0.1-0.1-0.1c-0.3,0.1-0.1,0.5,0.2,0.5C52.7,51.6,52.6,51.1,52.4,51.2C52.3,51.1,52.4,51.2,52.4,51.2L52.4,51.2z"/>
	<path d="M49.8,50.1c0.2,1.2,0.9,2.3,2,2.8c0.1,0,0.1,0,0.1-0.1s0-0.1-0.1-0.1l0,0C50.9,52.2,50.2,51.2,49.8,50.1L49.8,50.1z"/>
	<path d="M50.3,51.1c0.2,0.5,0.4,1,0.8,1.4c0.3,0.4,0.7,0.7,1.2,0.8c0.1,0,0.1-0.1,0.1-0.1s0,0,0-0.1c-0.2-0.1-0.3-0.2-0.4-0.3
		c-0.3-0.2-0.5-0.4-0.7-0.6c-0.4-0.4-0.6-0.8-0.8-1.2C50.4,51,50.3,51,50.3,51.1L50.3,51.1L50.3,51.1z"/>
	<path d="M50.3,51.5c0.3,0.5,0.6,0.9,1.1,1.3c0.5,0.4,1,0.7,1.7,0.8c0.1,0,0.1-0.1,0.1-0.1v-0.1c-0.4-0.3-1-0.5-1.5-0.8
		c-0.5-0.4-0.9-0.8-1.2-1.2C50.3,51.4,50.3,51.5,50.3,51.5z"/>
	<path d="M50.9,51.5c0.3,0.4,0.5,0.8,0.9,1.2c0.3,0.4,0.7,0.6,1.1,0.8c0.1,0,0.1-0.1,0.1-0.1c-0.3-0.3-0.6-0.6-1-0.9
		c-0.4-0.4-0.7-0.7-0.9-1.1C50.9,51.4,50.9,51.5,50.9,51.5L50.9,51.5z"/>
	<path d="M51.5,52c0.3,0.4,0.6,0.7,1,1.1c0.3,0.3,0.7,0.6,1.1,0.8c0.1,0,0.1-0.1,0.1-0.1c-0.3-0.3-0.7-0.6-1-0.8
		C52.3,52.6,51.9,52.3,51.5,52C51.5,51.9,51.5,51.9,51.5,52L51.5,52z"/>
	<path d="M51.9,53.3c0.5,0.6,1.6,1.2,2.3,0.7c0.1,0,0.1-0.1,0-0.1c-0.4-0.1-0.7,0-1.1-0.1C52.6,53.7,52.3,53.5,51.9,53.3
		C51.9,53.2,51.9,53.2,51.9,53.3L51.9,53.3z"/>
	<path d="M52.5,53.3c0.8,0.7,1.9,1,3,0.8c0.1,0,0.1-0.1,0-0.1c-1-0.1-2-0.3-2.8-0.8C52.5,53.2,52.4,53.3,52.5,53.3L52.5,53.3z"/>
	<path d="M46.3,43.4c0.2,0.4,0.3,0.7,0.6,1c0.2,0.4,0.4,0.8,0.6,1.1h0.1c0-0.4-0.2-0.8-0.4-1.1C47,44.1,46.7,43.5,46.3,43.4
		L46.3,43.4C46.3,43.4,46.3,43.4,46.3,43.4L46.3,43.4z"/>
	<path d="M46.9,43.9c0.1,0.4,0.3,0.7,0.5,1c0.1,0.3,0.3,0.6,0.6,0.8H48l0,0c-0.1-0.4-0.2-0.7-0.4-0.9C47.4,44.5,47.2,44.2,46.9,43.9
		C46.9,43.8,46.9,43.8,46.9,43.9L46.9,43.9z"/>
	<path d="M47.5,44.3c0.2,0.3,0.4,0.6,0.6,0.9c0.2,0.3,0.2,0.7,0.5,0.8h0.1l0,0c0.1-0.3-0.2-0.6-0.3-0.8c-0.2-0.4-0.4-0.7-0.7-0.9
		C47.5,44.2,47.5,44.3,47.5,44.3z"/>
	<path d="M48.2,44.8c0.1,0.3,0.3,0.5,0.4,0.7c0.1,0.2,0.2,0.5,0.5,0.6c0,0.1,0.1,0.1,0.1,0c0.1,0,0.1-0.1,0-0.1
		c0-0.2-0.2-0.4-0.3-0.6c-0.2-0.3-0.3-0.5-0.5-0.7C48.3,44.7,48.2,44.7,48.2,44.8L48.2,44.8z"/>
	<path d="M48.8,45.2c0.1,0.2,0.2,0.4,0.4,0.5c0.2,0.2,0.2,0.3,0.4,0.4c0.1,0,0.1,0,0.1-0.1l0,0c-0.1-0.2-0.1-0.3-0.2-0.4
		c-0.2-0.2-0.3-0.4-0.5-0.5C48.8,45,48.7,45.1,48.8,45.2z"/>
	<path d="M49.2,45.2c0.1,0.2,0.3,0.4,0.4,0.6c0.1,0.2,0.3,0.4,0.5,0.4c0,0,0.1,0,0.1-0.1l0,0c-0.1-0.2-0.2-0.3-0.4-0.4
		C49.5,45.6,49.4,45.5,49.2,45.2L49.2,45.2L49.2,45.2L49.2,45.2z"/>
	<path d="M49.7,45.7c0.2,0.4,0.6,0.8,1,0.8c0,0,0.1,0,0.1-0.1c0,0,0,0,0-0.1c-0.2-0.1-0.3-0.2-0.5-0.3c-0.2-0.1-0.4-0.3-0.5-0.5
		C49.8,45.6,49.7,45.6,49.7,45.7L49.7,45.7z"/>
	<path d="M50.1,46c0.4,0.3,1.1,0.7,1.6,0.5c0.1,0,0.1-0.1,0.1-0.1s0-0.1-0.1-0.1c-0.3-0.1-0.5,0-0.8-0.1
		C50.6,46.2,50.4,46.1,50.1,46C50.2,45.9,50,45.9,50.1,46L50.1,46z"/>
	<path d="M51.5,46.5L51.5,46.5L51.5,46.5z"/>
	<path d="M53.5,48.6c-0.1,0.2-0.1,0.4,0.1,0.5c0.1,0.1,0.2,0.1,0.2,0.1c0.1,0,0.1-0.1,0.1-0.1c0-0.2-0.2-0.4-0.4-0.3v0.1
		c0.1,0,0.2,0.1,0.2,0.2l0.1-0.1c-0.2,0-0.3-0.1-0.3-0.3C53.5,48.7,53.5,48.6,53.5,48.6C53.5,48.6,53.5,48.6,53.5,48.6L53.5,48.6z"
		/>
	<path d="M33.3,49.2c0,0.2,0.2,0.3,0.3,0.3c0,0,0,0,0.1,0c0.2-0.1,0.2-0.2,0.2-0.4v-0.1c-0.1-0.2-0.3-0.2-0.4-0.1c0,0-0.1,0-0.1,0.1
		c-0.2,0.1-0.2,0.3-0.1,0.4c0.1,0.1,0.1,0.1,0.2,0.1c0.1,0,0.1-0.1,0.1-0.1c-0.1-0.1-0.1-0.2-0.1-0.3c0.1-0.1,0.2-0.2,0.3-0.2
		c0.1,0,0.1,0,0.1,0.1c0.1,0.1,0.1,0.3-0.1,0.4C33.6,49.5,33.4,49.4,33.3,49.2L33.3,49.2z"/>
	<path d="M35.2,48.2c0.1,0.1,0.3,0.3,0.4,0.4c0,0,0.1,0,0.1,0c0.3-0.2-0.2-0.6-0.3-0.4c0,0.1,0,0.1,0.1,0.1c0.1-0.1,0.3,0.1,0.2,0.2
		h0.1C35.6,48.4,35.4,48.3,35.2,48.2C35.3,48.2,35.2,48.2,35.2,48.2z"/>
	<path d="M36.1,35.3c-0.1,0.2,0.1,0.5,0.3,0.6c0.1,0,0.1,0,0.1,0l0,0c0.1-0.2,0.2-0.5-0.1-0.6C36.2,35.2,36.1,35.2,36.1,35.3
		c-0.1,0.1-0.1,0.1,0,0.2c0,0,0,0,0.1,0c0,0,0.1,0,0.1-0.1l0,0c0-0.1,0-0.1,0.1-0.1c0.1,0,0.1,0,0.2,0.1c0.1,0.1,0,0.2-0.1,0.3h0.1
		c-0.2-0.1-0.3-0.3-0.2-0.4C36.2,35.3,36.1,35.2,36.1,35.3C36.1,35.2,36.1,35.3,36.1,35.3L36.1,35.3L36.1,35.3z"/>
	<path d="M37.1,36.8c0.7,0.6,1.4,1,2.2,1.5h0.1v-0.1C38.7,37.6,37.9,37.1,37.1,36.8C37.1,36.7,37.1,36.7,37.1,36.8L37.1,36.8z"/>
	<path d="M37.8,37c0.3,0.3,0.7,0.5,1,0.7c0.3,0.3,0.7,0.5,1,0.6c0.1,0,0.1-0.1,0.1-0.1c-0.3-0.3-0.6-0.5-0.9-0.6
		c-0.4-0.3-0.8-0.5-1.1-0.7C37.8,36.9,37.7,37,37.8,37L37.8,37z"/>
	<path d="M38.5,36.9c0.3,0.5,0.9,1.2,1.6,1.3c0.1,0,0.1-0.1,0.1-0.1c-0.3-0.2-0.5-0.4-0.8-0.6c-0.3-0.2-0.5-0.5-0.7-0.7
		C38.5,36.8,38.4,36.9,38.5,36.9z"/>
	<path d="M39,37c0.2,0.2,0.4,0.4,0.6,0.7c0.2,0.3,0.4,0.5,0.7,0.6c0.1,0,0.1,0,0.1,0v-0.1c-0.2-0.3-0.3-0.4-0.5-0.6
		c-0.3-0.2-0.5-0.5-0.7-0.7C39.1,36.9,39,36.9,39,37C39,37,39,37,39,37L39,37z"/>
	<path d="M39.8,37.3c0.1,0.1,0.1,0.2,0.2,0.3c0.1,0.1,0.2,0.2,0.2,0.3c0.1,0.1,0.2,0.4,0.4,0.4c0.1,0,0.1,0,0.1-0.1
		c-0.1-0.2-0.2-0.3-0.3-0.4l-0.3-0.3C40.1,37.5,39.9,37.4,39.8,37.3C39.8,37.2,39.8,37.3,39.8,37.3L39.8,37.3z"/>
	<path d="M40.3,37.2c0.1,0.5,0.3,0.9,0.7,1.2H41v-0.1c-0.3-0.4-0.5-0.8-0.6-1.2c0,0,0-0.1-0.1-0.1C40.3,37.1,40.3,37.2,40.3,37.2
		L40.3,37.2z"/>
	<path d="M45.1,32c-0.2,0.1-0.2,0.4-0.1,0.5c0.1,0.1,0.1,0.1,0.2,0.2h0.1c0.2-0.2,0.2-0.4,0-0.6c-0.1-0.1-0.2-0.1-0.3,0
		c-0.1,0.1-0.1,0.2-0.1,0.3c0,0,0.1,0.1,0.1,0l0,0c0.1-0.1,0.1-0.2,0.2-0.2h0c0.1,0.2,0.1,0.4,0,0.5h0.1c-0.2-0.1-0.2-0.2-0.2-0.4
		c0-0.1,0.1-0.1,0.1-0.1c0.1-0.1,0-0.1-0.1-0.1L45.1,32z"/>
	<path d="M51.4,33.8c-0.1-0.1-0.2,0.1-0.2,0.1l0.1-0.1l0,0c-0.1,0-0.1,0.1-0.1,0.1c0,0.2,0.2,0.2,0.3,0.2c0.2-0.1,0.1-0.4,0.1-0.6
		c0-0.1-0.1-0.1-0.1-0.1c-0.2,0.1-0.5,0.3-0.3,0.5h0.1C51.3,33.9,51.3,33.8,51.4,33.8c0-0.1,0.1-0.2,0.2-0.2l-0.1-0.1
		c0.1,0.1,0.1,0.2,0,0.3C51.3,34,51.3,33.8,51.4,33.8v0.1C51.4,33.9,51.4,33.8,51.4,33.8C51.5,33.8,51.4,33.8,51.4,33.8L51.4,33.8z"
		/>
	<path d="M54.8,33c-0.3,0.1-0.1,0.5,0.2,0.5c0.4,0,0.4-0.4,0.4-0.7c0-0.1-0.1-0.1-0.1-0.1c-0.2,0-0.4,0.1-0.4,0.3l0.1,0.1
		c0,0,0.1,0,0.1-0.1c0.1-0.1,0.2-0.2,0.4-0.2l-0.1-0.1c0.1,0.2,0,0.4-0.1,0.5C55,33.4,54.8,33.1,55,33C54.9,33,54.9,32.9,54.8,33
		L54.8,33z"/>
	<path d="M56,31.3c-0.2,0.1-0.2,0.2-0.2,0.3v0.1l0.1,0.1h0.5c0.1,0,0.1-0.1,0.1-0.1v-0.1c-0.1-0.1-0.4-0.3-0.5-0.1v0.1l0,0
		c0.1,0.1,0.1,0,0.1,0c0.1,0,0.2,0.1,0.2,0.1c0-0.1,0.1-0.1,0.1-0.1h-0.5l0.2,0.1c-0.1-0.1,0-0.2,0.1-0.2l0,0
		C56.1,31.3,56.1,31.2,56,31.3L56,31.3z"/>
	<path d="M30.3,42.6c-0.1,0.1,0.1,0.3,0.2,0.3c0.2,0,0.3-0.3,0.3-0.4c0,0,0-0.1,0,0c-0.1,0.1-0.2,0.2-0.3,0.2c0,0,0,0.1,0.1,0.1
		c0.1-0.1,0.2-0.2,0.3-0.2h-0.1c0,0.1-0.1,0.2-0.1,0.3c-0.1,0.1-0.1,0.1-0.2,0.1C30.3,42.8,30.3,42.7,30.3,42.6
		C30.4,42.5,30.3,42.6,30.3,42.6L30.3,42.6z"/>
	<path d="M31.9,42.8c0,0.2,0.1,0.3,0.3,0.3c0.2,0,0.3-0.1,0.3-0.3l0,0c0-0.1-0.1-0.3-0.2-0.3h-0.1c-0.1,0-0.2,0.1-0.2,0.3v0.1l0,0
		c0-0.1,0.1-0.2,0.2-0.3c0.2-0.1,0.2,0.1,0.2,0.3C32.4,43.2,32,43.1,31.9,42.8C31.9,42.8,31.9,42.8,31.9,42.8L31.9,42.8z"/>
	<path d="M33.8,42.7c-0.1,0.2,0.2,0.2,0.3,0.1S33.8,42.5,33.8,42.7L33.8,42.7c0.1,0,0.1-0.1,0.1-0.1s0.1,0.1,0,0.1
		C33.8,42.8,33.8,42.7,33.8,42.7C33.8,42.6,33.8,42.6,33.8,42.7L33.8,42.7z"/>
	<path d="M35.6,42.9C35.6,42.9,35.6,42.8,35.6,42.9c0.1-0.1,0-0.1,0-0.1l0,0C35.5,42.8,35.5,42.8,35.6,42.9
		C35.5,42.8,35.5,42.9,35.6,42.9z"/>
	<path d="M30.3,40.9c0.1,0,0.2-0.1,0.2-0.2c0-0.1-0.1-0.2-0.2-0.2c-0.1,0-0.2,0.1-0.2,0.2C30.1,40.8,30.2,40.9,30.3,40.9z"/>
	<path d="M28.4,41.5c-0.1,0.6,0.1,1.2,0.4,1.8c0,0,0.1,0,0,0C28.5,42.8,28.3,42.1,28.4,41.5L28.4,41.5L28.4,41.5z"/>
	<path d="M28.4,42c0,0.5,0.3,1,0.6,1.4c0.1,0,0.1,0,0.1-0.1c-0.1-0.2-0.3-0.4-0.4-0.6C28.7,42.5,28.6,42.3,28.4,42
		C28.5,42,28.5,42,28.4,42C28.5,42,28.4,42,28.4,42L28.4,42z"/>
	<path d="M28.8,42.4c0.2,0.4,0.4,0.8,0.7,1.1c0,0,0.1,0,0,0C29.2,43.2,29,42.8,28.8,42.4L28.8,42.4L28.8,42.4z"/>
	<path d="M29.2,42.6c0.1,0.2,0.2,0.4,0.3,0.5c0.1,0.2,0.2,0.3,0.3,0.5h0.1v-0.1c-0.1-0.2-0.2-0.3-0.3-0.5
		C29.4,42.9,29.3,42.7,29.2,42.6L29.2,42.6z"/>
	<path d="M29.6,42.7c0,0.4,0.2,0.7,0.4,0.9c0,0,0.1,0,0.1-0.1c-0.1-0.1-0.2-0.3-0.3-0.4C29.7,43,29.7,42.8,29.6,42.7
		C29.7,42.6,29.6,42.7,29.6,42.7L29.6,42.7z"/>
	<path d="M30.1,43.4c0.1,0.1,0.3,0.2,0.4,0.4l0,0C30.4,43.6,30.3,43.5,30.1,43.4C30.2,43.4,30.1,43.4,30.1,43.4L30.1,43.4z"/>
	<path d="M32.6,51.3c0,0.8,0.6,1.5,1.3,1.6c0,0,0,0,0-0.1l0,0c-0.3-0.2-0.6-0.3-0.8-0.6c-0.3-0.3-0.4-0.7-0.5-1
		c0-0.1-0.1-0.1-0.1-0.1C32.6,51.1,32.6,51.2,32.6,51.3L32.6,51.3z"/>
	<path d="M32.8,51.4c0.3,0.5,0.7,0.9,1,1.3c0.1,0.1,0.4-0.1,0.3-0.2c0,0,0,0-0.1,0c0,0,0,0,0,0.1c-0.1,0.1-0.2,0.1-0.2,0l-0.1-0.2
		c-0.1-0.1-0.2-0.3-0.3-0.4C33.2,51.8,33.1,51.6,32.8,51.4C32.9,51.4,32.8,51.4,32.8,51.4L32.8,51.4z"/>
	<path d="M33.3,51.4c0.2,0.6,0.7,1.1,1.4,1.2c0.1,0,0.1-0.1,0-0.1c-0.3-0.1-0.5-0.3-0.7-0.4C33.7,51.9,33.5,51.6,33.3,51.4
		C33.4,51.3,33.3,51.4,33.3,51.4L33.3,51.4z"/>
	<path d="M33.9,51.6c0.2,0.2,0.3,0.4,0.5,0.5c0.2,0.2,0.3,0.3,0.5,0.4c0.1,0,0.1,0,0.1-0.1v-0.1c-0.1-0.2-0.3-0.3-0.5-0.4
		C34.3,51.8,34.1,51.7,33.9,51.6C33.9,51.6,33.9,51.6,33.9,51.6L33.9,51.6z"/>
	<path d="M34.7,51.6c0.2,0.3,0.5,0.5,0.9,0.6c0.1,0,0.1-0.1,0.1-0.1s0-0.1-0.1-0.1c-0.2-0.1-0.3-0.2-0.4-0.3
		c-0.2-0.1-0.3-0.2-0.4-0.3C34.7,51.5,34.6,51.6,34.7,51.6L34.7,51.6z"/>
	<path d="M35.3,51.5c0.2,0.4,0.5,0.6,0.8,0.6c0,0,0.1-0.1,0-0.1l0,0c-0.3-0.2-0.5-0.4-0.7-0.6C35.4,51.4,35.3,51.4,35.3,51.5
		C35.2,51.5,35.2,51.5,35.3,51.5L35.3,51.5z"/>
	<path d="M35.9,51.4c0.1,0.2,0.3,0.5,0.6,0.4c0,0,0.1-0.1,0-0.1l0,0c-0.1-0.1-0.2-0.1-0.2-0.1c-0.1-0.1-0.2-0.2-0.3-0.3
		C36,51.3,35.9,51.4,35.9,51.4L35.9,51.4z"/>
	<path d="M36.2,51.4c0.2,0.1,0.4,0.1,0.6,0.2c0,0,0.1,0,0-0.1C36.6,51.4,36.4,51.4,36.2,51.4C36.2,51.3,36.2,51.4,36.2,51.4z"/>
	<path d="M50.4,42.6c0.4,0.2,0.8,0.3,1.2,0.5s0.7,0.4,1.1,0.6h0.1c0,0,0,0,0-0.1C52.1,43.1,51.3,42.7,50.4,42.6
		C50.4,42.6,50.4,42.6,50.4,42.6L50.4,42.6z"/>
	<path d="M51,42.7l0.1,0.1l0,0L51,42.7L51,42.7z"/>
	<path d="M51,42.7c0.1-0.4-0.6-0.4-0.4,0c0.1,0.1,0.1,0.2,0.2,0.2c0.2,0.1,0.4,0.3,0.5,0.4c0.4,0.3,0.8,0.5,1.2,0.5
		c0.1,0,0.1,0,0.1-0.1c0,0,0-0.1-0.1-0.1c-0.3-0.2-0.6-0.3-0.9-0.4c-0.2-0.1-0.4-0.3-0.6-0.4C50.8,42.7,51,42.8,51,42.7L51,42.7z"/>
	<path d="M51.2,42.9c0.7,0.5,1.5,0.9,2.3,1.2c0.1,0,0.1-0.1,0.1-0.1c-0.7-0.5-1.5-0.9-2.2-1.2C51.2,42.8,51.2,42.8,51.2,42.9
		L51.2,42.9z"/>
	<path d="M50.7,42.5c0.6,0.4,1.2,0.8,1.9,1c0.1,0,0.1-0.1,0.1-0.1C52,43.1,51.4,42.7,50.7,42.5C50.7,42.4,50.6,42.5,50.7,42.5
		L50.7,42.5z"/>
	<path d="M49.9,42.3c0.3,0.2,0.7,0.4,1,0.5c0.5,0.2,0.9,0.4,1.4,0.5c0.1,0,0.1,0,0.1-0.1v-0.1C51.6,42.8,50.8,42.4,49.9,42.3
		C49.9,42.2,49.9,42.2,49.9,42.3L49.9,42.3z"/>
	<path d="M51.9,42.9c0.5,0.4,1.1,0.7,1.7,0.9c0,0,0.1,0,0.1-0.1c0,0,0,0,0-0.1c-0.5-0.4-1.1-0.7-1.7-0.9
		C51.9,42.9,51.9,42.9,51.9,42.9L51.9,42.9z"/>
	<path d="M52.9,43.1c0.3,0.2,0.5,0.3,0.7,0.4c0.3,0.2,0.5,0.3,0.7,0.4c0.1,0,0.1,0,0.1-0.1C54,43.5,53.5,43.2,52.9,43.1
		C52.9,43.1,52.9,43.1,52.9,43.1L52.9,43.1L52.9,43.1z"/>
	<path d="M53.8,43c0.3,0.4,0.8,0.7,1.2,0.9c0.1,0,0.1-0.1,0-0.1C54.6,43.6,54.2,43.3,53.8,43C53.8,43,53.7,43,53.8,43
		C53.7,43,53.7,43.1,53.8,43L53.8,43z"/>
	<path d="M54.6,43c0.4,0.3,0.7,0.6,1.1,0.9h0.1c0,0,0,0,0-0.1C55.4,43.6,55.1,43.3,54.6,43C54.7,43,54.6,43,54.6,43L54.6,43z"/>
	<path d="M55.4,43.2c0.3,0.3,0.6,0.6,1,0.8c0,0,0.1,0,0-0.1C56.1,43.6,55.7,43.4,55.4,43.2C55.4,43.1,55.4,43.1,55.4,43.2L55.4,43.2
		z"/>
	<path d="M56,43l0.5,0.5c0.2,0.2,0.3,0.3,0.5,0.4c0,0,0.1,0,0.1-0.1c-0.2-0.2-0.3-0.3-0.5-0.4L56,43L56,43L56,43z"/>
	<path d="M56.7,43.1c0.4,0.3,0.7,0.6,1.1,0.9c0,0,0.1,0,0-0.1C57.5,43.6,57.1,43.3,56.7,43.1C56.7,43,56.7,43,56.7,43.1L56.7,43.1z"
		/>
	<path d="M57.5,42.9c0.3,0.3,0.6,0.6,1,0.9c0,0,0.1,0,0-0.1C58.2,43.5,57.9,43.2,57.5,42.9C57.5,42.9,57.5,42.9,57.5,42.9z"/>
	<path d="M58.1,42.9c0.3,0.3,0.6,0.5,1,0.8c0,0,0.1,0,0.1-0.1C58.9,43.3,58.5,43.1,58.1,42.9C58.1,42.9,58.1,42.9,58.1,42.9z"/>
	<path d="M58.7,42.9c0.2,0.2,0.3,0.3,0.5,0.5s0.3,0.3,0.5,0.3c0,0,0.1,0,0.1-0.1c-0.2-0.1-0.3-0.2-0.5-0.3
		C59.1,43.2,58.9,43.1,58.7,42.9L58.7,42.9z"/>
	<path d="M59.2,42.9c0.1,0.1,0.2,0.2,0.3,0.2c0.1,0.1,0.1,0.2,0.2,0.3h0.1c0.1-0.1-0.1-0.2-0.2-0.3c-0.1-0.1-0.2-0.2-0.4-0.3
		C59.2,42.9,59.2,42.9,59.2,42.9L59.2,42.9z"/>
	<path d="M59.8,42.7l0.3,0.4c0.1,0.2,0.2,0.3,0.4,0.4c0,0,0.1,0,0.1-0.1c-0.2-0.3-0.4-0.6-0.6-0.9C59.9,42.6,59.8,42.6,59.8,42.7z"
		/>
	<path d="M61.3,42.3c0.1,0.2,0.1,0.4,0.2,0.5c0.1,0.2,0.2,0.3,0.3,0.4h0.1l0,0c0-0.2-0.1-0.3-0.1-0.5c-0.1-0.2-0.2-0.4-0.3-0.5
		C61.4,42.1,61.3,42.2,61.3,42.3L61.3,42.3z"/>
	<path d="M61.3,42c0.1,0.2,0.2,0.4,0.2,0.5s0.2,0.4,0.3,0.4c0.1,0,0.1,0,0.1-0.1c0-0.2-0.1-0.3-0.2-0.4C61.6,42.3,61.5,42.1,61.3,42
		C61.4,41.9,61.3,42,61.3,42L61.3,42z"/>
	<path d="M61.6,42.2c0.1,0.2,0.2,0.3,0.4,0.4l0.2,0.2c0.1,0.1,0.1,0.1,0.2,0.2c0.1,0,0.1,0,0.1-0.1c0-0.2-0.1-0.3-0.3-0.5
		C62,42.3,61.8,42.2,61.6,42.2C61.6,42.2,61.5,42.2,61.6,42.2L61.6,42.2z"/>
	<path d="M61.6,42.2c0.4,0.2,0.7,0.5,0.8,0.9l0.2-0.2c-0.3-0.3-0.5-0.5-0.8-0.6c-0.1,0-0.1,0-0.1,0.1v0.1c0.1,0.3,0.1,0.7,0.3,1
		c0,0,0.1,0.1,0.1,0l0,0c-0.1-0.3-0.1-0.7-0.2-1l-0.1,0.1c0.3,0.2,0.5,0.4,0.7,0.7c0.1,0.1,0.3-0.1,0.2-0.2
		c-0.1-0.2-0.3-0.4-0.4-0.5S61.9,42.3,61.6,42.2C61.6,42.1,61.6,42.2,61.6,42.2L61.6,42.2z"/>
	<path d="M25.2,41.6c-0.2,0.1-0.3,0.4-0.3,0.6c0,0.1,0.1,0.1,0.1,0.1c0.1,0,0.1-0.1,0.1-0.1c0-0.2,0.1-0.3,0.2-0.4
		C25.3,41.7,25.3,41.6,25.2,41.6C25.3,41.6,25.2,41.6,25.2,41.6L25.2,41.6z"/>
	<path d="M25.3,41.7c0.2-0.2,0.4-0.3,0.6-0.3l-0.1-0.1c-0.3,0.3-0.5,0.6-0.5,1c0,0.1,0.1,0.1,0.1,0.1c0.1,0,0.1,0,0.1-0.1
		c0.1-0.2,0.1-0.3,0.2-0.5c0.1-0.2,0.2-0.4,0.3-0.5c0.1-0.1-0.1-0.1-0.1-0.1C25.7,41.4,25.4,41.6,25.3,41.7
		C25.2,41.7,25.2,41.7,25.3,41.7L25.3,41.7z"/>
	<path d="M26.5,40.9c-0.2,0.2-0.3,0.5-0.5,0.7c-0.2,0.3-0.4,0.5-0.5,0.8c0,0.1,0,0.1,0.1,0.1c0.1,0,0.1,0,0.1,0
		c0.2-0.2,0.3-0.5,0.5-0.7c0.2-0.3,0.3-0.5,0.5-0.8C26.6,40.9,26.5,40.8,26.5,40.9z"/>
	<path d="M27.4,40.5c0.2,0.1-0.4,0.6-0.4,0.6c-0.1,0.2-0.3,0.3-0.4,0.4c-0.3,0.3-0.4,0.6-0.5,0.9c0,0.1,0.1,0.1,0.1,0.1
		c0.2-0.2,0.4-0.4,0.5-0.6c0.2-0.3,0.4-0.6,0.6-0.8C27.4,40.9,27.8,40.6,27.4,40.5L27.4,40.5z"/>
	<path d="M28.2,40.3c-0.8,0.7-1.5,1.7-1.9,2.6c0,0.1,0.1,0.1,0.1,0.1c0.3-0.4,0.5-0.8,0.8-1.2C27.6,41.3,27.9,40.8,28.2,40.3
		C28.3,40.3,28.2,40.3,28.2,40.3L28.2,40.3z"/>
	<path d="M28.2,40.9c-0.3,0.3-0.6,0.6-0.8,1c-0.3,0.3-0.5,0.7-0.6,1.1c0,0.1,0,0.1,0.1,0.1h0.1c0.2-0.3,0.4-0.6,0.6-1
		c0.3-0.4,0.5-0.8,0.8-1.1C28.3,40.9,28.2,40.8,28.2,40.9L28.2,40.9z"/>
	<path d="M27.9,41.8c-0.2,0.3-0.4,0.5-0.5,0.8c-0.2,0.2-0.4,0.5-0.4,0.8c0,0.1,0.1,0.1,0.1,0.1l0,0c0.2-0.2,0.4-0.5,0.5-0.7
		c0.2-0.3,0.3-0.6,0.4-0.9C28,41.8,27.9,41.7,27.9,41.8L27.9,41.8z"/>
	<path d="M27.9,42.3c-0.1,0.2-0.3,0.4-0.3,0.6c-0.1,0.2-0.2,0.4-0.2,0.5l0.1,0.1c0.2-0.1,0.2-0.3,0.3-0.4c0.1-0.2,0.2-0.5,0.3-0.7
		C28,42.3,28,42.3,27.9,42.3C27.9,42.2,27.9,42.2,27.9,42.3L27.9,42.3z"/>
	<path d="M28,42.8c-0.1,0-0.2,0.1-0.3,0.1c-0.1,0.1-0.2,0.2-0.2,0.2c-0.1,0.2-0.1,0.4,0.1,0.5h0.1l0,0c0-0.1,0-0.2,0.1-0.4
		c0.1-0.2,0.1-0.3,0.3-0.4C28.1,42.9,28,42.8,28,42.8L28,42.8z"/>
	<path d="M28,43c-0.2,0.2-0.2,0.5-0.2,0.7c0,0.1,0.1,0.1,0.1,0.1c0.1,0,0.1,0,0.1,0c0.1,0,0.1-0.1,0.1-0.1c-0.1-0.2,0-0.5,0.1-0.6
		c0-0.1,0-0.1-0.1-0.1C28,43,28,43,28,43L28,43z"/>
	<path d="M27.9,43.3c0.3,0.5,0.8,0.8,1.3,0.9c0.1,0.1,0.2-0.1,0.1-0.2c-0.3-0.3-0.7-0.5-1-0.7c-0.1,0-0.1,0-0.1,0c0,0,0,0.1,0,0.1
		c0.3,0.5,0.7,0.9,1.2,1.1l0.1-0.3l-0.7-0.4c-0.1-0.1-0.2-0.1-0.2-0.1c-0.1,0.1-0.1,0.2-0.1,0.2c0.3,0.5,0.7,0.8,1.2,0.9
		c0.1,0,0.2-0.1,0.2-0.1c0-0.1,0-0.2-0.1-0.2c-0.3-0.2-0.6-0.4-0.9-0.5c-0.2-0.1-0.3,0.2-0.2,0.3c0.7,0.4,1.5,0.7,2.3,0.7
		c0.1,0,0.2-0.1,0.2-0.2c0-0.1-0.1-0.1-0.1-0.2c-0.2-0.2-0.4-0.2-0.6-0.2c-0.1,0.1-0.2,0.1-0.1,0.2c0,0.1,0.1,0.1,0.1,0.1
		c0.6,0.3,1.2,0.3,1.8,0.1c0.1-0.1,0.1-0.2,0-0.2c-0.5,0.1-1.1,0-1.6-0.2c0,0.1-0.1,0.2-0.1,0.3l0.4,0.1l0.1-0.3
		c-0.8,0-1.5-0.2-2.2-0.6c-0.1,0.1-0.1,0.2-0.2,0.3c0.3,0.1,0.6,0.3,0.8,0.5l0.1-0.3c-0.5-0.1-0.8-0.4-1-0.8l-0.2,0.3
		c0.2,0.3,0.5,0.5,0.9,0.5c0.1,0,0.2,0,0.2-0.1c0-0.1,0-0.2-0.1-0.2c-0.3-0.2-0.6-0.4-0.8-0.6l-0.2-0.2c0.3,0.1,0.5,0.3,0.6,0.6
		l0.2-0.2c-0.5-0.2-0.9-0.5-1.2-0.8C27.9,43.2,27.8,43.3,27.9,43.3L27.9,43.3z"/>
	<path d="M43.4,43.6c-0.2,0.4-0.3,0.8-0.4,1.2c-0.1,0.5-0.4,0.9-0.5,1.3c0,0.1,0,0.1,0.1,0.1h0.1c0.3-0.4,0.5-0.8,0.6-1.3
		c0.2-0.4,0.3-0.8,0.2-1.2C43.5,43.6,43.5,43.6,43.4,43.6L43.4,43.6L43.4,43.6z"/>
	<path d="M43.6,44.3c-0.2,0.3-0.4,0.7-0.5,1c-0.2,0.4-0.3,0.7-0.3,1.1c0,0.1,0,0.1,0.1,0.1H43c0.2-0.3,0.3-0.6,0.4-0.9
		c0.2-0.4,0.3-0.8,0.4-1.2C43.7,44.2,43.6,44.2,43.6,44.3L43.6,44.3z"/>
	<path d="M43.9,44.4c-0.2,0.3-0.4,0.7-0.5,1c-0.2,0.3-0.3,0.6-0.3,0.9c0,0.1,0.1,0.1,0.1,0.1h0.1c0.2-0.3,0.3-0.5,0.4-0.8
		c0.2-0.4,0.3-0.7,0.4-1.1c0-0.1,0-0.1-0.1-0.1C44,44.3,43.9,44.4,43.9,44.4L43.9,44.4z"/>
	<path d="M44.1,44.8c-0.2,0.2-0.3,0.4-0.4,0.7c-0.2,0.3-0.2,0.5-0.1,0.8h0.1l0,0c0.1-0.2,0.2-0.3,0.2-0.5c0.1-0.3,0.2-0.6,0.4-0.8
		C44.4,44.8,44.2,44.7,44.1,44.8L44.1,44.8z"/>
	<path d="M44.4,45.4c-0.1,0.1-0.2,0.3-0.3,0.4C44,45.9,43.9,46,44,46.2c0,0.1,0.1,0.1,0.1,0.1c0.2-0.1,0.2-0.2,0.2-0.3
		C44.4,45.8,44.4,45.6,44.4,45.4C44.5,45.4,44.5,45.3,44.4,45.4C44.4,45.3,44.4,45.3,44.4,45.4L44.4,45.4z"/>
	<path d="M44.5,45.6c-0.2,0.2-0.2,0.5-0.2,0.7c0,0.1,0.1,0.1,0.1,0.1l0,0c0.2-0.2,0.2-0.5,0.2-0.7C44.6,45.6,44.6,45.6,44.5,45.6z"
		/>
	<path d="M44.6,46.1c0,0.1,0.1,0.2,0.2,0.2c0.1,0,0.1,0,0.1,0h-0.1c0,0.1,0.1,0.2,0.1,0.3c0,0.1,0,0.2,0.1,0.3H45l0,0
		c0.1-0.1,0-0.2-0.1-0.2s-0.1-0.2-0.1-0.3l-0.1-0.1l0,0c-0.1,0.1-0.2,0-0.2-0.1C44.6,46.2,44.6,46.2,44.6,46.1L44.6,46.1L44.6,46.1z
		"/>
	<path d="M44.6,46.2c0.2,0.2,0.4,0.4,0.6,0.6l0,0C44.9,46.5,44.8,46.3,44.6,46.2C44.6,46.2,44.6,46.2,44.6,46.2L44.6,46.2z"/>
	<path d="M32.7,48.6c-1.6,1.6-2.3,4-2.6,6.2c0,0.1,0.1,0.1,0.1,0C31,52.6,31.4,50.5,32.7,48.6C32.9,48.6,32.8,48.6,32.7,48.6
		L32.7,48.6z"/>
	<path d="M32.1,50.1c-0.8,1.5-1.3,3-1.7,4.6c0,0.1,0.1,0.1,0.1,0.1C31.3,53.3,31.9,51.8,32.1,50.1C32.2,50.1,32.2,50.1,32.1,50.1
		L32.1,50.1L32.1,50.1z"/>
	<path d="M32.2,51.6c-0.2,0.4-0.3,0.7-0.5,1.1c-0.2,0.5-0.4,0.9-0.5,1.5c0,0.1,0,0.1,0.1,0.1s0.1,0,0.1-0.1c0.2-0.4,0.4-0.7,0.5-1.1
		c0.2-0.5,0.4-1,0.5-1.5C32.2,51.6,32.2,51.5,32.2,51.6L32.2,51.6z"/>
	<path d="M32.6,52.1c-0.2,0.3-0.3,0.5-0.4,0.8c-0.2,0.3-0.3,0.5-0.4,0.8c0,0.1,0,0.1,0,0.1h0.1c0.2-0.2,0.4-0.5,0.5-0.8
		C32.5,52.7,32.5,52.4,32.6,52.1C32.6,52.1,32.6,52,32.6,52.1L32.6,52.1z"/>
	<path d="M33.1,52.3c-0.4,0.4-0.7,1-0.7,1.6c0,0.1,0.1,0.1,0.1,0.1c0,0,0.1,0,0.1-0.1c0.1-0.2,0.2-0.5,0.3-0.7
		c0.1-0.3,0.3-0.5,0.4-0.8C33.2,52.3,33.2,52.2,33.1,52.3L33.1,52.3z"/>
	<path d="M33.3,53c-0.2,0.2-0.3,0.5-0.4,0.7c-0.1,0.2-0.2,0.4-0.2,0.6c0,0.1,0.1,0.1,0.1,0.1c0.2-0.2,0.3-0.3,0.4-0.5
		c0.1-0.3,0.3-0.5,0.3-0.8C33.5,52.9,33.4,52.9,33.3,53L33.3,53z"/>
	<path d="M37.2,52.7c-0.8,0.3-1.5,0.6-2.2,1l0.2,0.2c0.1-0.1,0.1-0.2,0.1-0.3c0-0.1,0-0.1-0.1-0.1h-0.1c-0.1,0.1-0.2,0.1-0.2,0.2
		c-0.1,0.1,0.1,0.3,0.2,0.2C35.9,53.6,36.6,53.2,37.2,52.7L37.2,52.7C37.3,52.7,37.3,52.7,37.2,52.7L37.2,52.7z"/>
	<path d="M36.7,52.8c-1.7,0.6-3.4,1-5.2,1.4c0,0.1,0.1,0.2,0.1,0.3c0.2-0.1,0.3-0.1,0.5-0.2c0.1,0,0.1-0.1,0-0.1l-0.1-0.1
		c-0.2,0-0.4,0-0.5,0.1c-0.2,0.1-0.1,0.4,0.1,0.3c1.8-0.2,3.5-0.8,5.1-1.6C36.8,52.9,36.8,52.9,36.7,52.8
		C36.8,52.8,36.7,52.8,36.7,52.8L36.7,52.8z"/>
	<path d="M33.6,53.5c-0.5,0.1-0.9,0.2-1.3,0.3c-0.4,0.1-0.8,0.2-1.2,0.4c-0.1,0.1-0.1,0.2-0.1,0.2l0,0c0.1,0.1,0.1,0.1,0.1,0.1
		s0.1,0,0.1-0.1v-0.1c0-0.1,0-0.1-0.1-0.1l0,0l0,0c-0.1,0-0.1,0.1-0.1,0.1v-0.1v0.2c0.8-0.4,1.7-0.5,2.5-0.9
		C33.6,53.6,33.6,53.5,33.6,53.5L33.6,53.5z"/>
	<path d="M32.4,54c-0.5,0.1-0.9,0.1-1.3,0.3c-0.4,0.1-0.8,0.3-1.1,0.6c-0.1,0.1,0,0.2,0.1,0.2c0.4-0.1,0.8-0.3,1.1-0.4
		c0.4-0.2,0.9-0.3,1.3-0.4c0.1,0,0.1-0.1,0.1-0.1C32.5,54.1,32.4,54,32.4,54L32.4,54L32.4,54z"/>
	<path d="M33.4,47.5c0.2-0.1,0.4-0.2,0.5-0.4c0,0,0,0,0-0.1c0,0,0,0-0.1,0l0,0C33.7,47.2,33.5,47.4,33.4,47.5
		C33.3,47.5,33.4,47.6,33.4,47.5z"/>
	<path d="M43.7,40.3c-0.1-0.1-0.3-0.1-0.4-0.1c-0.1,0-0.1,0-0.1,0.1c-0.2,0.3-0.2,0.5-0.2,0.8c0,0.1,0.1,0.1,0.1,0.1
		c0.4,0.1,0.7-0.1,0.8-0.5c0-0.1,0-0.1,0-0.2c0-0.1-0.1-0.2-0.2-0.2c-0.1,0-0.4-0.1-0.5,0.1c-0.1,0.2-0.2,0.4-0.2,0.6
		c0,0.1,0.1,0.2,0.2,0.2c0.3,0,0.6-0.1,0.8-0.2c0.2-0.1,0.1-0.4-0.1-0.5c-0.4-0.4-0.8,0.1-1,0.4C43,41,43,41,43.1,41.1
		c0.3,0.3,0.8,0.2,1.1-0.1c0.1-0.1,0.1-0.1,0.1-0.1c0.2-0.2,0.1-0.5-0.1-0.7c-0.3-0.2-0.6-0.2-0.8-0.1c-0.4,0.2-0.6,0.6-0.5,1
		c0.1,0.1,0.1,0.3,0.2,0.3c0.3,0.2,0.7,0.2,0.9-0.1c0.1-0.2,0.2-0.4,0.1-0.6c0-0.1-0.1-0.1-0.1-0.1c-0.4-0.1-0.7,0-1,0.2
		c-0.1,0.1-0.1,0.2-0.1,0.2c0,0,0,0,0,0.1c0.3,0.4,0.8,0.4,1.2,0.1c0.1-0.1,0-0.2-0.1-0.2c-0.3,0.2-0.6,0.1-0.9-0.1L43,41.3
		c0.2-0.2,0.5-0.2,0.8-0.2C43.7,41,43.7,41,43.7,41c0,0.2-0.1,0.3-0.3,0.4c-0.1,0-0.2,0-0.2-0.1c-0.2-0.2-0.2-0.5,0.1-0.6
		c0.1-0.1,0.1-0.1,0.2-0.1c0.2-0.1,0.3-0.1,0.4-0.1c0.2,0.1,0.1,0.3,0.1,0.4c-0.2,0.2-0.4,0.2-0.6,0.1v0.2c0.1-0.1,0.2-0.2,0.2-0.3
		c0.1-0.1,0.5-0.2,0.4,0.1l0.1-0.1c-0.2,0.1-0.5,0.2-0.7,0.1l0.2,0.2c0-0.2,0-0.3,0.1-0.4l-0.1,0.1h0.4l-0.2-0.2
		c0,0.2-0.2,0.4-0.3,0.4c-0.1,0-0.1,0-0.1,0l0.1,0.2c-0.1-0.2,0-0.5,0.1-0.7l-0.1,0.1c0.2,0,0.3-0.1,0.4-0.1
		C43.7,40.4,43.7,40.4,43.7,40.3C43.8,40.4,43.7,40.4,43.7,40.3L43.7,40.3z"/>
	<path d="M30.2,29.6c0.1,0,0.2,0.1,0.3,0.3c0.1,0.2,0.2,0.3,0.3,0.4c0.2,0.3,0.4,0.6,0.5,0.9c0.3,0.6,0.6,1.2,0.9,1.8h0.1
		c0,0,0,0,0-0.1c-0.2-0.6-0.5-1.1-0.8-1.6c-0.4-0.7-0.8-1.3-1.2-2c0-0.1-0.1-0.1-0.1-0.1s0,0-0.1,0.1C30.1,29.5,30.1,29.4,30.2,29.6
		L30.2,29.6L30.2,29.6z"/>
	<path d="M30.7,29.4c0.1,0.3,1.3,2.7,1.4,2.7s0-0.1,0-0.1c0-0.1-0.1,0-0.1,0.1c0,0.1,0,0.1,0,0.1l0.1,0.1h0.1h0.1
		c0.1,0,0.1-0.1,0.1-0.1c0.1-0.4-0.4-0.8-0.5-1.1c-0.3-0.5-0.6-1.1-0.9-1.6C30.7,29.4,30.6,29.4,30.7,29.4L30.7,29.4z"/>
	<path d="M31.1,29.6c0.2,0.3,0.4,0.5,0.5,0.8c0.2,0.3,0.3,0.6,0.5,0.8h0.1C32,30.5,31.7,30,31.1,29.6C31.1,29.6,31.1,29.6,31.1,29.6
		L31.1,29.6L31.1,29.6z"/>
	<path d="M31.8,29.7c0.1,0.2,0.3,0.4,0.4,0.6c0.1,0.2,0.2,0.3,0.4,0.5c0.1,0,0.1,0,0.1-0.1c-0.1-0.2-0.2-0.4-0.3-0.5
		c-0.1-0.2-0.3-0.4-0.4-0.5C31.8,29.6,31.8,29.7,31.8,29.7L31.8,29.7z"/>
	<path d="M32.2,29.5c0.1,0.2,0.2,0.4,0.3,0.6c0.1,0.2,0.2,0.4,0.4,0.5c0.1,0,0.1,0,0.1-0.1l0,0c-0.1-0.2-0.1-0.4-0.2-0.5
		c-0.1-0.2-0.3-0.5-0.4-0.7C32.2,29.4,32.1,29.4,32.2,29.5z"/>
	<path d="M32.7,30.2c-0.2,0.3-0.3,0.6-0.4,0.9c-0.1,0.3-0.2,0.6-0.2,0.9c0,0.1,0,0.1,0.1,0.1c0,0,0.1,0,0.1-0.1
		c0.2-0.3,0.3-0.6,0.4-0.9c0.1-0.3,0.2-0.6,0.2-0.9C32.8,30.2,32.7,30.2,32.7,30.2L32.7,30.2z"/>
	<path d="M32.6,30.4c-0.4,0.8-0.6,1.7-0.6,2.5c0,0.1,0.1,0.1,0.1,0.1s0.1,0,0.1-0.1c0.1-0.4,0.2-0.8,0.2-1.2
		C32.4,31.3,32.5,30.8,32.6,30.4C32.7,30.4,32.6,30.4,32.6,30.4L32.6,30.4z"/>
	<path d="M32.1,30.9c-0.2,0.8-0.2,1.6,0.1,2.4c0,0.1,0,0.1,0.1,0.1s0.1,0,0.1-0.1c0.1-0.8-0.1-1.6-0.1-2.4
		C32.2,30.9,32.1,30.9,32.1,30.9L32.1,30.9z"/>
	<path d="M31.9,32.6c0.2,0.4,0.3,0.7,0.4,1c0.1,0.4,0.3,0.7,0.5,1c0.1,0.1,0.1,0,0.1-0.1c-0.1-0.3-0.2-0.6-0.4-0.9
		c-0.2-0.4-0.4-0.7-0.6-1.1C32,32.6,31.9,32.6,31.9,32.6L31.9,32.6z"/>
	<path d="M32.1,33c0.4,0.9,1,2.1,1.8,2.7c0.1,0,0.1,0,0.1-0.1c-0.3-0.5-0.6-0.9-0.9-1.3C32.7,33.9,32.4,33.4,32.1,33
		C32.2,32.9,32.1,32.9,32.1,33z"/>
	<path d="M32.2,33.7c0.3,0.5,0.7,1,1.1,1.4c0.4,0.5,0.8,0.9,1.3,1.2c0.1,0,0.1,0,0.1-0.1c-0.4-0.4-0.7-0.8-1.1-1.1
		C33.1,34.7,32.6,34.2,32.2,33.7C32.2,33.7,32.2,33.7,32.2,33.7L32.2,33.7z"/>
	<path d="M32.8,34.8c0.5,0.5,1,0.9,1.6,1.3c0.5,0.5,1.1,0.9,1.7,1.2h0.1v-0.1c-0.4-0.4-0.9-0.8-1.4-1.2
		C34.1,35.6,33.5,35.1,32.8,34.8C32.8,34.7,32.7,34.7,32.8,34.8z"/>
	<path d="M33.9,35.5c0.4,0.4,0.8,0.7,1.2,1c0.5,0.5,1.1,0.8,1.7,1.2c0.1,0,0.1,0,0.1-0.1v-0.1c-0.4-0.4-0.8-0.7-1.3-1
		c-0.5-0.4-1.1-0.8-1.7-1.2C33.9,35.5,33.9,35.5,33.9,35.5C33.9,35.5,33.9,35.5,33.9,35.5z"/>
	<path d="M34.3,35.6L34.3,35.6C34.3,35.6,34.3,35.6,34.3,35.6c0-0.1-0.1-0.1-0.1-0.1l0,0c0,0.4,0.7,0.7,0.9,0.9c0.6,0.5,1.3,1,2,1.4
		c0.1,0,0.1-0.1,0.1-0.1c-0.5-0.4-0.9-0.8-1.4-1.1C35.2,36.4,34.7,36,34.3,35.6C34.2,35.6,34.3,35.7,34.3,35.6L34.3,35.6z"/>
	<path d="M34.4,36.1c0.5,0.5,1,0.9,1.6,1.2c0.6,0.5,1.2,0.9,1.9,1.2c0.1,0,0.1,0,0.1-0.1v-0.1c-0.5-0.4-1.1-0.8-1.7-1.1
		c-0.6-0.4-1.2-0.9-1.8-1.3C34.4,36.1,34.4,36.1,34.4,36.1L34.4,36.1z"/>
	<path d="M35.7,37c0.5,0.3,0.9,0.6,1.3,0.9c0.5,0.4,1,0.7,1.5,1c0.1,0,0.1,0,0.1-0.1v-0.1c-0.4-0.4-0.8-0.7-1.3-1
		C36.8,37.4,36.3,37.1,35.7,37C35.6,36.9,35.6,36.9,35.7,37C35.7,37,35.7,37,35.7,37z"/>
	<path d="M36.5,37.2c0.5,0.4,1,0.7,1.5,1.1c0.6,0.5,1.2,0.9,1.9,1.2c0.1,0.1,0.2-0.1,0.1-0.1c-0.5-0.4-0.9-0.7-1.5-1
		C37.9,37.9,37.3,37.5,36.5,37.2C36.5,37.1,36.5,37.1,36.5,37.2C36.5,37.2,36.5,37.2,36.5,37.2L36.5,37.2z"/>
	<path d="M38.1,38.1c0.4,0.3,0.7,0.5,1.1,0.8c0.4,0.3,0.8,0.6,1.3,0.8c0.1,0,0.1-0.1,0.1-0.1c-0.3-0.3-0.7-0.6-1.1-0.8
		C39,38.6,38.5,38.3,38.1,38.1C38.2,38,38.1,38.1,38.1,38.1z"/>
	<path d="M47.2,37.4c-0.2,0.3-0.4,0.7-0.5,1c-0.2,0.4-0.4,0.9-0.5,1.4c0,0.1,0,0.1,0.1,0.1s0.1,0,0.1-0.1c0.2-0.3,0.3-0.7,0.4-1
		C47,38.4,47.1,37.9,47.2,37.4C47.3,37.4,47.3,37.4,47.2,37.4C47.3,37.4,47.2,37.4,47.2,37.4L47.2,37.4z"/>
	<path d="M47.3,37c-0.6,0.8-1.1,1.8-1.2,2.9c0,0,0.1,0.1,0.1,0l0,0C46.4,38.9,46.8,38,47.3,37C47.4,37,47.3,37,47.3,37L47.3,37z"/>
	<path d="M45.2,40.5c1.8-2.5,3.1-5.3,4.8-7.9c1-1.5,2.5-2.1,4.1-2.6s3.2-1,4.8-1.6c0.1-0.1,0.1-0.3-0.1-0.2
		c-2.7,0.9-6.1,1.5-8.2,3.5c-1.1,1-1.9,2.6-2.6,3.9C47,37.1,46,38.7,45.2,40.5C45.2,40.5,45.2,40.5,45.2,40.5z"/>
	<path d="M56.7,29.1c-0.2,0.5-0.4,0.9-0.5,1.4c0,0.1,0.1,0.1,0.1,0.1C56.5,30,56.6,29.6,56.7,29.1C56.8,29.1,56.7,29,56.7,29.1
		L56.7,29.1z"/>
	<path d="M57.7,28.7c-0.3,0.4-0.4,0.9-0.6,1.3c-0.1,0.2-0.4,0.6-0.3,0.8c0,0,0.1,0.1,0.1,0.1H57c0,0,0.1,0,0.1-0.1v-0.1
		c0-0.1,0-0.1-0.1-0.1l0,0l0,0v0.1l0,0c0,0,0.3-0.5,0.3-0.5l0.3-0.6c0.2-0.3,0.3-0.6,0.4-0.9C57.8,28.7,57.8,28.7,57.7,28.7
		L57.7,28.7z"/>
	<path d="M58.4,28.6c-0.3,0.5-0.6,1.1-0.9,1.7c-0.3,0.5-0.5,1-0.7,1.5v0.1h0.1c0.3-0.5,0.6-0.9,0.8-1.5c0.3-0.6,0.6-1.1,0.9-1.7
		v-0.1C58.5,28.6,58.5,28.6,58.4,28.6z"/>
	<path d="M50.4,32.2c-0.2,0.4-0.4,0.8-0.6,1.2c0,0.1,0.1,0.1,0.1,0.1C50,33.1,50.2,32.6,50.4,32.2C50.4,32.2,50.4,32.1,50.4,32.2
		L50.4,32.2z"/>
	<path d="M50,32.5c-0.1,0.3-0.2,0.6-0.3,0.9c-0.1,0.3-0.2,0.5-0.2,0.8c0,0,0,0.1,0.1,0.1h0.1c0.1-0.3,0.2-0.5,0.2-0.8
		C50,33.1,50,32.8,50,32.5C50.1,32.4,50,32.4,50,32.5L50,32.5z"/>
	<path d="M49.5,32.8c-0.2,0.6-0.3,1.1-0.4,1.8c0,0,0,0.1,0.1,0.1s0.1,0,0.1-0.1C49.4,34,49.6,33.4,49.5,32.8
		C49.6,32.8,49.5,32.8,49.5,32.8L49.5,32.8z"/>
	<path d="M49.1,33.8c-0.3,0.3-0.4,0.7-0.4,1.1h0.1l0,0C49,34.6,49.1,34.2,49.1,33.8C49.2,33.8,49.2,33.7,49.1,33.8L49.1,33.8z"/>
	<path d="M48.8,34.2c-0.2,0.4-0.3,0.9-0.4,1.3c0,0.1,0,0.1,0.1,0.1c0.1,0,0.1,0,0.1-0.1v-0.1c0-0.1,0.1-0.3,0.1-0.4 M48.5,35.1
		c-0.1,0.1-0.1,0.3-0.2,0.4l0.2,0.1c0.2-0.5,0.3-0.9,0.4-1.3c0-0.1-0.1-0.1-0.1-0.1s-0.1,0-0.1,0.1L48.5,35.1z"/>
	<path d="M48.5,35c-0.1,0.2-0.1,0.3-0.2,0.4c-0.1,0.1-0.1,0.1-0.1,0.2c0,0.1,0,0,0,0c0.1-0.1,0.1,0.1,0.1,0c-0.1-0.1,0-0.1,0-0.1
		c0-0.1-0.1,0-0.1,0s-0.1,0.2,0,0.2c0,0,0.1,0,0.1,0l0,0h0.1l0.1-0.1c0.1-0.2,0.1-0.4,0.2-0.6C48.6,35,48.5,35,48.5,35L48.5,35z"/>
	<path d="M48.5,35c-0.2,0.2-0.4,0.5-0.5,0.7l0.1,0.1l0.1-0.4c0-0.1-0.1-0.1-0.1-0.1c-0.3,0.5-0.4,1-0.5,1.5c0,0.1,0.2,0.2,0.2,0.1
		c0.1-0.5,0.3-1,0.5-1.5l-0.1-0.1L48,35.8c-0.1,0.1,0.1,0.1,0.2,0.1C48.2,35.6,48.4,35.3,48.5,35C48.6,35,48.6,35,48.5,35L48.5,35z"
		/>
	<path d="M51,31.7c-0.5,0.5-0.9,1.2-1,1.9c0,0.1,0.1,0.1,0.1,0c0.2-0.3,0.3-0.6,0.4-0.9C50.6,32.4,50.8,32,51,31.7
		C51.1,31.7,51.1,31.7,51,31.7C51,31.7,51,31.7,51,31.7L51,31.7z"/>
	<path d="M51.6,31.2c-0.2,0.4-0.3,0.7-0.5,1.1c-0.1,0.1-0.4,0.9-0.5,0.9c0,0,0,0,0-0.1l0,0l0,0h-0.1c-0.1,0.1-0.1,0.1,0,0.1
		c0,0,0,0.1,0.1,0.1c0.3,0,0.4-0.5,0.5-0.7c0.2-0.5,0.4-0.9,0.6-1.4C51.8,31.2,51.7,31.2,51.6,31.2L51.6,31.2z"/>
	<path d="M52.3,30.7c-0.2,0.3-0.4,0.6-0.6,0.9c-0.2,0.3-0.4,0.6-0.5,0.9c0,0,0,0.1,0.1,0.1c0,0,0,0,0.1,0c0.2-0.2,0.4-0.5,0.5-0.7
		c0.2-0.4,0.4-0.8,0.6-1.1C52.3,30.7,52.3,30.7,52.3,30.7L52.3,30.7L52.3,30.7z"/>
	<path d="M52.9,30.3c-0.4,0.6-0.8,1.3-1.1,2l0.2,0.1l0.1-0.4c0-0.1-0.1-0.1-0.1-0.1c-0.1,0.1-0.1,0.2-0.2,0.4
		c-0.1,0.2,0.1,0.2,0.2,0.1c0.4-0.7,0.8-1.3,1-2C53,30.3,53,30.3,52.9,30.3C52.9,30.3,52.9,30.3,52.9,30.3L52.9,30.3z"/>
	<path d="M53.7,29.7c-0.5,0.6-0.8,1.2-1,1.9c-0.1,0.1,0.2,0.2,0.2,0.1c0.1-0.2,0.2-0.4,0.3-0.5c0-0.1-0.1-0.1-0.1-0.1
		c-0.2,0.2-0.3,0.3-0.4,0.5l0.2,0.1c0.3-0.6,0.6-1.3,0.9-1.9C53.8,29.7,53.8,29.6,53.7,29.7L53.7,29.7z"/>
	<path d="M54.3,29.6c-0.3,0.4-0.5,0.7-0.7,1.1c-0.1,0.2-0.4,0.6-0.3,0.8c0,0.1,0.1,0.1,0.1,0.1h0.1c0.1,0,0.1,0,0.1-0.1v-0.1
		c0-0.1,0-0.1-0.1-0.1l0,0c-0.1,0-0.1,0-0.1,0.1c0,0,0,0,0,0.1c0,0.1,0.3-0.4,0.3-0.4l0.3-0.5c0.2-0.3,0.3-0.5,0.4-0.8
		C54.4,29.6,54.3,29.6,54.3,29.6L54.3,29.6z"/>
	<path d="M55.1,29.3c-0.2,0.3-0.4,0.6-0.5,0.8c-0.2,0.3-0.3,0.5-0.4,0.8c0,0.1,0,0.1,0.1,0.1c0,0,0,0,0.1,0c0.3-0.2,0.4-0.5,0.5-0.7
		c0.2-0.3,0.3-0.6,0.4-0.9C55.2,29.3,55.1,29.2,55.1,29.3L55.1,29.3z"/>
	<path d="M55.4,29.4c-0.4,0.5-0.6,1-0.7,1.6c0,0.1,0.2,0.2,0.2,0.1c0.1-0.2,0.2-0.4,0.2-0.5c0-0.1-0.1-0.1-0.1-0.1
		c-0.1,0.2-0.2,0.3-0.3,0.5l0.2,0.1C55.1,30.5,55.3,30,55.4,29.4C55.5,29.5,55.5,29.5,55.4,29.4C55.5,29.5,55.4,29.5,55.4,29.4
		L55.4,29.4z"/>
	<path d="M56.1,29.2c-0.3,0.5-0.5,1-0.8,1.5c-0.1,0.1,0.1,0.3,0.2,0.2c0.1-0.2,0.2-0.3,0.3-0.4c0-0.1,0-0.1,0-0.1h-0.1
		c-0.2,0.1-0.3,0.2-0.5,0.3l0.2,0.2c0.4-0.5,0.6-1,0.7-1.6C56.2,29.1,56.2,29.1,56.1,29.2z"/>
	<path d="M56.3,29.4c0,0-0.4,1-0.5,1.1s0.2,0.2,0.3,0.1c0.1-0.2,0.2-0.4,0.1-0.6L56.2,30c0,0,0,0-0.1,0.1c-0.1,0.2-0.1,0.3-0.2,0.4
		l0.2,0.1c0.1-0.2,0.2-0.5,0.3-0.7c0.1-0.2,0.1-0.4,0.1-0.5C56.5,29.2,56.3,29.3,56.3,29.4c-0.1,0.1-0.1,0.1-0.1,0.1l0,0
		C56.3,29.4,56.3,29.4,56.3,29.4L56.3,29.4z"/>
	<path d="M56.5,29.2c-0.1,0.1-0.1,0.3-0.2,0.4L56.3,30c-0.1,0.2-0.2,0.4-0.2,0.7c0,0.1,0.1,0.1,0.1,0.1c0,0,0,0,0.1,0
		c0.2-0.2,0.3-0.5,0.4-0.7c0.1-0.2,0.2-0.5,0.2-0.7c-0.1-0.2-0.5-0.1-0.4,0.1C56.4,29.5,56.6,29.3,56.5,29.2z"/>
	<path d="M55.8,30.2c-4.7,0.4-8.6,5.9-10.1,9.9c0,0.1,0.1,0.1,0.1,0.1c1.4-2,2.4-4.1,4-6c1.6-1.9,3.6-3,6-3.8
		C55.8,30.3,55.8,30.2,55.8,30.2L55.8,30.2z"/>
	<path d="M56.4,30.6c0.1,0.2,0.2,0.4,0.3,0.7c0.1,0.3,0,0.5,0.1,0.7c0,0.1,0.1,0.1,0.1,0.1h0.1c0.4-0.5,0.1-1.1-0.3-1.5
		C56.4,30.5,56.3,30.5,56.4,30.6z"/>
	<path d="M56.6,30.5c0-0.1,0-0.1,0.1-0.1l-0.2-0.1c0.1,0.3,0.2,0.5,0.3,0.8c0.1,0.3,0.1,0.6,0.3,0.8c0,0.1,0.1,0.1,0.1,0.1
		c0,0,0.1,0,0.1-0.1c0.1-0.6-0.1-1.2-0.4-1.7c-0.1-0.1-0.1-0.1-0.2-0.1c-0.1,0.1-0.2,0.2-0.1,0.3C56.5,30.5,56.5,30.6,56.6,30.5
		L56.6,30.5z"/>
	<path d="M56.7,30.4c0.2,0.3,0.3,0.5,0.4,0.8c0.1,0.3-0.1,0.5,0,0.8c0,0.1,0.1,0.1,0.1,0.1l0,0c0.2-0.3,0.2-0.6,0.1-0.9
		C57.1,30.8,57,30.5,56.7,30.4C56.7,30.3,56.6,30.3,56.7,30.4L56.7,30.4z"/>
	<path d="M58.3,28.2c-0.1,0.6-0.1,1.2,0,1.8c0,0.1,0.1,0.1,0.1,0.1s0.1,0,0.1-0.1c0.1-0.6,0.1-1.2,0-1.8
		C58.4,28.2,58.4,28.2,58.3,28.2C58.3,28.2,58.3,28.2,58.3,28.2L58.3,28.2z"/>
	<path d="M58.4,28.5c-0.1,0.7-0.2,1.3-0.1,2c0,0.1,0,0.1,0.1,0.1s0.1,0,0.1-0.1c0.2-0.7,0.3-1.3,0.2-2
		C58.6,28.4,58.4,28.4,58.4,28.5L58.4,28.5z"/>
	<path d="M58.5,29.4c0.1,0.2,0.1,0.4-0.1,0.6v0.1h0.1c0.1-0.1,0.2-0.2,0.2-0.3C58.7,29.7,58.6,29.5,58.5,29.4
		C58.5,29.4,58.5,29.4,58.5,29.4z"/>
	<path d="M31.9,49.7c-0.5,1.3-0.8,2.6-0.9,4c0,0.1,0.1,0.1,0.1,0.1s0.1-0.1,0.1-0.1c0.4-1.3,0.6-2.6,0.8-4c0-0.1,0-0.1-0.1-0.1
		C31.9,49.6,31.9,49.6,31.9,49.7L31.9,49.7L31.9,49.7z"/>
	<path d="M31.8,50.5c-0.7,1-1.5,2.7-1.3,4c0,0.1,0.2,0.1,0.2,0c0.3-0.6,0.3-1.3,0.5-1.9c0.2-0.7,0.5-1.4,0.8-2.1
		c0-0.1,0-0.1-0.1-0.1C31.9,50.4,31.8,50.4,31.8,50.5L31.8,50.5z"/>
	<path d="M31.2,52.4c-0.2,0.3-0.4,0.6-0.5,0.9c-0.1,0.3-0.3,0.6-0.1,0.9c0,0.1,0.1,0.1,0.1,0l0,0c0.2-0.2,0.2-0.5,0.3-0.7
		c0.1-0.4,0.2-0.7,0.4-1C31.3,52.4,31.2,52.4,31.2,52.4L31.2,52.4z"/>
	<path d="M32.5,48.8c-0.5,0.7-0.8,1.5-1.1,2.3l0.3,0.1c0.1-0.2,0.2-0.5,0.2-0.7l0.1-0.3c0-0.1,0.2-0.6,0.2-0.6s-0.1,0.1,0,0.1l0,0
		h0.1c0.1,0,0.1,0,0.1,0c0.1-0.1,0.1-0.2,0-0.2c-0.1-0.1-0.1-0.1-0.2-0.1c-0.2,0.1-0.3,0.4-0.4,0.6c-0.2,0.4-0.3,0.8-0.4,1.1
		c-0.1,0.2,0.2,0.3,0.3,0.1C32.1,50.5,32.4,49.7,32.5,48.8C32.6,48.9,32.6,48.8,32.5,48.8C32.6,48.8,32.5,48.8,32.5,48.8L32.5,48.8z
		"/>
	<path d="M37.8,45.7c-0.2,0.3-0.3,0.7-0.4,1c-0.2,0.4-0.2,0.7-0.2,1.1c0,0,0,0,0.1,0l0,0c0.1-0.3,0.2-0.6,0.3-0.9
		C37.6,46.5,37.7,46.1,37.8,45.7C37.8,45.7,37.8,45.7,37.8,45.7L37.8,45.7z"/>
	<path d="M38.2,45.3c-0.2,0.6-0.4,1.3-0.4,2c0,0,0,0,0.1,0l0,0C38.1,46.6,38.2,46,38.2,45.3C38.3,45.3,38.2,45.3,38.2,45.3
		L38.2,45.3z"/>
	<path d="M38.9,44.9c-0.2,0.6-0.4,1.2-0.5,1.9c0,0.1,0.1,0.1,0.1,0C38.7,46.2,38.9,45.5,38.9,44.9C38.9,44.9,38.9,44.9,38.9,44.9
		L38.9,44.9z"/>
	<path d="M39.5,44.6c-0.1,0.1-0.1,0.3-0.1,0.4c-0.1,0.2-0.1,0.3,0,0.5c0,0,0.1,0.1,0.1,0c0.1-0.2,0.1-0.3,0.1-0.4
		C39.6,44.9,39.6,44.8,39.5,44.6L39.5,44.6L39.5,44.6z"/>
	<path d="M40.3,44.1c-0.2,0.4-0.3,0.8-0.2,1.1c0,0,0,0.1,0.1,0.1c0,0,0.1,0,0.1-0.1c0-0.2,0-0.3,0-0.5c0.1-0.2,0.1-0.4,0.2-0.6
		C40.4,44.1,40.4,44.1,40.3,44.1L40.3,44.1z"/>
	<path d="M41.1,43.6c-0.1,0.3-0.2,0.7-0.2,1c0,0,0,0,0.1,0l0,0C41.1,44.3,41.1,44,41.1,43.6C41.1,43.6,41.1,43.6,41.1,43.6
		L41.1,43.6z"/>
	<path d="M41.6,43.5c0.1,0.2,0.1,0.3,0,0.4c-0.1,0.1-0.1,0.2-0.1,0.3c0,0.1,0.1,0.1,0.1,0.1C41.7,44.2,41.7,43.7,41.6,43.5
		L41.6,43.5z"/>
	<path d="M41.3,44.5c-0.4,0.3-0.7,0.7-1.1,1s-0.9,0.7-1.2,1.1c0,0-0.1,0.1,0,0.1c0,0,0.1,0.1,0.1,0c0.5-0.3,0.8-0.6,1.2-0.9
		C40.6,45.3,41,44.9,41.3,44.5C41.3,44.5,41.3,44.5,41.3,44.5L41.3,44.5z"/>
	<path d="M41.2,45.1c-0.5,0.5-1,1-1.5,1.6c-0.4,0.5-0.9,0.9-1.3,1.5c-0.1,0.1,0.1,0.2,0.1,0.1c0.5-0.5,1-1.1,1.5-1.6
		C40.4,46.2,40.8,45.7,41.2,45.1C41.2,45.1,41.2,45.1,41.2,45.1L41.2,45.1z"/>
	<path d="M40.1,46.5c-1.1,0.9-2.2,1.9-3.1,3v0.1H37C38.1,48.7,39.2,47.6,40.1,46.5L40.1,46.5L40.1,46.5z"/>
	<path d="M49.1,49.8c0.4,0.4,0.7,0.8,1,1.3c0,0,0.1,0,0,0C49.8,50.5,49.5,50.1,49.1,49.8C49.1,49.7,49,49.7,49.1,49.8L49.1,49.8z"/>
	<path d="M48.6,47.8c0.3,1.2,0.9,2.4,1.6,3.4h0.1c0,0,0,0,0-0.1c-0.2-0.5-0.5-1-0.8-1.5C49.2,49,49,48.4,48.6,47.8
		C48.6,47.7,48.6,47.7,48.6,47.8L48.6,47.8z"/>
	<path d="M48.3,48c0.4,1.3,1.1,2.4,2.1,3.4h0.1v-0.1c-0.3-0.5-0.7-1-1.1-1.6C49.1,49.3,48.7,48.6,48.3,48C48.4,48,48.4,48,48.3,48
		C48.3,48,48.3,48,48.3,48L48.3,48z"/>
	<path d="M49,48.9c0.6,1.1,1.3,2.1,2.1,3.1c0.1,0.1,0.1,0,0.1-0.1c-0.6-1.1-1.3-2.1-2.1-3.1C49,48.8,49,48.9,49,48.9L49,48.9z"/>
	<path d="M49.5,49.3c0.3,0.5,0.6,0.9,0.9,1.4c0.3,0.5,0.7,0.9,1,1.3h0.1V52c-0.3-0.5-0.6-0.9-0.9-1.3C50.3,50.1,49.9,49.7,49.5,49.3
		C49.5,49.3,49.5,49.3,49.5,49.3L49.5,49.3z"/>
	<path d="M50.2,49.9c0.4,0.9,1,1.7,1.7,2.4c0.1,0.1,0.1,0,0.1-0.1C51.4,51.4,50.8,50.6,50.2,49.9C50.2,49.8,50.1,49.9,50.2,49.9z"/>
	<path d="M50.7,51.3c0.5,0.9,1.2,1.6,2,2.1c0.1,0,0.1-0.1,0.1-0.1c-0.4-0.4-0.7-0.7-1-1C51.4,52.1,51.1,51.6,50.7,51.3
		C50.8,51.3,50.7,51.3,50.7,51.3L50.7,51.3z"/>
	<path d="M51.2,52c0.4,0.5,1,0.9,1.6,1.2c0.1,0,0.1-0.1,0.1-0.1C52.3,52.8,51.8,52.4,51.2,52L51.2,52z"/>
	<path d="M41.4,52.9c0.1,0.1,0.3,0.2,0.4,0.1l0,0c0-0.1,0-0.3,0-0.4c0,0,0,0,0-0.1c-0.1-0.1-0.2-0.1-0.3,0.1
		c-0.1,0.1-0.2,0.2-0.2,0.4h0.1l0,0c0.1-0.1,0.1-0.4,0.4-0.4v-0.1c0,0.1,0,0.4,0,0.4C41.7,53,41.6,53,41.4,52.9L41.4,52.9L41.4,52.9
		z"/>
	<path d="M36.3,106.4c-0.2-4.6,0.1-9.2-0.9-13.7c-1-4.4-3.3-7.9-5.8-11.6c-4.7-6.8-8.5-14.2-11.5-22c-5.4-14.1-6.6-31.1,3.6-43.4
		c0.4-0.5,1.1,0.2,0.7,0.7c-11.2,14-7.8,32.8-0.9,47.9c3.4,7.3,7.9,13.6,11.9,20.4c3.8,6.4,4,14.4,3.2,21.6c0,0.1-0.1,0.2-0.2,0.1
		C36.4,106.5,36.3,106.4,36.3,106.4L36.3,106.4z"/>
	<path d="M49.1,105.7c-0.7-7.1-0.6-14.9,3-21.2c1.9-3.3,4.3-6.4,6.3-9.6c2.2-3.6,4.1-7.3,5.9-11.1c6.9-15.1,10.3-33.9-0.9-47.9
		c-0.4-0.5,0.3-1.2,0.7-0.7c10.2,12.3,9,29.3,3.6,43.4c-3,7.8-6.8,15.1-11.6,22c-2.5,3.7-4.8,7.1-5.8,11.6c-1,4.6-0.8,9.1-0.9,13.7
		c0,0.1-0.1,0.2-0.2,0.2C49.1,105.9,49.1,105.8,49.1,105.7L49.1,105.7z"/>
	<path d="M22.4,16.2c0-0.3-0.1-0.4,0-0.6c0.1-0.1,0.1-0.1,0.2-0.1c0,0,0.1,0,0.1,0.1c0.2,0.2,0,0.4,0,0.6c0,0.1-0.1,0.1-0.1,0.1
		C22.4,16.3,22.4,16.2,22.4,16.2L22.4,16.2z"/>
	<path d="M21.1,17.6c0.1-0.3,0.1-0.7,0.3-1c0.2-0.4,0.4-0.7,0.6-1c0.4-0.6,0.9-1,1.4-1.5c0.1-0.1,0.1,0.1,0.1,0.1
		C22.6,15.3,21.8,16.4,21.1,17.6C21.1,17.6,21.1,17.6,21.1,17.6S21.1,17.5,21.1,17.6L21.1,17.6z"/>
	<path d="M21.6,16.4c4.8-7.9,16-11,24.7-9.8s17.2,5.9,21.3,13.9c0.2,0.4-0.4,0.7-0.6,0.3c-4-7.7-12.5-11.8-20.8-13
		c-4.2-0.6-8.6-0.2-12.7,1.3c-4.5,1.6-7.8,4.5-11.4,7.6C21.8,16.9,21.4,16.7,21.6,16.4z"/>
	<path d="M48.5,121.2c-0.2-8-0.4-16.2-0.2-24.2c0-0.2,0.3-0.3,0.4-0.1c0.7,3.7,0.5,7.6,0.5,11.3c-0.1,4.3,0,8.6-0.3,12.9
		c0,0.1-0.1,0.2-0.2,0.2C48.6,121.4,48.5,121.3,48.5,121.2z"/>
	<path d="M48.6,96.5c0.1-0.8,0.2-1.9,0.5-2.6c0.1-0.1,0.1-0.1,0.1,0l0.1,0.1c0.1,0.8-0.4,1.8-0.6,2.6c0,0,0,0.1-0.1,0.1
		C48.6,96.6,48.6,96.5,48.6,96.5L48.6,96.5z"/>
	<path d="M48.5,99.1c-0.1-3,0.5-5.9,1.6-8.6c0.1-0.1,0.2,0,0.2,0.1c-0.7,2.8-1.2,5.7-1.6,8.6c0,0.1-0.1,0.1-0.1,0.1
		S48.5,99.2,48.5,99.1L48.5,99.1z"/>
	<path d="M51.1,79.7c-4.7,1.1-9.9,1.8-14.4-0.6c-3.9-2-7.5-5.9-9.5-9.7c-0.1-0.1-0.1-0.1,0-0.2c0.1-0.1,0.1-0.1,0.2,0
		c3,2.9,5,6.4,8.6,8.7c4.8,3,9.8,2.1,15.1,1.3C51.2,79.3,51.3,79.6,51.1,79.7L51.1,79.7z"/>
	<path d="M26.3,68.3C23.8,64.8,22.3,60,21,56c-1.5-4.4-2.4-8.9-2.8-13.5c-0.6-7.9,0.8-16.9,5.7-23.3c0.1-0.1,0.2-0.1,0.2,0
		s0.1,0.1,0.1,0.2C20,26.8,18,34.5,18.8,43c0.4,4.4,1.3,8.7,2.7,12.8c1.3,4.2,3.6,8.2,4.9,12.4c0,0.1,0,0.1-0.1,0.1
		C26.3,68.3,26.3,68.3,26.3,68.3L26.3,68.3z"/>
	<path d="M24.4,18.1C28,13,35.2,11,41.2,10.8c6.3-0.2,13.3,1.5,18.1,5.7c0.2,0.2-0.1,0.4-0.2,0.3c-5.3-3.2-10.7-5.4-17-5.4
		c-6.2,0-13.4,1.9-17.4,6.9C24.6,18.5,24.3,18.3,24.4,18.1z"/>
	<path d="M52,77.9c7.2-8.4,12-18.5,13.9-29.4c0.9-5.3,1.1-10.6,0.5-16c-0.4-3.4-1-6.8-2.6-9.8c-1.3-2.4-3.1-4.5-4.8-6.7
		c-0.1-0.1,0.1-0.3,0.2-0.2c4,4.3,6.6,9,7.5,14.8c0.8,5.5,0.8,11.2-0.1,16.7c-1.7,11.4-6.7,22.2-14.5,30.8
		C52.1,78.3,51.9,78.1,52,77.9L52,77.9z"/>
	<path d="M27.7,70.1c0,0.3,0.1,0.6,0.2,0.9c0,0.1,0,0.1-0.1,0.1h-0.1c-0.3-0.3-0.4-0.6-0.3-1C27.6,69.9,27.7,70,27.7,70.1z"/>
	<path d="M27.6,70.3c-0.9-1.8-1.8-3.5-2.5-5.3c0-0.1,0.1-0.1,0.1-0.1c1,1.7,1.8,3.5,2.6,5.2C27.9,70.3,27.6,70.5,27.6,70.3z"/>
	<path d="M28.8,71.6c-1.5-1.6-3.1-4-3.5-6.2c0-0.1,0-0.1,0.1-0.2c0.1,0,0.1,0,0.2,0.1l0,0c0.6,1,1,2.1,1.6,3.1c0.6,1,1.2,2,1.8,3
		C29,71.5,28.9,71.6,28.8,71.6L28.8,71.6z"/>
	<path d="M28.9,71.1c-1.7-1.8-3.4-4.5-3.7-7c0-0.1,0.1-0.2,0.2-0.1c0.6,1.2,1,2.4,1.6,3.6C27.5,68.8,28.2,69.9,28.9,71.1
		C29,71,28.9,71.1,28.9,71.1L28.9,71.1z"/>
	<path d="M27.5,69.1c-1.9-2.6-3.9-6.1-4.3-9.4c0-0.1,0.1-0.1,0.1-0.1s0.1,0,0.1,0.1c1.5,3.1,2.5,6.3,4.2,9.3c0,0.1,0,0.1-0.1,0.1
		C27.5,69.2,27.5,69.1,27.5,69.1L27.5,69.1z"/>
	<path d="M29.3,71.4c-2.4-2.7-4.8-6.6-5.3-10.4c0-0.1,0.1-0.1,0.1-0.1s0.1,0,0.1,0.1c0.8,1.8,1.3,3.6,2.2,5.3
		c0.9,1.7,1.9,3.4,3.1,4.9C29.5,71.3,29.4,71.5,29.3,71.4L29.3,71.4z"/>
	<path d="M29.5,70.6c-2.2-2.7-3.9-6-4.9-9.3c0-0.1,0.1-0.2,0.2-0.2c0.1,0,0.2,0.1,0.2,0.1c1.2,3.3,2.7,6.4,4.7,9.3
		C29.7,70.6,29.6,70.7,29.5,70.6L29.5,70.6z"/>
	<path d="M30,73.4c-2.4-2.1-4.5-5.4-4.9-8.6c0-0.1,0.2-0.1,0.2-0.1c0.5,1.6,1.1,3.1,1.9,4.6c0.8,1.4,1.8,2.7,2.9,4v0.1
		C30,73.4,30,73.4,30,73.4L30,73.4z"/>
	<path d="M24,60.9c-5.8-10.3-7-25.4-1.5-36c0.1-0.1,0.1-0.1,0.2-0.1c0.1,0.1,0.1,0.1,0.1,0.2c-1.9,5.9-3.4,11.4-3.3,17.6
		c0.2,6.5,1.9,12.4,4.6,18.2C24.1,60.9,24,61,24,60.9L24,60.9z"/>
	<path d="M37.9,102.6c0.2-4.2-0.2-8.5-0.9-12.7c0-0.1,0.1-0.2,0.2-0.1C38.1,94,38.5,98.4,37.9,102.6
		C37.9,102.7,37.9,102.6,37.9,102.6L37.9,102.6z"/>
	<path d="M36.4,88.4c-1.2-2.6-2.7-5.1-4.6-7.4c-0.1-0.1,0.1-0.2,0.1-0.1C33.9,83.1,35.4,85.6,36.4,88.4L36.4,88.4L36.4,88.4z"/>
	<path d="M37,88c-0.5-1.8-1.2-3.5-2.2-5.1c-0.1-0.1,0.1-0.2,0.1-0.1C35.9,84.5,36.6,86.2,37,88C37,88.1,37,88.1,37,88L37,88L37,88z"
		/>
	<path d="M37.8,87.8c-0.5-1.3-0.9-2.7-1-4.1c0-0.1,0.1-0.1,0.1,0C37.3,85,37.5,86.5,37.8,87.8C37.9,87.9,37.9,87.9,37.8,87.8
		L37.8,87.8L37.8,87.8z"/>
	<path d="M48.2,89.7c0.8-2.7,2.2-5.1,4-7.3h0.1v0.1C50.8,84.8,49.4,87.2,48.2,89.7L48.2,89.7L48.2,89.7z"/>
	<path d="M47,99.3c0.1-2.5,0.4-5,0.8-7.5c0-0.1,0.1-0.1,0.1-0.1s0.1,0,0.1,0.1C47.6,94.2,47.3,96.8,47,99.3L47,99.3L47,99.3z"/>
	<path d="M39.2,80.1c-4.8-2-10.4-5.5-11.7-10.9c0-0.1,0.1-0.1,0.1-0.1C30,74.7,34.1,77.3,39.2,80.1C39.2,80.1,39.2,80.1,39.2,80.1
		L39.2,80.1z"/>
	<path d="M35.9,9c5-1.1,10.3-1,15.2,0.3c4.1,1.1,8.9,2.9,11.3,6.6c0.1,0.1-0.1,0.2-0.2,0.1c-2.8-3.8-7.8-5.6-12.2-6.6
		C45.4,8.3,40.6,8.3,35.9,9C35.9,9.1,35.9,9.1,35.9,9L35.9,9z"/>
	<path d="M24.7,60.8c-4.2-10.7-4.9-23.3-0.9-34.2c0.1-0.1,0.2-0.1,0.2,0.1c-3.2,11.5-3.3,22.8,0.9,34.1
		C24.9,60.9,24.8,60.9,24.7,60.8L24.7,60.8z"/>
	<g class="st0">
		<path d="M78.4,47.7c0.2-1.1,0.5-2.2,0.7-3.3c0.2-1.1,0.5-2.2,0.7-3.3c0.8-3.9,1.4-7.6,1.9-11.1c-0.2,0-0.5-0.1-0.7-0.1
			s-0.5,0-0.7,0c-0.5,0-1,0-1.4-0.2c0-0.2,0-0.3,0-0.5c0-0.2,0-0.4,0-0.6c0-0.2,0-0.4,0-0.7s0-0.4,0-0.6c0-0.2,0-0.5,0-0.7
			c0-0.3,0-0.5,0-0.8c0.5,0,1.1,0.1,1.6,0.1c0.5,0,1.1,0,1.6,0c1.5,0,2.9-0.1,4.3-0.2c1.4-0.1,2.6-0.2,3.8-0.4L89.9,27l-0.3,1.4
			c-0.1,0.5-0.2,0.9-0.3,1.3c-0.2,0.1-0.4,0.1-0.7,0.2c-0.2,0-0.4,0.1-0.7,0.1c-0.2,0-0.5,0.1-0.7,0.1c-0.2,0-0.5,0.1-0.7,0.1
			c-0.3,1.5-0.6,2.8-0.7,3.9c-0.2,1.1-0.4,2.2-0.5,3.2c-0.2,1-0.3,2.1-0.5,3.3c-0.3,2.1-0.7,4.1-0.9,6.3L78.4,47.7z"/>
		<path d="M92.3,48.2c-0.6,0-1.2-0.1-1.9-0.4c-0.6-0.3-1.2-0.7-1.6-1.2c-0.4-0.5-0.6-1.3-0.6-2.1v-0.2c0-0.1,0-0.2,0-0.2
			c0.1-0.5,0.1-1.2,0.3-2.1c0.1-0.9,0.2-1.8,0.4-2.8c0.2-1,0.3-2,0.5-3c0.2-1,0.3-1.9,0.5-2.7c0.3-1.6,0.6-2.9,0.7-3.9
			c0.2-1,0.3-1.8,0.4-2.3c0.1-0.5,0.2-0.9,0.3-1.2l5-0.5c-0.3,1.2-0.5,2.4-0.7,3.5c-0.2,1.1-0.5,2.2-0.7,3.2l-1.4,6.8
			c-0.1,0.5-0.2,0.9-0.3,1.3c-0.1,0.3-0.2,0.7-0.3,1.2c-0.1,0.5-0.1,1-0.1,1.4c0,0.3,0.1,0.6,0.2,0.8c0.2,0.2,0.4,0.3,0.6,0.3
			c0.3,0,0.6-0.1,0.9-0.4c0.2-0.3,0.4-0.6,0.6-1c0.1-0.4,0.3-0.8,0.3-1.2c0.1-0.4,0.2-0.7,0.2-1c0.2-0.9,0.4-1.8,0.6-2.7
			c0.2-0.9,0.4-1.8,0.6-2.8c0.2-1,0.4-2.1,0.7-3.5c0.2-0.9,0.3-1.8,0.5-2.7c0.2-0.9,0.3-1.9,0.5-2.8l4.6-0.3l-1.1,5.9
			c-0.1,0.8-0.3,1.6-0.5,2.5c-0.2,0.9-0.4,1.9-0.6,2.8c-0.2,1-0.4,1.9-0.6,2.7c-0.2,0.9-0.3,1.6-0.5,2.2c-0.4,1.7-1,3-1.9,3.9
			c-0.9,0.9-1.8,1.6-2.8,2C94.2,48,93.2,48.2,92.3,48.2z"/>
		<path d="M107.2,47.7l4-21.7l9.7-0.8c-0.1,0.4-0.3,0.9-0.4,1.4c-0.1,0.4-0.2,0.8-0.3,1.2c-0.1,0.4-0.2,0.8-0.2,1.1
			c-0.3,0-0.6,0-1.1,0c-0.5,0-1,0-1.5,0c-0.5,0-0.9,0-1.3,0c-0.4,0-0.6,0-0.6,0l-1.1,5.5l1.8-0.1c0.2,0,0.5,0,0.7,0
			c0.2,0,0.5,0,0.7,0c0.2,0,0.4,0,0.6,0c0.2,0,0.3,0,0.4,0c0,0.3-0.1,0.6-0.1,0.8c0,0.3-0.1,0.6-0.1,0.8l-0.3,1.7
			c-0.1,0-0.2,0-0.4,0c-0.2,0-0.4,0-0.6,0c-0.2,0-0.5,0-0.7,0s-0.5,0-0.7,0c-0.3,0-0.5,0-0.8,0c-0.3,0-0.6,0-0.9,0l-1,5.6l4.5-0.7
			l-0.3,3.5L107.2,47.7z"/>
		<path d="M123.1,47.7c-0.8,0-1.6-0.2-2.4-0.7c-0.8-0.4-1.6-1.1-2.4-2.1l2.3-4.4c0.2,0.4,0.6,0.8,1,1.1c0.4,0.3,0.9,0.6,1.4,0.8
			c0.5,0.2,0.9,0.3,1.3,0.3c0.5,0,1-0.2,1.5-0.5c0.5-0.3,0.7-0.8,0.7-1.3c0-0.7-0.3-1.4-1-2c-0.7-0.6-1.4-1.2-2.2-1.7
			c-0.8-0.6-1.5-1.2-2.2-1.9c-0.7-0.7-1-1.6-1-2.5c0-1.1,0.3-2,0.9-2.9c0.6-0.9,1.4-1.7,2.4-2.4c1-0.7,2-1.2,3.1-1.6
			c1.1-0.4,2.2-0.6,3.2-0.6c0.7,0,1.4,0.1,2,0.4c0.6,0.2,1.1,0.6,1.5,1.1c0.4,0.5,0.6,1.2,0.6,2.1c0,0.1,0,0.3,0,0.4
			c0,0.1,0,0.3,0,0.4c0,0.1,0,0.3-0.1,0.4c0,0.2-0.1,0.3-0.1,0.5L129,32c0-0.2,0.1-0.3,0.1-0.5c0-0.2,0-0.3,0-0.5
			c0-0.6-0.1-1.1-0.3-1.3c-0.2-0.3-0.5-0.4-0.8-0.4c-0.2,0-0.4,0.1-0.8,0.3c-0.3,0.2-0.7,0.5-0.9,0.8c-0.3,0.3-0.4,0.7-0.4,1.1
			c0,0.7,0.3,1.2,0.8,1.7c0.6,0.4,1.2,0.9,1.9,1.3c0.3,0.2,0.7,0.5,1.2,1c0.4,0.4,0.8,1,1.1,1.8c0.3,0.7,0.5,1.7,0.5,2.9
			c0,1.5-0.4,2.8-1.1,4c-0.7,1.1-1.7,2-3,2.7C126,47.4,124.6,47.7,123.1,47.7z"/>
		<path d="M131.4,47.7c0.6-2.8,1.2-5.4,1.7-8.1c0.2-1.1,0.5-2.2,0.7-3.4c0.2-1.2,0.5-2.4,0.7-3.7c0.2-1.2,0.5-2.4,0.7-3.5
			c0.2-1.1,0.4-2.1,0.5-2.9c0.8-0.2,1.7-0.5,2.6-0.7c0.9-0.2,1.8-0.3,2.6-0.3c1.2,0,2.2,0.3,2.9,0.8c0.7,0.5,1.2,1.2,1.5,2.1
			c0.3,0.9,0.5,1.8,0.5,2.9c0,1.1-0.2,2.2-0.6,3.3c-0.4,1-1,2-1.7,2.8c-0.7,0.8-1.5,1.5-2.4,2c-0.9,0.5-1.8,0.7-2.8,0.7h-0.3
			c-0.2,0.7-0.3,1.4-0.5,2.3c-0.1,0.8-0.3,1.6-0.4,2.3c-0.1,0.4-0.2,0.8-0.2,1.2c-0.1,0.4-0.1,0.8-0.2,1.2L131.4,47.7z M138.5,36.5
			c0.5-0.1,0.9-0.4,1.4-0.9c0.5-0.5,0.9-1.1,1.2-1.9c0.3-0.8,0.5-1.6,0.5-2.5c0-0.8-0.2-1.3-0.5-1.7c-0.3-0.4-0.7-0.6-1.1-0.6
			c-0.2,1.3-0.4,2.6-0.7,3.8C139,33.8,138.8,35.1,138.5,36.5z"/>
	</g>
	<g class="st0">
		<path d="M144.2,47.7l4-21.7l9.7-0.8c-0.1,0.4-0.3,0.9-0.4,1.4c-0.1,0.4-0.2,0.8-0.3,1.2c-0.1,0.4-0.2,0.8-0.2,1.1
			c-0.3,0-0.6,0-1.1,0c-0.5,0-1,0-1.5,0c-0.5,0-0.9,0-1.3,0s-0.6,0-0.6,0l-1.1,5.5l1.8-0.1c0.2,0,0.5,0,0.7,0c0.2,0,0.5,0,0.7,0
			c0.2,0,0.4,0,0.6,0c0.2,0,0.3,0,0.4,0c0,0.3-0.1,0.6-0.1,0.8c0,0.3-0.1,0.6-0.1,0.8l-0.3,1.7c-0.1,0-0.2,0-0.4,0
			c-0.2,0-0.4,0-0.6,0c-0.2,0-0.5,0-0.7,0c-0.2,0-0.5,0-0.7,0c-0.3,0-0.5,0-0.8,0s-0.6,0-0.9,0l-1,5.6l4.5-0.7l-0.3,3.5L144.2,47.7z
			"/>
	</g>
	<g class="st0">
		<path d="M160.3,47.7c-1.3,0-2.3-0.6-3.1-1.8c-0.8-1.2-1.2-2.9-1.2-5c0-1.9,0.3-3.8,0.8-5.7c0.5-1.9,1.3-3.5,2.2-5
			c1-1.5,2.1-2.7,3.4-3.6c1.3-0.9,2.8-1.4,4.4-1.4c1,0,1.9,0.4,2.6,1.2c0.7,0.8,1.1,1.8,1.1,3.1V30c0,0.1,0,0.2,0,0.2
			c0,0.1,0,0.1,0,0.2l-4,1.1c-0.2-0.5-0.5-0.8-0.9-0.8c-0.5,0-1,0.4-1.5,1.2c-0.5,0.8-1.1,1.7-1.5,2.8c-0.3,0.7-0.6,1.5-0.9,2.3
			c-0.3,0.8-0.5,1.5-0.6,2.2c-0.1,0.7-0.2,1.2-0.2,1.7c0,0.6,0.1,1.1,0.3,1.4c0.1,0.3,0.4,0.4,0.7,0.4s0.6-0.1,1-0.4
			c0.4-0.3,0.7-0.7,1-1.1s0.5-0.9,0.6-1.3l3.5,1.4c-1,2.3-2.2,4-3.6,5S161.5,47.7,160.3,47.7z"/>
		<path d="M167.7,47.6c0.3-1.2,0.7-2.6,1-4.1c0.3-1.5,0.7-3.1,1-4.7c0.3-1.6,0.6-3.1,0.9-4.5c0.3-1.3,0.5-2.6,0.8-4
			c0.2-1.3,0.5-2.7,0.7-4.1l4.8-0.8c-0.3,1.4-0.5,2.7-0.8,4c-0.3,1.3-0.5,2.7-0.8,4c-0.3,1.4-0.6,2.9-0.9,4.5
			c-0.3,1.6-0.6,3.2-0.9,4.7c-0.3,1.5-0.5,3-0.8,4.3c-0.4,0-0.8,0-1.4,0.1c-0.6,0.1-1.1,0.1-1.7,0.2c-0.5,0.1-1,0.1-1.4,0.2
			S167.7,47.6,167.7,47.6z"/>
		<path d="M174.7,47.7l4-21.7l9.7-0.8c-0.1,0.4-0.3,0.9-0.4,1.4c-0.1,0.4-0.2,0.8-0.3,1.2c-0.1,0.4-0.2,0.8-0.2,1.1
			c-0.3,0-0.6,0-1.1,0c-0.5,0-1,0-1.5,0c-0.5,0-0.9,0-1.3,0c-0.4,0-0.6,0-0.6,0l-1.1,5.5l1.8-0.1c0.2,0,0.5,0,0.7,0
			c0.2,0,0.5,0,0.7,0s0.4,0,0.6,0c0.2,0,0.3,0,0.4,0c0,0.3-0.1,0.6-0.1,0.8c0,0.3-0.1,0.6-0.1,0.8l-0.3,1.7c-0.1,0-0.2,0-0.4,0
			c-0.2,0-0.4,0-0.6,0c-0.2,0-0.5,0-0.7,0c-0.2,0-0.5,0-0.7,0c-0.3,0-0.5,0-0.8,0c-0.3,0-0.6,0-0.9,0l-1,5.6l4.5-0.7l-0.3,3.5
			L174.7,47.7z"/>
		<path d="M185.5,47.7l1.6-7.9c0.2-1.5,0.5-3,0.8-4.5c0.3-1.5,0.6-3.1,0.8-4.6c0.3-1.5,0.5-2.9,0.6-4.2c1.2-0.4,2.4-0.6,3.8-0.8
			c1.3-0.2,2.7-0.3,4-0.3c1.5,0,2.6,0.3,3.2,1c0.6,0.7,0.8,1.6,0.8,2.7c0,1-0.2,2.1-0.7,3.1c-0.5,1-1.1,2-1.9,2.8
			c-0.8,0.8-1.6,1.5-2.6,2c0.4,0.8,0.8,1.7,1.2,2.7c0.4,1,0.8,1.9,1.2,2.8c0.2,0.5,0.4,1,0.6,1.5c0.2,0.5,0.4,1,0.6,1.5l-4.7,1.6
			c-0.2-0.7-0.4-1.4-0.6-2c-0.2-0.7-0.4-1.3-0.5-1.9c-0.2-0.8-0.4-1.5-0.6-2.2c-0.2-0.7-0.3-1.3-0.5-1.9c-0.1-0.6-0.2-0.9-0.2-1.2
			l-0.4,0.1c-0.1,0.7-0.3,1.4-0.4,2.4c-0.2,0.9-0.3,1.8-0.5,2.7l-0.6,3.2L185.5,47.7z M192.7,34.4c0.4,0,0.8-0.2,1.4-0.5
			c0.5-0.3,1.1-0.6,1.6-1c0.5-0.4,1-0.8,1.4-1.3c0.4-0.4,0.5-0.8,0.5-1.1c0-0.4-0.2-0.7-0.7-0.8c-0.5-0.1-1.1-0.2-1.9-0.2h-0.7
			c-0.1,0-0.2,0-0.3,0c-0.1,0-0.2,0-0.3,0L192.7,34.4z"/>
		<path d="M207.3,47.6c0-0.3,0.1-0.7,0.1-1c0-0.3,0.1-0.7,0.1-1l0.2-1.7c0-0.3,0-0.6,0.1-0.8s0-0.5,0.1-0.7h-2.7l-1.2,4.4
			c-0.4,0.1-1,0.1-1.6,0.2c-0.6,0.1-1.2,0.1-1.7,0.2c-0.3,0-0.6,0.1-1,0.1c-0.3,0-0.6,0.1-1,0.1l2.4-8c0.3-1,0.6-2,1-3.3
			c0.4-1.2,0.7-2.5,1.1-3.8c0.4-1.3,0.7-2.5,1.1-3.6c0.3-1.1,0.6-2.1,0.8-2.9c1.4-0.1,2.8-0.2,4.2-0.4c1.4-0.1,2.8-0.3,4.2-0.6
			c-0.1,1.1-0.2,2.4-0.3,3.9c-0.1,1.4-0.2,2.9-0.2,4.4c-0.1,1.5-0.1,3-0.2,4.5c0,1.4-0.1,2.9-0.2,4.4c-0.1,1.5-0.1,3-0.2,4.6
			c-0.3,0-0.6,0.1-0.9,0.1c-0.3,0-0.6,0.1-0.9,0.1c-0.5,0.1-1.1,0.2-1.7,0.3C208.4,47.4,207.8,47.5,207.3,47.6z M206,39.4
			c0.1,0,0.4,0,0.7,0c0.3,0,0.7,0,1-0.1c0.3,0,0.5,0,0.6,0c0-0.3,0-0.8,0.1-1.6c0.1-0.8,0.2-1.7,0.2-2.6c0-0.5,0.1-1.1,0.1-1.6
			c0.1-0.6,0.1-1.1,0.2-1.7L209,29l-0.5,0l-0.7,2.6L206,39.4z"/>
	</g>
	<g class="st0">
		<path d="M114.2,81.4c-1.3,0-2.4-0.5-3.3-1.6c-0.9-1-1.3-2.6-1.3-4.7c0-1.2,0.1-2.4,0.4-3.7c0.3-1.3,0.7-2.5,1.2-3.8
			c0.5-1.2,1.1-2.4,1.8-3.5c1.1-1.7,2.3-3.1,3.7-4.2c1.4-1.1,2.9-1.6,4.4-1.6c1.2,0,2.2,0.3,2.8,0.9c0.7,0.6,1.1,1.4,1.4,2.4
			c0.3,1,0.4,2,0.4,3c0,2.4-0.4,4.7-1.1,6.8c-0.7,2.1-1.7,3.9-2.9,5.3c-1.2,1.5-2.4,2.6-3.8,3.4C116.7,81.1,115.4,81.4,114.2,81.4z
			 M115.8,76.4c0.9,0,1.7-0.3,2.4-0.9c0.7-0.6,1.3-1.4,1.8-2.3c0.5-0.9,0.9-1.9,1.1-3c0.2-1,0.4-2,0.4-2.8c0-0.3,0-0.7-0.1-1.1
			c-0.1-0.4-0.2-0.7-0.4-1c-0.2-0.3-0.5-0.4-0.9-0.4c-0.9,0-1.8,0.3-2.5,1c-0.8,0.7-1.4,1.5-1.9,2.6c-0.5,1.1-0.9,2.1-1.1,3.1
			c-0.2,1-0.4,1.9-0.4,2.8c0,0.4,0.2,0.9,0.5,1.3C114.9,76.2,115.3,76.4,115.8,76.4z"/>
		<path d="M124.4,81.5c0.3-1.4,0.6-2.9,0.8-4.3c0.3-1.4,0.5-2.8,0.8-4.1c0.3-1.6,0.6-3.2,0.9-4.8c0.3-1.6,0.6-3.2,0.8-4.8
			c0.3-1.5,0.5-3,0.6-4.3c0.3,0,0.6,0,0.9-0.1c0.3,0,0.6,0,0.9-0.1c0.3,0,0.5,0,0.8-0.1c0.3,0,0.5,0,0.8-0.1l1.5-0.1
			c0.1,0.8,0.3,1.5,0.4,2.3c0.1,0.8,0.2,1.5,0.3,2.2c0.1,0.5,0.2,1.1,0.3,1.7c0.1,0.7,0.2,1.3,0.3,2c0.1,0.7,0.2,1.3,0.3,1.9
			c0.1,0.6,0.2,1.1,0.3,1.4c0.2-1.1,0.4-2,0.5-2.7c0.1-0.7,0.3-1.4,0.4-2c0.1-0.7,0.3-1.4,0.5-2.3l0.9-4.5l3.7-0.5
			c-0.3,1.5-0.7,3-1,4.5s-0.6,2.9-0.9,4.2c-0.5,2.5-1,4.8-1.3,6.9c-0.4,2.1-0.7,4-0.9,5.6l-5,1.2l-0.5-4.7c0-0.5-0.1-1-0.2-1.7
			c-0.1-0.7-0.2-1.3-0.2-2c-0.1-0.7-0.2-1.3-0.2-1.9c-0.1-0.6-0.1-1-0.2-1.3c-0.2,1.2-0.4,2.4-0.6,3.5c-0.2,1.1-0.4,2.2-0.6,3.3
			c-0.1,0.7-0.3,1.5-0.4,2.2c-0.1,0.8-0.3,1.5-0.4,2.3L124.4,81.5z"/>
		<path d="M138.9,81.4c0.2-1.6,0.5-3.2,0.7-4.9c0.3-1.6,0.5-3.2,0.8-4.7c0.3-1.5,0.5-2.9,0.8-4.1c0.3-1.3,0.5-2.7,0.8-4
			c0.3-1.4,0.5-2.7,0.8-4.1l5.3-0.7l-1.6,6.9c-0.3,1.2-0.6,2.5-0.9,3.9c-0.3,1.4-0.6,2.7-0.8,4c-0.2,1.3-0.4,2.4-0.6,3.4
			c0.5,0,1.1-0.1,1.6-0.1c0.6,0,1.1,0,1.5,0c0,0.5,0.1,1,0.1,1.5c0.1,0.5,0.1,1,0.2,1.3c0.1,0.4,0.1,0.6,0.1,0.6c-0.1,0-0.2,0-0.2,0
			s-0.1,0-0.2,0H147c-0.8,0-1.7,0-2.6,0.1c-1,0.1-1.9,0.2-2.9,0.3C140.5,80.9,139.7,81.1,138.9,81.4z"/>
		<path d="M148.1,81.3c0.3-1.2,0.7-2.6,1-4.1c0.3-1.5,0.7-3.1,1-4.7c0.3-1.6,0.6-3.1,0.9-4.5c0.3-1.3,0.5-2.6,0.8-4
			c0.2-1.3,0.5-2.7,0.7-4.1l4.8-0.8c-0.3,1.4-0.5,2.7-0.8,4c-0.3,1.3-0.5,2.7-0.8,4c-0.3,1.4-0.6,2.9-0.9,4.5
			c-0.3,1.6-0.6,3.2-0.9,4.7c-0.3,1.5-0.6,3-0.8,4.3c-0.4,0-0.8,0-1.4,0.1c-0.5,0.1-1.1,0.1-1.6,0.2c-0.6,0.1-1,0.1-1.4,0.2
			S148.1,81.3,148.1,81.3z"/>
		<path d="M155,81.5c0.3-1.4,0.6-2.9,0.8-4.3c0.3-1.4,0.5-2.8,0.8-4.1c0.3-1.6,0.6-3.2,0.9-4.8c0.3-1.6,0.6-3.2,0.8-4.8
			c0.3-1.5,0.5-3,0.6-4.3c0.3,0,0.6,0,0.9-0.1c0.3,0,0.6,0,0.9-0.1c0.3,0,0.5,0,0.8-0.1c0.3,0,0.5,0,0.8-0.1l1.5-0.1
			c0.1,0.8,0.3,1.5,0.4,2.3c0.1,0.8,0.2,1.5,0.3,2.2c0.1,0.5,0.2,1.1,0.3,1.7c0.1,0.7,0.2,1.3,0.3,2c0.1,0.7,0.2,1.3,0.3,1.9
			c0.1,0.6,0.2,1.1,0.3,1.4c0.2-1.1,0.4-2,0.5-2.7c0.1-0.7,0.3-1.4,0.4-2c0.1-0.7,0.3-1.4,0.5-2.3l0.9-4.5l3.7-0.5
			c-0.3,1.5-0.7,3-1,4.5c-0.3,1.4-0.6,2.9-0.9,4.2c-0.5,2.5-1,4.8-1.3,6.9c-0.4,2.1-0.7,4-0.9,5.6l-5,1.2l-0.5-4.7
			c0-0.5-0.1-1-0.2-1.7c-0.1-0.7-0.2-1.3-0.2-2c-0.1-0.7-0.2-1.3-0.2-1.9s-0.1-1-0.2-1.3c-0.2,1.2-0.4,2.4-0.6,3.5
			c-0.2,1.1-0.4,2.2-0.6,3.3c-0.1,0.7-0.3,1.5-0.4,2.2c-0.1,0.8-0.3,1.5-0.4,2.3L155,81.5z"/>
		<path d="M169.4,81.4l4-21.7l9.7-0.8c-0.1,0.4-0.3,0.9-0.4,1.4c-0.1,0.4-0.2,0.8-0.3,1.2c-0.1,0.4-0.2,0.8-0.2,1.1
			c-0.3,0-0.6,0-1.1,0c-0.5,0-1,0-1.5,0c-0.5,0-0.9,0-1.3,0c-0.4,0-0.6,0-0.6,0l-1.1,5.5l1.8-0.1c0.2,0,0.5,0,0.7,0
			c0.2,0,0.5,0,0.7,0c0.2,0,0.4,0,0.6,0c0.2,0,0.3,0,0.4,0c0,0.3-0.1,0.6-0.1,0.8c0,0.3-0.1,0.6-0.1,0.8l-0.3,1.7
			c-0.1,0-0.2,0-0.4,0c-0.2,0-0.4,0-0.6,0c-0.2,0-0.5,0-0.7,0c-0.2,0-0.5,0-0.7,0c-0.3,0-0.5,0-0.8,0c-0.3,0-0.6,0-0.9,0l-1,5.6
			l4.5-0.7l-0.3,3.5L169.4,81.4z"/>
	</g>
	<path d="M70.7,11.4c33.8,0,113.9-1,146.6-0.5c3.3,0.6,5.8,3.2,7.1,6.2c0.8,2,1.2,4,1.2,6.2c0.1,14.7,0.2,39.1,0.3,53.8l0.1,6
		c0.1,2.2-0.4,4.3-1.2,6.3c-1.3,3.1-3.9,5.7-7.4,6.4c-0.9,0.3-2.3,0.2-3.2,0.2c-11.9,0.1-35.9,0.1-47.8,0
		c-31.9-0.2-63.8-0.4-95.6-1.1v-0.3c31.9-0.7,63.8-0.9,95.6-1.1c11.9-0.1,35.9-0.1,47.8,0c0.9,0.1,1.8,0,2.7-0.1
		c4-0.8,6.3-5,6.6-8.9c0.1-0.8,0.1-6.4,0.1-7.4c0.1-14.8,0.2-39.1,0.3-53.8c0.1-1.9-0.3-3.7-1-5.4c-1.2-2.8-3.9-5.3-7.1-5.4
		C184.4,12,102.4,12.3,70.7,11.4L70.7,11.4z"/>
</g>
</svg>
