<svg width="45" height="48" viewBox="0 0 45 48" fill="none" xmlns="http://www.w3.org/2000/svg">
<path d="M37.5937 21.8716H7.40625C6.42249 21.8716 5.625 22.7173 5.625 23.7605V23.9593C5.625 25.0026 6.42249 25.8482 7.40625 25.8482H37.5937C38.5775 25.8482 39.375 25.0026 39.375 23.9593V23.7605C39.375 22.7173 38.5775 21.8716 37.5937 21.8716Z" fill="#231F20"/>
<path d="M37.5937 31.8134H7.40625C6.42249 31.8134 5.625 32.6591 5.625 33.7023V33.9012C5.625 34.9444 6.42249 35.7901 7.40625 35.7901H37.5937C38.5775 35.7901 39.375 34.9444 39.375 33.9012V33.7023C39.375 32.6591 38.5775 31.8134 37.5937 31.8134Z" fill="#231F20"/>
<path d="M37.5937 11.9297H7.40625C6.42249 11.9297 5.625 12.7754 5.625 13.8186V14.0174C5.625 15.0607 6.42249 15.9064 7.40625 15.9064H37.5937C38.5775 15.9064 39.375 15.0607 39.375 14.0174V13.8186C39.375 12.7754 38.5775 11.9297 37.5937 11.9297Z" fill="#231F20"/>
</svg>
