<svg width="52" height="52" viewBox="0 0 52 52" fill="none" xmlns="http://www.w3.org/2000/svg">
<g clip-path="url(#clip0_158_5857)">
<path d="M28.1667 23.8333C28.1667 28.6217 23.3155 32.5 17.3333 32.5C11.3512 32.5 6.5 28.6217 6.5 23.8333C6.5 28.4304 8.32619 32.8392 11.5768 36.0899C14.8274 39.3405 19.2362 41.1667 23.8333 41.1667C28.4304 41.1667 32.8392 39.3405 36.0899 36.0899C39.3405 32.8392 41.1667 28.4304 41.1667 23.8333C41.1667 22.1094 40.4818 20.4561 39.2629 19.2371C38.0439 18.0182 36.3906 17.3333 34.6667 17.3333C32.9428 17.3333 31.2895 18.0182 30.0705 19.2371C28.8515 20.4561 28.1667 22.1094 28.1667 23.8333Z" stroke="white" stroke-width="3.25" stroke-linecap="round" stroke-linejoin="round"/>
<path d="M34.6667 17.3333C34.6667 13 39.0001 8.66666 43.3334 8.66666" stroke="white" stroke-width="3.25" stroke-linecap="round" stroke-linejoin="round"/>
</g>
<defs>
<clipPath id="clip0_158_5857">
<rect width="52" height="52" fill="white"/>
</clipPath>
</defs>
</svg>
