<svg width="40" height="40" viewBox="0 0 40 40" fill="none" xmlns="http://www.w3.org/2000/svg">
<path fill-rule="evenodd" clip-rule="evenodd" d="M6.25 0C2.79824 0 0 2.79822 0 6.25V33.75C0 37.2018 2.79824 40 6.25 40H33.75C37.2018 40 40 37.2018 40 33.75V6.25C40 2.79822 37.2018 0 33.75 0H6.25ZM23.8978 10C23.8978 10.2972 23.9255 10.5899 23.9766 10.8731C24.2226 12.1826 24.9975 13.3063 26.074 14.0074C26.8256 14.4996 27.7165 14.7829 28.6769 14.7829L28.6766 15.5491V18.2191C26.895 18.2191 25.2432 17.648 23.8978 16.6821V23.6707C23.8978 27.1581 21.0583 30 17.5739 30C16.2284 30 14.9756 29.5726 13.9503 28.853C12.3171 27.706 11.25 25.8114 11.25 23.6707C11.25 20.1787 14.0849 17.3415 17.5693 17.3461C17.8615 17.3461 18.1446 17.3694 18.423 17.4065V18.2191L18.4128 18.224L18.4229 18.2238V20.9171C18.1539 20.8335 17.8661 20.7824 17.5693 20.7824C15.9779 20.7824 14.6834 22.078 14.6834 23.6707C14.6834 24.7806 15.3144 25.7417 16.233 26.2294C16.2466 26.248 16.2604 26.2665 16.2744 26.2847C16.2639 26.2644 16.2516 26.2444 16.2376 26.2247C16.6413 26.4384 17.096 26.559 17.5785 26.559C19.1327 26.559 20.4041 25.3193 20.4597 23.7776L20.4644 10H23.8978Z" fill="white"/>
</svg>
