<svg width="60" height="43" viewBox="0 0 60 43" fill="none" xmlns="http://www.w3.org/2000/svg">
<path d="M39.9675 20.4555C34.4662 17.5156 23.8142 11.9909 23.8142 11.9909L38.0161 21.5364C38.0172 21.5364 35.4291 22.9713 39.9675 20.4555Z" fill="#F6F6F6"/>
<path d="M24.8493 42.0869C13.4225 41.8765 9.51975 41.6873 7.12086 41.193C5.49785 40.8646 4.08746 40.1355 3.05332 39.078C2.25406 38.2776 1.61843 37.0565 1.1253 35.3622C0.70229 33.9507 0.53754 32.7763 0.302661 29.9077C-0.0568949 23.4334 -0.142609 18.1403 0.302661 12.226C0.670008 8.95994 0.848116 5.08276 3.2882 2.82079C4.44033 1.76216 5.78059 1.08089 7.28561 0.79926C9.63663 0.352876 19.653 0 30.0222 0C40.368 0 50.4067 0.352876 52.7599 0.79926C54.6401 1.15214 56.4033 2.20965 57.4386 3.57329C59.6649 7.07534 59.7039 11.4301 59.9299 14.8364C60.0234 16.4594 60.0234 25.6754 59.9299 27.2984C59.5781 32.6817 59.2954 34.5863 58.4961 36.5611C58.0019 37.8079 57.58 38.4658 56.8497 39.1949C55.7044 40.3169 54.2444 41.0633 52.6642 41.3344C42.7758 42.078 34.3792 42.2394 24.8493 42.0869ZM39.9918 20.4557C34.4905 17.5158 29.2229 14.7896 23.8385 11.9677V28.8502C29.5046 25.77 35.4779 22.9481 40.0152 20.4323L39.9918 20.4557Z" fill="white"/>
</svg>
